G04 #@! TF.GenerationSoftware,KiCad,Pcbnew,7.0.7*
G04 #@! TF.CreationDate,2024-01-31T11:47:32+01:00*
G04 #@! TF.ProjectId,PartnerPDM,50617274-6e65-4725-9044-4d2e6b696361,rev?*
G04 #@! TF.SameCoordinates,Original*
G04 #@! TF.FileFunction,Soldermask,Top*
G04 #@! TF.FilePolarity,Negative*
%FSLAX46Y46*%
G04 Gerber Fmt 4.6, Leading zero omitted, Abs format (unit mm)*
G04 Created by KiCad (PCBNEW 7.0.7) date 2024-01-31 11:47:32*
%MOMM*%
%LPD*%
G01*
G04 APERTURE LIST*
%ADD10C,2.600000*%
%ADD11C,1.700000*%
%ADD12O,1.700000X1.700000*%
G04 APERTURE END LIST*
D10*
X125000000Y-47505000D03*
X120000000Y-47505000D03*
X115000000Y-47505000D03*
X110000000Y-47505000D03*
X65000000Y-47505000D03*
X60000000Y-47505000D03*
X55000000Y-47505000D03*
X50000000Y-47505000D03*
X105000000Y-47505000D03*
X100000000Y-47505000D03*
X95000000Y-47505000D03*
X90000000Y-47505000D03*
X145000000Y-47505000D03*
X140000000Y-47505000D03*
X135000000Y-47505000D03*
X130000000Y-47505000D03*
X85000000Y-47505000D03*
X80000000Y-47505000D03*
X75000000Y-47505000D03*
X70000000Y-47505000D03*
X125000000Y-72503333D03*
X120000000Y-72503333D03*
X115000000Y-72503333D03*
X110000000Y-72503333D03*
X65000000Y-72503333D03*
X60000000Y-72503333D03*
X55000000Y-72503333D03*
X50000000Y-72503333D03*
X85000000Y-72503333D03*
X80000000Y-72503333D03*
X75000000Y-72503333D03*
X70000000Y-72503333D03*
X145000000Y-72503333D03*
X140000000Y-72503333D03*
X135000000Y-72503333D03*
X130000000Y-72503333D03*
X105000000Y-72503333D03*
X100000000Y-72503333D03*
X95000000Y-72503333D03*
X90000000Y-72503333D03*
X125000000Y-97501666D03*
X120000000Y-97501666D03*
X115000000Y-97501666D03*
X110000000Y-97501666D03*
X85000000Y-97501666D03*
X80000000Y-97501666D03*
X75000000Y-97501666D03*
X70000000Y-97501666D03*
X105000000Y-97501666D03*
X100000000Y-97501666D03*
X95000000Y-97501666D03*
X90000000Y-97501666D03*
X165261521Y-92113750D03*
X160261521Y-92113750D03*
X105000000Y-122500000D03*
X100000000Y-122500000D03*
X95000000Y-122500000D03*
X90000000Y-122500000D03*
D11*
X161481521Y-103023750D03*
D12*
X164021521Y-103023750D03*
D10*
X145000000Y-97501666D03*
X140000000Y-97501666D03*
X135000000Y-97501666D03*
X130000000Y-97501666D03*
X65000000Y-97501666D03*
X60000000Y-97501666D03*
X55000000Y-97501666D03*
X50000000Y-97501666D03*
X85000000Y-122500000D03*
X80000000Y-122500000D03*
X75000000Y-122500000D03*
X70000000Y-122500000D03*
X145000000Y-122500000D03*
X140000000Y-122500000D03*
X135000000Y-122500000D03*
X130000000Y-122500000D03*
X153866521Y-117500000D03*
X171646521Y-122580000D03*
X171646521Y-112420000D03*
X65000000Y-122500000D03*
X60000000Y-122500000D03*
X55000000Y-122500000D03*
X50000000Y-122500000D03*
X125000000Y-122500000D03*
X120000000Y-122500000D03*
X115000000Y-122500000D03*
X110000000Y-122500000D03*
M02*
