M48
; DRILL file {KiCad 7.0.7} date Tue Jan 30 22:32:06 2024
; FORMAT={-:-/ absolute / metric / decimal}
; #@! TF.CreationDate,2024-01-30T22:32:06+01:00
; #@! TF.GenerationSoftware,Kicad,Pcbnew,7.0.7
; #@! TF.FileFunction,Plated,1,2,PTH
FMAT,2
METRIC
; #@! TA.AperFunction,Plated,PTH,ComponentDrill
T1C1.000
; #@! TA.AperFunction,Plated,PTH,ComponentDrill
T2C1.300
%
G90
G05
T1
X161.482Y-103.024
X164.022Y-103.024
T2
X50.0Y-72.503
X50.0Y-97.502
X50.0Y-122.5
X50.08Y-47.505
X55.0Y-72.503
X55.0Y-97.502
X55.0Y-122.5
X55.08Y-47.505
X60.0Y-72.503
X60.0Y-97.502
X60.0Y-122.5
X60.08Y-47.505
X65.0Y-72.503
X65.0Y-97.502
X65.0Y-122.5
X65.08Y-47.505
X70.0Y-72.503
X70.0Y-97.502
X70.0Y-122.5
X70.08Y-47.505
X75.0Y-72.503
X75.0Y-97.502
X75.0Y-122.5
X75.08Y-47.505
X80.0Y-72.503
X80.0Y-97.502
X80.0Y-122.5
X80.08Y-47.505
X85.0Y-72.503
X85.0Y-97.502
X85.0Y-122.5
X85.08Y-47.505
X90.0Y-72.503
X90.0Y-97.502
X90.0Y-122.5
X90.08Y-47.505
X95.0Y-72.503
X95.0Y-97.502
X95.0Y-122.5
X95.08Y-47.505
X100.0Y-72.503
X100.0Y-97.502
X100.0Y-122.5
X100.08Y-47.505
X105.0Y-72.503
X105.0Y-97.502
X105.0Y-122.5
X105.08Y-47.505
X110.0Y-72.503
X110.0Y-97.502
X110.0Y-122.5
X110.08Y-47.505
X115.0Y-72.503
X115.0Y-97.502
X115.0Y-122.5
X115.08Y-47.505
X120.0Y-72.503
X120.0Y-97.502
X120.0Y-122.5
X120.08Y-47.505
X125.0Y-72.503
X125.0Y-97.502
X125.0Y-122.5
X125.08Y-47.505
X130.0Y-72.503
X130.0Y-97.502
X130.0Y-122.5
X130.08Y-47.505
X135.0Y-72.503
X135.0Y-97.502
X135.0Y-122.5
X135.08Y-47.505
X140.0Y-72.503
X140.0Y-97.502
X140.0Y-122.5
X140.08Y-47.505
X145.0Y-72.503
X145.0Y-97.502
X145.0Y-122.5
X145.08Y-47.505
X153.867Y-117.5
X160.262Y-92.114
X165.262Y-92.114
X171.647Y-112.42
X171.647Y-122.58
T0
M30
