G04 #@! TF.GenerationSoftware,KiCad,Pcbnew,7.0.7*
G04 #@! TF.CreationDate,2024-01-31T11:47:32+01:00*
G04 #@! TF.ProjectId,PartnerPDM,50617274-6e65-4725-9044-4d2e6b696361,rev?*
G04 #@! TF.SameCoordinates,Original*
G04 #@! TF.FileFunction,Legend,Top*
G04 #@! TF.FilePolarity,Positive*
%FSLAX46Y46*%
G04 Gerber Fmt 4.6, Leading zero omitted, Abs format (unit mm)*
G04 Created by KiCad (PCBNEW 7.0.7) date 2024-01-31 11:47:32*
%MOMM*%
%LPD*%
G01*
G04 APERTURE LIST*
%ADD10C,0.000000*%
%ADD11C,0.120000*%
%ADD12C,0.150000*%
%ADD13C,2.600000*%
%ADD14C,1.700000*%
%ADD15O,1.700000X1.700000*%
G04 APERTURE END LIST*
D10*
G36*
X158700619Y-56685096D02*
G01*
X158749621Y-56687205D01*
X158772444Y-56688820D01*
X158794176Y-56690822D01*
X158814835Y-56693222D01*
X158834442Y-56696030D01*
X158853016Y-56699257D01*
X158870578Y-56702913D01*
X158887146Y-56707009D01*
X158902742Y-56711555D01*
X158917384Y-56716561D01*
X158931092Y-56722037D01*
X158943886Y-56727995D01*
X158955786Y-56734445D01*
X158966811Y-56741397D01*
X158976982Y-56748862D01*
X158986318Y-56756849D01*
X158994839Y-56765370D01*
X159002565Y-56774434D01*
X159009515Y-56784053D01*
X159015710Y-56794237D01*
X159021168Y-56804995D01*
X159025910Y-56816339D01*
X159029956Y-56828279D01*
X159033325Y-56840826D01*
X159036037Y-56853989D01*
X159038112Y-56867780D01*
X159039570Y-56882208D01*
X159040430Y-56897284D01*
X159040712Y-56913019D01*
X159039570Y-56946003D01*
X159036037Y-56975984D01*
X159033324Y-56989885D01*
X159029955Y-57003081D01*
X159025908Y-57015586D01*
X159021166Y-57027416D01*
X159015707Y-57038585D01*
X159009512Y-57049109D01*
X159002562Y-57059003D01*
X158994835Y-57068282D01*
X158986314Y-57076961D01*
X158976977Y-57085055D01*
X158966806Y-57092580D01*
X158955780Y-57099550D01*
X158943880Y-57105980D01*
X158931085Y-57111886D01*
X158902735Y-57122186D01*
X158870571Y-57130569D01*
X158834435Y-57137157D01*
X158794170Y-57142071D01*
X158749616Y-57145431D01*
X158700617Y-57147358D01*
X158647013Y-57147974D01*
X158151712Y-57147974D01*
X158100842Y-57148614D01*
X158055210Y-57150714D01*
X158014544Y-57154544D01*
X157995989Y-57157192D01*
X157978575Y-57160373D01*
X157962269Y-57164122D01*
X157947035Y-57168472D01*
X157932841Y-57173457D01*
X157919652Y-57179111D01*
X157907436Y-57185467D01*
X157896158Y-57192559D01*
X157885784Y-57200420D01*
X157876282Y-57209085D01*
X157867616Y-57218587D01*
X157859754Y-57228961D01*
X157852662Y-57240238D01*
X157846306Y-57252455D01*
X157840652Y-57265643D01*
X157835666Y-57279837D01*
X157831316Y-57295071D01*
X157827566Y-57311378D01*
X157824384Y-57328792D01*
X157821736Y-57347347D01*
X157817905Y-57388014D01*
X157815805Y-57433649D01*
X157815165Y-57484522D01*
X157815165Y-57516321D01*
X157815495Y-57552588D01*
X157816615Y-57585371D01*
X157818722Y-57614902D01*
X157822009Y-57641413D01*
X157824157Y-57653609D01*
X157826674Y-57665136D01*
X157829583Y-57676025D01*
X157832910Y-57686304D01*
X157836678Y-57696001D01*
X157840913Y-57705147D01*
X157845639Y-57713770D01*
X157850880Y-57721899D01*
X157856660Y-57729562D01*
X157863004Y-57736790D01*
X157869937Y-57743611D01*
X157877482Y-57750054D01*
X157885665Y-57756147D01*
X157894509Y-57761921D01*
X157904039Y-57767404D01*
X157914280Y-57772624D01*
X157925255Y-57777612D01*
X157936990Y-57782395D01*
X157962836Y-57791466D01*
X157992012Y-57800069D01*
X158024714Y-57808435D01*
X158056365Y-57818007D01*
X158084762Y-57827876D01*
X158110071Y-57838342D01*
X158132460Y-57849701D01*
X158142611Y-57855809D01*
X158152095Y-57862251D01*
X158160933Y-57869066D01*
X158169146Y-57876290D01*
X158176753Y-57883961D01*
X158183777Y-57892115D01*
X158190239Y-57900791D01*
X158196158Y-57910024D01*
X158201557Y-57919853D01*
X158206456Y-57930315D01*
X158210876Y-57941446D01*
X158214838Y-57953284D01*
X158221470Y-57979230D01*
X158226522Y-58008451D01*
X158230159Y-58041243D01*
X158232551Y-58077904D01*
X158233862Y-58118733D01*
X158234262Y-58164026D01*
X158234262Y-59135523D01*
X158233321Y-59214838D01*
X158230306Y-59286340D01*
X158224928Y-59350399D01*
X158221263Y-59379754D01*
X158216899Y-59407387D01*
X158211800Y-59433347D01*
X158205930Y-59457678D01*
X158199254Y-59480428D01*
X158191734Y-59501643D01*
X158183335Y-59521370D01*
X158174022Y-59539654D01*
X158163757Y-59556544D01*
X158152505Y-59572084D01*
X158140230Y-59586322D01*
X158126895Y-59599305D01*
X158112466Y-59611078D01*
X158096905Y-59621688D01*
X158080176Y-59631183D01*
X158062245Y-59639607D01*
X158043073Y-59647009D01*
X158022627Y-59653433D01*
X158000868Y-59658928D01*
X157977762Y-59663539D01*
X157953273Y-59667313D01*
X157927364Y-59670297D01*
X157871142Y-59674079D01*
X157808809Y-59675256D01*
X157737746Y-59674358D01*
X157674302Y-59671338D01*
X157618058Y-59665715D01*
X157592505Y-59661776D01*
X157568596Y-59657004D01*
X157546276Y-59651339D01*
X157525496Y-59644721D01*
X157506201Y-59637089D01*
X157488340Y-59628383D01*
X157471860Y-59618542D01*
X157456710Y-59607506D01*
X157442836Y-59595214D01*
X157430186Y-59581606D01*
X157418709Y-59566621D01*
X157408351Y-59550199D01*
X157399061Y-59532279D01*
X157390786Y-59512801D01*
X157383473Y-59491705D01*
X157377071Y-59468929D01*
X157371527Y-59444414D01*
X157366789Y-59418099D01*
X157359520Y-59359827D01*
X157354847Y-59293630D01*
X157352350Y-59219023D01*
X157351610Y-59135523D01*
X157351610Y-57186060D01*
X157352427Y-57108238D01*
X157355170Y-57038736D01*
X157360275Y-56977101D01*
X157363850Y-56949090D01*
X157368180Y-56922875D01*
X157373319Y-56898399D01*
X157379322Y-56875604D01*
X157386243Y-56854435D01*
X157394138Y-56834833D01*
X157403060Y-56816742D01*
X157413065Y-56800106D01*
X157424208Y-56784866D01*
X157436542Y-56770967D01*
X157450122Y-56758351D01*
X157465004Y-56746962D01*
X157481241Y-56736742D01*
X157498888Y-56727635D01*
X157518001Y-56719583D01*
X157538634Y-56712531D01*
X157560840Y-56706420D01*
X157584676Y-56701193D01*
X157610195Y-56696795D01*
X157637453Y-56693168D01*
X157697402Y-56688000D01*
X157764959Y-56685233D01*
X157840563Y-56684412D01*
X158647013Y-56684412D01*
X158700619Y-56685096D01*
G37*
G36*
X161329279Y-56685293D02*
G01*
X161397615Y-56688057D01*
X161458099Y-56693222D01*
X161485543Y-56696846D01*
X161511198Y-56701242D01*
X161535123Y-56706465D01*
X161557375Y-56712573D01*
X161578014Y-56719623D01*
X161597097Y-56727672D01*
X161614682Y-56736776D01*
X161630828Y-56746993D01*
X161645593Y-56758380D01*
X161659034Y-56770994D01*
X161671210Y-56784891D01*
X161682179Y-56800129D01*
X161691999Y-56816764D01*
X161700729Y-56834854D01*
X161708426Y-56854455D01*
X161715149Y-56875625D01*
X161720956Y-56898420D01*
X161725904Y-56922897D01*
X161733460Y-56977128D01*
X161738281Y-57038771D01*
X161740832Y-57108284D01*
X161741579Y-57186121D01*
X161741671Y-57840265D01*
X161740784Y-57913775D01*
X161737851Y-57979779D01*
X161732461Y-58038658D01*
X161728718Y-58065544D01*
X161724207Y-58090793D01*
X161718878Y-58114451D01*
X161712679Y-58136565D01*
X161705559Y-58157185D01*
X161697467Y-58176357D01*
X161688352Y-58194129D01*
X161678163Y-58210549D01*
X161666848Y-58225664D01*
X161654356Y-58239523D01*
X161640637Y-58252172D01*
X161625638Y-58263659D01*
X161609309Y-58274033D01*
X161591600Y-58283341D01*
X161572457Y-58291629D01*
X161551831Y-58298948D01*
X161529670Y-58305342D01*
X161505924Y-58310862D01*
X161480540Y-58315553D01*
X161453468Y-58319464D01*
X161394055Y-58325137D01*
X161327274Y-58328261D01*
X161252718Y-58329218D01*
X160624071Y-58329218D01*
X160573201Y-58329858D01*
X160527568Y-58331958D01*
X160486902Y-58335788D01*
X160468348Y-58338436D01*
X160450934Y-58341617D01*
X160434627Y-58345366D01*
X160419394Y-58349716D01*
X160405199Y-58354701D01*
X160392011Y-58360355D01*
X160379795Y-58366711D01*
X160368517Y-58373802D01*
X160358143Y-58381664D01*
X160348640Y-58390329D01*
X160339975Y-58399831D01*
X160332113Y-58410204D01*
X160325021Y-58421482D01*
X160318665Y-58433699D01*
X160313011Y-58446887D01*
X160308025Y-58461081D01*
X160303675Y-58476315D01*
X160299925Y-58492622D01*
X160296743Y-58510036D01*
X160294095Y-58528591D01*
X160290264Y-58569258D01*
X160288164Y-58614893D01*
X160287523Y-58665765D01*
X160287523Y-58868951D01*
X160288026Y-58922952D01*
X160289756Y-58970909D01*
X160293049Y-59013175D01*
X160295386Y-59032284D01*
X160298239Y-59050103D01*
X160301651Y-59066676D01*
X160305662Y-59082047D01*
X160310315Y-59096260D01*
X160315652Y-59109360D01*
X160321715Y-59121390D01*
X160328545Y-59132395D01*
X160336184Y-59142419D01*
X160344674Y-59151506D01*
X160354057Y-59159700D01*
X160364375Y-59167046D01*
X160375670Y-59173587D01*
X160387984Y-59179367D01*
X160401357Y-59184431D01*
X160415833Y-59188824D01*
X160431453Y-59192588D01*
X160448260Y-59195769D01*
X160485597Y-59200556D01*
X160528181Y-59203538D01*
X160576346Y-59205068D01*
X160630426Y-59205499D01*
X161005075Y-59205499D01*
X161039325Y-59204892D01*
X161070712Y-59203020D01*
X161085367Y-59201586D01*
X161099347Y-59199808D01*
X161112668Y-59197677D01*
X161125342Y-59195183D01*
X161137383Y-59192318D01*
X161148806Y-59189070D01*
X161159625Y-59185433D01*
X161169853Y-59181395D01*
X161179504Y-59176948D01*
X161188593Y-59172082D01*
X161197132Y-59166789D01*
X161205136Y-59161058D01*
X161212619Y-59154881D01*
X161219595Y-59148248D01*
X161226078Y-59141150D01*
X161232081Y-59133577D01*
X161237618Y-59125521D01*
X161242704Y-59116972D01*
X161247352Y-59107920D01*
X161251576Y-59098357D01*
X161255390Y-59088273D01*
X161258808Y-59077658D01*
X161261844Y-59066504D01*
X161264511Y-59054801D01*
X161266824Y-59042539D01*
X161268797Y-59029711D01*
X161271776Y-59002313D01*
X161284380Y-58894312D01*
X161287504Y-58868863D01*
X161289622Y-58856703D01*
X161292108Y-58844922D01*
X161294962Y-58833523D01*
X161298181Y-58822507D01*
X161301766Y-58811877D01*
X161305715Y-58801635D01*
X161310027Y-58791785D01*
X161314700Y-58782327D01*
X161319734Y-58773265D01*
X161325127Y-58764600D01*
X161330878Y-58756335D01*
X161336985Y-58748473D01*
X161343449Y-58741015D01*
X161350267Y-58733965D01*
X161357439Y-58727323D01*
X161364963Y-58721093D01*
X161372838Y-58715278D01*
X161381063Y-58709878D01*
X161389637Y-58704897D01*
X161398558Y-58700337D01*
X161407826Y-58696200D01*
X161417439Y-58692489D01*
X161427396Y-58689206D01*
X161437696Y-58686353D01*
X161448338Y-58683933D01*
X161459320Y-58681947D01*
X161470642Y-58680398D01*
X161482302Y-58679290D01*
X161494299Y-58678623D01*
X161506632Y-58678400D01*
X161536476Y-58679596D01*
X161550572Y-58681099D01*
X161564125Y-58683212D01*
X161577138Y-58685938D01*
X161589616Y-58689282D01*
X161601565Y-58693250D01*
X161612988Y-58697846D01*
X161623890Y-58703074D01*
X161634276Y-58708939D01*
X161644150Y-58715446D01*
X161653518Y-58722600D01*
X161662383Y-58730405D01*
X161670751Y-58738865D01*
X161678626Y-58747986D01*
X161686012Y-58757772D01*
X161692915Y-58768228D01*
X161699339Y-58779358D01*
X161705289Y-58791167D01*
X161710769Y-58803660D01*
X161715783Y-58816842D01*
X161720338Y-58830716D01*
X161728084Y-58860562D01*
X161734044Y-58893237D01*
X161738255Y-58928776D01*
X161740754Y-58967218D01*
X161741579Y-59008600D01*
X161741579Y-59186395D01*
X161740692Y-59260962D01*
X161737759Y-59327749D01*
X161732370Y-59387168D01*
X161728627Y-59414242D01*
X161724116Y-59439627D01*
X161718787Y-59463374D01*
X161712588Y-59485536D01*
X161705468Y-59506162D01*
X161697376Y-59525304D01*
X161688261Y-59543013D01*
X161678071Y-59559341D01*
X161666756Y-59574338D01*
X161654264Y-59588056D01*
X161640545Y-59600546D01*
X161625547Y-59611860D01*
X161609218Y-59622047D01*
X161591508Y-59631161D01*
X161572366Y-59639251D01*
X161551740Y-59646369D01*
X161529579Y-59652566D01*
X161505832Y-59657893D01*
X161480448Y-59662402D01*
X161453376Y-59666144D01*
X161393963Y-59671530D01*
X161327183Y-59674462D01*
X161252626Y-59675348D01*
X159900080Y-59675348D01*
X159825525Y-59674461D01*
X159758745Y-59671528D01*
X159699333Y-59666139D01*
X159672261Y-59662395D01*
X159646877Y-59657885D01*
X159623131Y-59652555D01*
X159600970Y-59646356D01*
X159580344Y-59639237D01*
X159561202Y-59631145D01*
X159543492Y-59622029D01*
X159527163Y-59611840D01*
X159512164Y-59600525D01*
X159498445Y-59588033D01*
X159485953Y-59574314D01*
X159474638Y-59559315D01*
X159464448Y-59542987D01*
X159455332Y-59525277D01*
X159447240Y-59506134D01*
X159440120Y-59485509D01*
X159433921Y-59463348D01*
X159428591Y-59439601D01*
X159424080Y-59414217D01*
X159420337Y-59387145D01*
X159414948Y-59327732D01*
X159412014Y-59260952D01*
X159411127Y-59186395D01*
X159411127Y-57522699D01*
X159874682Y-57522699D01*
X159875112Y-57577817D01*
X159876641Y-57626751D01*
X159879620Y-57669865D01*
X159884404Y-57707520D01*
X159887583Y-57724414D01*
X159891346Y-57740079D01*
X159895737Y-57754561D01*
X159900800Y-57767905D01*
X159906579Y-57780157D01*
X159913118Y-57791361D01*
X159920462Y-57801563D01*
X159928655Y-57810808D01*
X159937740Y-57819142D01*
X159947763Y-57826609D01*
X159958768Y-57833256D01*
X159970797Y-57839128D01*
X159983897Y-57844269D01*
X159998110Y-57848725D01*
X160013482Y-57852542D01*
X160030055Y-57855765D01*
X160066986Y-57860609D01*
X160109257Y-57863621D01*
X160157220Y-57865161D01*
X160211229Y-57865595D01*
X160941477Y-57865595D01*
X160993394Y-57865022D01*
X161039804Y-57863101D01*
X161081005Y-57859524D01*
X161099746Y-57857019D01*
X161117295Y-57853984D01*
X161133691Y-57850382D01*
X161148971Y-57846174D01*
X161163171Y-57841323D01*
X161176330Y-57835788D01*
X161188484Y-57829533D01*
X161199671Y-57822519D01*
X161209927Y-57814707D01*
X161219291Y-57806059D01*
X161227799Y-57796536D01*
X161235488Y-57786101D01*
X161242395Y-57774715D01*
X161248559Y-57762340D01*
X161254016Y-57748937D01*
X161258803Y-57734468D01*
X161262957Y-57718894D01*
X161266517Y-57702177D01*
X161269518Y-57684279D01*
X161271998Y-57665162D01*
X161275545Y-57623115D01*
X161277454Y-57575730D01*
X161278025Y-57522699D01*
X161278025Y-57478296D01*
X161277454Y-57426372D01*
X161275544Y-57379957D01*
X161271997Y-57338753D01*
X161269517Y-57320012D01*
X161266516Y-57302462D01*
X161262956Y-57286065D01*
X161258801Y-57270785D01*
X161254014Y-57256585D01*
X161248557Y-57243426D01*
X161242393Y-57231272D01*
X161235485Y-57220086D01*
X161227796Y-57209830D01*
X161219288Y-57200468D01*
X161209924Y-57191961D01*
X161199668Y-57184273D01*
X161188481Y-57177366D01*
X161176327Y-57171204D01*
X161163168Y-57165748D01*
X161148967Y-57160962D01*
X161133688Y-57156809D01*
X161117292Y-57153251D01*
X161099742Y-57150251D01*
X161081003Y-57147772D01*
X161039802Y-57144227D01*
X160993393Y-57142318D01*
X160941477Y-57141748D01*
X160211229Y-57141748D01*
X160157222Y-57142179D01*
X160109261Y-57143707D01*
X160066992Y-57146686D01*
X160030062Y-57151470D01*
X160013488Y-57154649D01*
X159998117Y-57158411D01*
X159983904Y-57162802D01*
X159970804Y-57167864D01*
X159958774Y-57173643D01*
X159947770Y-57180182D01*
X159937746Y-57187526D01*
X159928660Y-57195718D01*
X159920467Y-57204804D01*
X159913123Y-57214827D01*
X159906583Y-57225831D01*
X159900804Y-57237861D01*
X159895740Y-57250960D01*
X159891349Y-57265173D01*
X159887586Y-57280545D01*
X159884406Y-57297119D01*
X159879622Y-57334050D01*
X159876642Y-57376321D01*
X159875113Y-57424285D01*
X159874682Y-57478296D01*
X159874682Y-57522699D01*
X159411127Y-57522699D01*
X159411127Y-57186121D01*
X159411944Y-57108299D01*
X159414687Y-57038797D01*
X159419792Y-56977162D01*
X159423367Y-56949151D01*
X159427697Y-56922936D01*
X159432836Y-56898460D01*
X159438839Y-56875665D01*
X159445760Y-56854496D01*
X159453655Y-56834894D01*
X159462577Y-56816803D01*
X159472582Y-56800167D01*
X159483725Y-56784927D01*
X159496058Y-56771028D01*
X159509639Y-56758412D01*
X159524520Y-56747023D01*
X159540758Y-56736803D01*
X159558405Y-56727696D01*
X159577518Y-56719644D01*
X159598150Y-56712592D01*
X159620357Y-56706481D01*
X159644193Y-56701255D01*
X159669712Y-56696856D01*
X159696970Y-56693229D01*
X159756918Y-56688061D01*
X159824476Y-56685294D01*
X159900080Y-56684473D01*
X161252626Y-56684473D01*
X161329279Y-56685293D01*
G37*
G36*
X161348039Y-47490750D02*
G01*
X161378020Y-47494082D01*
X161405118Y-47499850D01*
X161417623Y-47503703D01*
X161429453Y-47508232D01*
X161440622Y-47513459D01*
X161451146Y-47519405D01*
X161461039Y-47526093D01*
X161470318Y-47533544D01*
X161478997Y-47541782D01*
X161487090Y-47550828D01*
X161494614Y-47560704D01*
X161501584Y-47571432D01*
X161508014Y-47583034D01*
X161513919Y-47595533D01*
X161519315Y-47608950D01*
X161524217Y-47623308D01*
X161532600Y-47654934D01*
X161539187Y-47690587D01*
X161544099Y-47730444D01*
X161547459Y-47774683D01*
X161549385Y-47823478D01*
X161550001Y-47877008D01*
X161550001Y-51248865D01*
X161548908Y-51319242D01*
X161545425Y-51382920D01*
X161539244Y-51440198D01*
X161535046Y-51466529D01*
X161530058Y-51491372D01*
X161524243Y-51514763D01*
X161517561Y-51536741D01*
X161509975Y-51557341D01*
X161501446Y-51576602D01*
X161491936Y-51594560D01*
X161481406Y-51611253D01*
X161469818Y-51626718D01*
X161457133Y-51640993D01*
X161443314Y-51654114D01*
X161428321Y-51666118D01*
X161412117Y-51677044D01*
X161394663Y-51686927D01*
X161375920Y-51695806D01*
X161355851Y-51703718D01*
X161334417Y-51710699D01*
X161311579Y-51716788D01*
X161287300Y-51722021D01*
X161261540Y-51726435D01*
X161205427Y-51732957D01*
X161142933Y-51736652D01*
X161073751Y-51737817D01*
X159708502Y-51737817D01*
X159633946Y-51736931D01*
X159567167Y-51733997D01*
X159507754Y-51728608D01*
X159480683Y-51724865D01*
X159455299Y-51720354D01*
X159431552Y-51715025D01*
X159409392Y-51708826D01*
X159388766Y-51701706D01*
X159369623Y-51693614D01*
X159351913Y-51684499D01*
X159335585Y-51674309D01*
X159320586Y-51662994D01*
X159306866Y-51650503D01*
X159294375Y-51636783D01*
X159283059Y-51621785D01*
X159272870Y-51605456D01*
X159263754Y-51587746D01*
X159255662Y-51568604D01*
X159248542Y-51547978D01*
X159242343Y-51525817D01*
X159237013Y-51502071D01*
X159232502Y-51476687D01*
X159228759Y-51449615D01*
X159223369Y-51390201D01*
X159220436Y-51323421D01*
X159219549Y-51248865D01*
X159219549Y-49718500D01*
X159683096Y-49718500D01*
X159683496Y-49754767D01*
X159684807Y-49787549D01*
X159687197Y-49817081D01*
X159688849Y-49830699D01*
X159690834Y-49843592D01*
X159693172Y-49855788D01*
X159695885Y-49867315D01*
X159698993Y-49878204D01*
X159702517Y-49888483D01*
X159706478Y-49898180D01*
X159710897Y-49907326D01*
X159715796Y-49915949D01*
X159721194Y-49924078D01*
X159727113Y-49931741D01*
X159733574Y-49938969D01*
X159740598Y-49945790D01*
X159748206Y-49952233D01*
X159756418Y-49958326D01*
X159765256Y-49964100D01*
X159774740Y-49969583D01*
X159784892Y-49974803D01*
X159795732Y-49979791D01*
X159807281Y-49984574D01*
X159832592Y-49993645D01*
X159860990Y-50002248D01*
X159892645Y-50010614D01*
X159924296Y-50020185D01*
X159952693Y-50030055D01*
X159978002Y-50040521D01*
X160000391Y-50051880D01*
X160010542Y-50057988D01*
X160020027Y-50064430D01*
X160028864Y-50071245D01*
X160037077Y-50078469D01*
X160044684Y-50086140D01*
X160051708Y-50094294D01*
X160058170Y-50102970D01*
X160064090Y-50112203D01*
X160069488Y-50122032D01*
X160074387Y-50132494D01*
X160078807Y-50143625D01*
X160082769Y-50155463D01*
X160089401Y-50181409D01*
X160094453Y-50210630D01*
X160098091Y-50243422D01*
X160100482Y-50280083D01*
X160101793Y-50320912D01*
X160102194Y-50366205D01*
X160102194Y-50937708D01*
X160102626Y-50991708D01*
X160104166Y-51039665D01*
X160107175Y-51081931D01*
X160112017Y-51118859D01*
X160115238Y-51135432D01*
X160119054Y-51150803D01*
X160123509Y-51165016D01*
X160128649Y-51178116D01*
X160134519Y-51190146D01*
X160141165Y-51201151D01*
X160148631Y-51211175D01*
X160156964Y-51220262D01*
X160166208Y-51228456D01*
X160176410Y-51235802D01*
X160187613Y-51242343D01*
X160199864Y-51248123D01*
X160213208Y-51253188D01*
X160227691Y-51257580D01*
X160243357Y-51261344D01*
X160260252Y-51264525D01*
X160297910Y-51269312D01*
X160341029Y-51272294D01*
X160389970Y-51273824D01*
X160445097Y-51274255D01*
X160749899Y-51274255D01*
X160801887Y-51273685D01*
X160848499Y-51271776D01*
X160890014Y-51268229D01*
X160908947Y-51265749D01*
X160926710Y-51262748D01*
X160943338Y-51259189D01*
X160958866Y-51255035D01*
X160973329Y-51250248D01*
X160986763Y-51244792D01*
X160999200Y-51238628D01*
X161010677Y-51231721D01*
X161021229Y-51224032D01*
X161030890Y-51215524D01*
X161039695Y-51206161D01*
X161047680Y-51195905D01*
X161054878Y-51184718D01*
X161061325Y-51172564D01*
X161067056Y-51159405D01*
X161072106Y-51145205D01*
X161076509Y-51129925D01*
X161080301Y-51113529D01*
X161083515Y-51095979D01*
X161086188Y-51077239D01*
X161090049Y-51036037D01*
X161092160Y-50989626D01*
X161092802Y-50937708D01*
X161092802Y-49540704D01*
X161092794Y-49540704D01*
X161092224Y-49488781D01*
X161090314Y-49442366D01*
X161086767Y-49401162D01*
X161084286Y-49382420D01*
X161081285Y-49364870D01*
X161077726Y-49348474D01*
X161073571Y-49333194D01*
X161068784Y-49318993D01*
X161063327Y-49305835D01*
X161057163Y-49293681D01*
X161050255Y-49282495D01*
X161042565Y-49272239D01*
X161034057Y-49262876D01*
X161024694Y-49254369D01*
X161014437Y-49246681D01*
X161003250Y-49239775D01*
X160991096Y-49233612D01*
X160977937Y-49228156D01*
X160963737Y-49223371D01*
X160948457Y-49219217D01*
X160932061Y-49215659D01*
X160914512Y-49212659D01*
X160895772Y-49210180D01*
X160854572Y-49206635D01*
X160808162Y-49204727D01*
X160756246Y-49204157D01*
X160019643Y-49204157D01*
X159968774Y-49204797D01*
X159923141Y-49206898D01*
X159882475Y-49210729D01*
X159863920Y-49213378D01*
X159846507Y-49216560D01*
X159830200Y-49220310D01*
X159814966Y-49224661D01*
X159800772Y-49229647D01*
X159787583Y-49235302D01*
X159775367Y-49241659D01*
X159764089Y-49248751D01*
X159753715Y-49256614D01*
X159744213Y-49265279D01*
X159735547Y-49274782D01*
X159727685Y-49285156D01*
X159720593Y-49296434D01*
X159714237Y-49308651D01*
X159708583Y-49321839D01*
X159703598Y-49336034D01*
X159699247Y-49351267D01*
X159695497Y-49367574D01*
X159692315Y-49384987D01*
X159689667Y-49403541D01*
X159685836Y-49444206D01*
X159683736Y-49489837D01*
X159683096Y-49540704D01*
X159683096Y-49718500D01*
X159219549Y-49718500D01*
X159219549Y-49242273D01*
X159220366Y-49165568D01*
X159223108Y-49097045D01*
X159228213Y-49036257D01*
X159231789Y-49008624D01*
X159236118Y-48982758D01*
X159241257Y-48958603D01*
X159247260Y-48936103D01*
X159254182Y-48915202D01*
X159262077Y-48895844D01*
X159270999Y-48877975D01*
X159281004Y-48861537D01*
X159292146Y-48846476D01*
X159304480Y-48832735D01*
X159318061Y-48820259D01*
X159332942Y-48808992D01*
X159349179Y-48798878D01*
X159366827Y-48789861D01*
X159385940Y-48781887D01*
X159406572Y-48774898D01*
X159428779Y-48768839D01*
X159452615Y-48763655D01*
X159478134Y-48759290D01*
X159505392Y-48755688D01*
X159565340Y-48750549D01*
X159632898Y-48747792D01*
X159708502Y-48746973D01*
X160794355Y-48746973D01*
X160836352Y-48746204D01*
X160874360Y-48743797D01*
X160908553Y-48739605D01*
X160924276Y-48736793D01*
X160939111Y-48733478D01*
X160953081Y-48729642D01*
X160966208Y-48725267D01*
X160978514Y-48720333D01*
X160990022Y-48714823D01*
X161000753Y-48708718D01*
X161010729Y-48701998D01*
X161019973Y-48694646D01*
X161028507Y-48686643D01*
X161036352Y-48677970D01*
X161043531Y-48668609D01*
X161050066Y-48658541D01*
X161055979Y-48647747D01*
X161061292Y-48636210D01*
X161066027Y-48623909D01*
X161070206Y-48610827D01*
X161073852Y-48596945D01*
X161076986Y-48582244D01*
X161079630Y-48566707D01*
X161083539Y-48533045D01*
X161085755Y-48495812D01*
X161086454Y-48454858D01*
X161086454Y-47877008D01*
X161087138Y-47823463D01*
X161089244Y-47774656D01*
X161090857Y-47751974D01*
X161092857Y-47730410D01*
X161095255Y-47709943D01*
X161098061Y-47690549D01*
X161101285Y-47672206D01*
X161104939Y-47654893D01*
X161109032Y-47638588D01*
X161113574Y-47623268D01*
X161118578Y-47608911D01*
X161124052Y-47595495D01*
X161130008Y-47582998D01*
X161136455Y-47571397D01*
X161143405Y-47560672D01*
X161150868Y-47550798D01*
X161158854Y-47541755D01*
X161167373Y-47533520D01*
X161176437Y-47526071D01*
X161186056Y-47519386D01*
X161196240Y-47513443D01*
X161206999Y-47508219D01*
X161218345Y-47503693D01*
X161230287Y-47499842D01*
X161242836Y-47496645D01*
X161256002Y-47494078D01*
X161269797Y-47492120D01*
X161284230Y-47490749D01*
X161299312Y-47489943D01*
X161315054Y-47489679D01*
X161348039Y-47490750D01*
G37*
G36*
X165120472Y-56685096D02*
G01*
X165169474Y-56687205D01*
X165192297Y-56688820D01*
X165214029Y-56690822D01*
X165234688Y-56693222D01*
X165254295Y-56696030D01*
X165272870Y-56699257D01*
X165290431Y-56702913D01*
X165307000Y-56707009D01*
X165322595Y-56711555D01*
X165337237Y-56716561D01*
X165350945Y-56722037D01*
X165363739Y-56727995D01*
X165375639Y-56734445D01*
X165386665Y-56741397D01*
X165396835Y-56748862D01*
X165406172Y-56756849D01*
X165414693Y-56765370D01*
X165422418Y-56774434D01*
X165429368Y-56784053D01*
X165435563Y-56794237D01*
X165441021Y-56804995D01*
X165445763Y-56816339D01*
X165449809Y-56828279D01*
X165453178Y-56840826D01*
X165455890Y-56853989D01*
X165457965Y-56867780D01*
X165459423Y-56882208D01*
X165460283Y-56897284D01*
X165460566Y-56913019D01*
X165459423Y-56946003D01*
X165455890Y-56975984D01*
X165453177Y-56989885D01*
X165449808Y-57003081D01*
X165445762Y-57015586D01*
X165441019Y-57027416D01*
X165435560Y-57038585D01*
X165429365Y-57049109D01*
X165422415Y-57059003D01*
X165414689Y-57068282D01*
X165406167Y-57076961D01*
X165396831Y-57085055D01*
X165386659Y-57092580D01*
X165375633Y-57099550D01*
X165363733Y-57105980D01*
X165350939Y-57111886D01*
X165322588Y-57122186D01*
X165290424Y-57130569D01*
X165254289Y-57137157D01*
X165214023Y-57142071D01*
X165169470Y-57145431D01*
X165120470Y-57147358D01*
X165066866Y-57147974D01*
X164571566Y-57147974D01*
X164520696Y-57148614D01*
X164475063Y-57150714D01*
X164434397Y-57154544D01*
X164415843Y-57157192D01*
X164398429Y-57160373D01*
X164382122Y-57164122D01*
X164366888Y-57168472D01*
X164352694Y-57173457D01*
X164339505Y-57179111D01*
X164327289Y-57185467D01*
X164316011Y-57192559D01*
X164305638Y-57200420D01*
X164296135Y-57209085D01*
X164287470Y-57218587D01*
X164279608Y-57228961D01*
X164272515Y-57240238D01*
X164266159Y-57252455D01*
X164260505Y-57265643D01*
X164255520Y-57279837D01*
X164251169Y-57295071D01*
X164247420Y-57311378D01*
X164244238Y-57328792D01*
X164241589Y-57347347D01*
X164237759Y-57388014D01*
X164235658Y-57433649D01*
X164235018Y-57484522D01*
X164235018Y-57516321D01*
X164235348Y-57552588D01*
X164236468Y-57585371D01*
X164238575Y-57614902D01*
X164241863Y-57641413D01*
X164244010Y-57653609D01*
X164246527Y-57665136D01*
X164249436Y-57676025D01*
X164252763Y-57686304D01*
X164256532Y-57696001D01*
X164260767Y-57705147D01*
X164265492Y-57713770D01*
X164270733Y-57721899D01*
X164276513Y-57729562D01*
X164282857Y-57736790D01*
X164289790Y-57743611D01*
X164297335Y-57750054D01*
X164305518Y-57756147D01*
X164314362Y-57761921D01*
X164323892Y-57767404D01*
X164334133Y-57772624D01*
X164345109Y-57777612D01*
X164356844Y-57782395D01*
X164382689Y-57791466D01*
X164411865Y-57800069D01*
X164444567Y-57808435D01*
X164476222Y-57818007D01*
X164504622Y-57827876D01*
X164529933Y-57838342D01*
X164552323Y-57849701D01*
X164562474Y-57855809D01*
X164571959Y-57862251D01*
X164580797Y-57869066D01*
X164589009Y-57876290D01*
X164596616Y-57883961D01*
X164603640Y-57892115D01*
X164610101Y-57900791D01*
X164616020Y-57910024D01*
X164621418Y-57919853D01*
X164626317Y-57930315D01*
X164630736Y-57941446D01*
X164634697Y-57953284D01*
X164641328Y-57979230D01*
X164646378Y-58008451D01*
X164650015Y-58041243D01*
X164652405Y-58077904D01*
X164653716Y-58118733D01*
X164654116Y-58164026D01*
X164654116Y-59135523D01*
X164653175Y-59214838D01*
X164650159Y-59286340D01*
X164644781Y-59350399D01*
X164641116Y-59379754D01*
X164636752Y-59407387D01*
X164631653Y-59433347D01*
X164625784Y-59457678D01*
X164619107Y-59480428D01*
X164611587Y-59501643D01*
X164603189Y-59521370D01*
X164593875Y-59539654D01*
X164583610Y-59556544D01*
X164572358Y-59572084D01*
X164560083Y-59586322D01*
X164546749Y-59599305D01*
X164532319Y-59611078D01*
X164516758Y-59621688D01*
X164500030Y-59631183D01*
X164482098Y-59639607D01*
X164462927Y-59647009D01*
X164442480Y-59653433D01*
X164420721Y-59658928D01*
X164397616Y-59663539D01*
X164373126Y-59667313D01*
X164347217Y-59670297D01*
X164290995Y-59674079D01*
X164228663Y-59675256D01*
X164157603Y-59674358D01*
X164094162Y-59671338D01*
X164037920Y-59665715D01*
X164012368Y-59661776D01*
X163988458Y-59657004D01*
X163966140Y-59651339D01*
X163945359Y-59644721D01*
X163926064Y-59637089D01*
X163908203Y-59628383D01*
X163891723Y-59618542D01*
X163876572Y-59607506D01*
X163862698Y-59595214D01*
X163850048Y-59581606D01*
X163838570Y-59566621D01*
X163828212Y-59550199D01*
X163818921Y-59532279D01*
X163810645Y-59512801D01*
X163803332Y-59491705D01*
X163796929Y-59468929D01*
X163791384Y-59444414D01*
X163786645Y-59418099D01*
X163779375Y-59359827D01*
X163774701Y-59293630D01*
X163772203Y-59219023D01*
X163771463Y-59135523D01*
X163771463Y-57186060D01*
X163772280Y-57108238D01*
X163775023Y-57038736D01*
X163780128Y-56977101D01*
X163783703Y-56949090D01*
X163788033Y-56922875D01*
X163793172Y-56898399D01*
X163799175Y-56875604D01*
X163806096Y-56854435D01*
X163813991Y-56834833D01*
X163822914Y-56816742D01*
X163832919Y-56800106D01*
X163844061Y-56784866D01*
X163856395Y-56770967D01*
X163869975Y-56758351D01*
X163884857Y-56746962D01*
X163901094Y-56736742D01*
X163918742Y-56727635D01*
X163937854Y-56719583D01*
X163958487Y-56712531D01*
X163980693Y-56706420D01*
X164004529Y-56701193D01*
X164030048Y-56696795D01*
X164057306Y-56693168D01*
X164117255Y-56688000D01*
X164184812Y-56685233D01*
X164260416Y-56684412D01*
X165066866Y-56684412D01*
X165120472Y-56685096D01*
G37*
D11*
X156187454Y-100000000D02*
G75*
G03*
X156187454Y-100000000I-1315933J0D01*
G01*
D10*
G36*
X167912859Y-48735318D02*
G01*
X167942065Y-48738650D01*
X167968628Y-48744418D01*
X167980948Y-48748271D01*
X167992643Y-48752800D01*
X168003723Y-48758027D01*
X168014201Y-48763973D01*
X168024088Y-48770661D01*
X168033396Y-48778112D01*
X168042137Y-48786350D01*
X168050322Y-48795396D01*
X168057963Y-48805272D01*
X168065071Y-48816000D01*
X168071658Y-48827602D01*
X168077736Y-48840101D01*
X168083316Y-48853518D01*
X168088410Y-48867876D01*
X168097187Y-48899502D01*
X168104160Y-48935155D01*
X168109420Y-48975012D01*
X168113063Y-49019250D01*
X168115180Y-49068046D01*
X168115865Y-49121576D01*
X168115865Y-49578790D01*
X168116194Y-49615057D01*
X168117304Y-49647840D01*
X168119381Y-49677371D01*
X168122612Y-49703882D01*
X168124718Y-49716078D01*
X168127182Y-49727606D01*
X168130028Y-49738494D01*
X168133278Y-49748773D01*
X168136956Y-49758471D01*
X168141085Y-49767617D01*
X168145689Y-49776239D01*
X168150790Y-49784368D01*
X168156412Y-49792032D01*
X168162578Y-49799260D01*
X168169312Y-49806080D01*
X168176636Y-49812523D01*
X168184575Y-49818617D01*
X168193150Y-49824390D01*
X168202386Y-49829873D01*
X168212306Y-49835094D01*
X168222932Y-49840081D01*
X168234289Y-49844865D01*
X168259286Y-49853936D01*
X168287484Y-49862538D01*
X168319067Y-49870905D01*
X168350719Y-49880476D01*
X168379115Y-49890346D01*
X168404424Y-49900811D01*
X168426813Y-49912171D01*
X168436964Y-49918278D01*
X168446449Y-49924721D01*
X168455286Y-49931536D01*
X168463499Y-49938760D01*
X168471106Y-49946430D01*
X168478131Y-49954585D01*
X168484592Y-49963260D01*
X168490512Y-49972494D01*
X168495910Y-49982323D01*
X168500809Y-49992784D01*
X168505229Y-50003915D01*
X168509191Y-50015754D01*
X168515824Y-50041700D01*
X168520875Y-50070920D01*
X168524513Y-50103712D01*
X168526904Y-50140374D01*
X168528216Y-50181202D01*
X168528616Y-50226495D01*
X168528616Y-51198023D01*
X168527746Y-51277338D01*
X168524932Y-51348840D01*
X168519868Y-51412899D01*
X168516395Y-51442254D01*
X168512245Y-51469887D01*
X168507379Y-51495847D01*
X168501757Y-51520178D01*
X168495343Y-51542928D01*
X168488098Y-51564143D01*
X168479983Y-51583870D01*
X168470960Y-51602154D01*
X168460990Y-51619044D01*
X168450036Y-51634584D01*
X168438058Y-51648822D01*
X168425019Y-51661805D01*
X168410880Y-51673578D01*
X168395602Y-51684188D01*
X168379148Y-51693683D01*
X168361479Y-51702107D01*
X168342556Y-51709509D01*
X168322342Y-51715933D01*
X168300797Y-51721428D01*
X168277884Y-51726039D01*
X168253564Y-51729813D01*
X168227799Y-51732797D01*
X168171779Y-51736579D01*
X168109518Y-51737756D01*
X168038455Y-51736858D01*
X167975011Y-51733838D01*
X167918767Y-51728215D01*
X167893214Y-51724276D01*
X167869304Y-51719504D01*
X167846985Y-51713839D01*
X167826204Y-51707221D01*
X167806909Y-51699589D01*
X167789048Y-51690883D01*
X167772569Y-51681042D01*
X167757418Y-51670006D01*
X167743544Y-51657714D01*
X167730895Y-51644106D01*
X167719417Y-51629121D01*
X167709060Y-51612699D01*
X167699769Y-51594779D01*
X167691494Y-51575301D01*
X167684182Y-51554205D01*
X167677780Y-51531429D01*
X167672235Y-51506914D01*
X167667497Y-51480599D01*
X167660229Y-51422327D01*
X167655555Y-51356130D01*
X167653058Y-51281523D01*
X167652319Y-51198023D01*
X167652319Y-49121576D01*
X167653002Y-49069087D01*
X167655109Y-49021064D01*
X167656722Y-48998681D01*
X167658722Y-48977358D01*
X167661120Y-48957077D01*
X167663925Y-48937820D01*
X167667150Y-48919568D01*
X167670803Y-48902301D01*
X167674896Y-48886002D01*
X167679439Y-48870652D01*
X167684442Y-48856232D01*
X167689917Y-48842724D01*
X167695872Y-48830109D01*
X167702320Y-48818369D01*
X167709270Y-48807484D01*
X167716732Y-48797436D01*
X167724718Y-48788207D01*
X167733238Y-48779778D01*
X167742302Y-48772130D01*
X167751920Y-48765245D01*
X167762104Y-48759104D01*
X167772864Y-48753688D01*
X167784209Y-48748980D01*
X167796151Y-48744959D01*
X167808700Y-48741609D01*
X167821867Y-48738909D01*
X167835662Y-48736841D01*
X167850095Y-48735387D01*
X167865177Y-48734529D01*
X167880918Y-48734247D01*
X167912859Y-48735318D01*
G37*
D11*
X151634782Y-108750000D02*
X173878261Y-108750000D01*
X173878261Y-126250000D01*
X151634782Y-126250000D01*
X151634782Y-108750000D01*
D10*
G36*
X165079736Y-47490750D02*
G01*
X165109718Y-47494082D01*
X165136815Y-47499850D01*
X165149320Y-47503703D01*
X165161150Y-47508232D01*
X165172319Y-47513459D01*
X165182843Y-47519405D01*
X165192737Y-47526093D01*
X165202015Y-47533544D01*
X165210694Y-47541782D01*
X165218787Y-47550828D01*
X165226311Y-47560704D01*
X165233281Y-47571432D01*
X165239711Y-47583034D01*
X165245616Y-47595533D01*
X165251012Y-47608950D01*
X165255915Y-47623308D01*
X165264297Y-47654934D01*
X165270884Y-47690587D01*
X165275796Y-47730444D01*
X165279156Y-47774683D01*
X165281083Y-47823478D01*
X165281698Y-47877008D01*
X165281698Y-48454858D01*
X165282468Y-48495832D01*
X165284885Y-48533081D01*
X165289107Y-48566752D01*
X165291944Y-48582293D01*
X165295291Y-48596996D01*
X165299168Y-48610880D01*
X165303596Y-48623963D01*
X165308593Y-48636264D01*
X165314179Y-48647801D01*
X165320375Y-48658594D01*
X165327200Y-48668660D01*
X165334674Y-48678019D01*
X165342816Y-48686689D01*
X165351647Y-48694689D01*
X165361185Y-48702038D01*
X165371452Y-48708754D01*
X165382466Y-48714855D01*
X165394247Y-48720362D01*
X165406816Y-48725291D01*
X165420192Y-48729663D01*
X165434394Y-48733495D01*
X165449443Y-48736806D01*
X165465358Y-48739615D01*
X165499865Y-48743802D01*
X165538075Y-48746205D01*
X165580145Y-48746973D01*
X166659643Y-48746973D01*
X166735247Y-48747791D01*
X166802804Y-48750545D01*
X166862753Y-48755680D01*
X166890010Y-48759280D01*
X166915530Y-48763642D01*
X166939366Y-48768824D01*
X166961572Y-48774879D01*
X166982205Y-48781865D01*
X167001317Y-48789837D01*
X167018965Y-48798851D01*
X167035202Y-48808962D01*
X167050084Y-48820227D01*
X167063664Y-48832700D01*
X167075998Y-48846439D01*
X167087140Y-48861499D01*
X167097145Y-48877935D01*
X167106068Y-48895804D01*
X167113963Y-48915161D01*
X167120884Y-48936062D01*
X167126887Y-48958563D01*
X167132026Y-48982720D01*
X167136356Y-49008588D01*
X167139931Y-49036223D01*
X167145036Y-49097019D01*
X167147779Y-49165553D01*
X167148596Y-49242273D01*
X167148603Y-51248865D01*
X167147716Y-51323431D01*
X167144783Y-51390219D01*
X167139394Y-51449637D01*
X167135651Y-51476711D01*
X167131140Y-51502096D01*
X167125811Y-51525844D01*
X167119612Y-51548005D01*
X167112492Y-51568631D01*
X167104400Y-51587773D01*
X167095285Y-51605482D01*
X167085095Y-51621810D01*
X167073780Y-51636808D01*
X167061289Y-51650526D01*
X167047569Y-51663016D01*
X167032571Y-51674329D01*
X167016242Y-51684517D01*
X166998532Y-51693630D01*
X166979390Y-51701720D01*
X166958764Y-51708838D01*
X166936603Y-51715035D01*
X166912856Y-51720363D01*
X166887473Y-51724872D01*
X166860401Y-51728613D01*
X166800987Y-51734000D01*
X166734207Y-51736931D01*
X166659651Y-51737817D01*
X165294401Y-51737817D01*
X165225219Y-51736652D01*
X165162725Y-51732956D01*
X165106612Y-51726432D01*
X165080852Y-51722017D01*
X165056573Y-51716784D01*
X165033735Y-51710694D01*
X165012301Y-51703712D01*
X164992232Y-51695799D01*
X164973489Y-51686919D01*
X164956035Y-51677035D01*
X164939831Y-51666108D01*
X164924838Y-51654103D01*
X164911019Y-51640981D01*
X164898334Y-51626706D01*
X164886746Y-51611241D01*
X164876216Y-51594547D01*
X164866706Y-51576588D01*
X164858177Y-51557327D01*
X164850591Y-51536727D01*
X164843909Y-51514750D01*
X164838094Y-51491359D01*
X164833106Y-51466517D01*
X164828908Y-51440186D01*
X164822728Y-51382912D01*
X164819244Y-51319237D01*
X164818151Y-51248865D01*
X164818151Y-49724847D01*
X165281698Y-49724847D01*
X165282098Y-49761144D01*
X165283409Y-49793950D01*
X165285800Y-49823496D01*
X165287452Y-49837120D01*
X165289436Y-49850017D01*
X165291775Y-49862215D01*
X165294487Y-49873744D01*
X165297595Y-49884633D01*
X165301119Y-49894911D01*
X165305080Y-49904607D01*
X165309499Y-49913750D01*
X165314398Y-49922369D01*
X165319796Y-49930494D01*
X165325716Y-49938153D01*
X165332177Y-49945376D01*
X165339201Y-49952191D01*
X165346808Y-49958628D01*
X165355020Y-49964717D01*
X165363858Y-49970484D01*
X165373343Y-49975961D01*
X165383494Y-49981177D01*
X165394334Y-49986159D01*
X165405884Y-49990938D01*
X165431194Y-50000000D01*
X165459593Y-50008597D01*
X165491247Y-50016962D01*
X165522899Y-50026533D01*
X165551295Y-50036403D01*
X165576604Y-50046869D01*
X165598993Y-50058228D01*
X165609145Y-50064335D01*
X165618629Y-50070778D01*
X165627467Y-50077593D01*
X165635679Y-50084817D01*
X165643287Y-50092487D01*
X165650311Y-50100642D01*
X165656772Y-50109317D01*
X165662692Y-50118551D01*
X165668091Y-50128380D01*
X165672989Y-50138841D01*
X165677409Y-50149973D01*
X165681371Y-50161811D01*
X165688004Y-50187757D01*
X165693055Y-50216977D01*
X165696693Y-50249769D01*
X165699084Y-50286431D01*
X165700396Y-50327259D01*
X165700796Y-50372553D01*
X165700796Y-50937708D01*
X165701228Y-50991708D01*
X165702768Y-51039665D01*
X165705777Y-51081931D01*
X165710619Y-51118859D01*
X165713840Y-51135432D01*
X165717656Y-51150803D01*
X165722111Y-51165016D01*
X165727251Y-51178116D01*
X165733121Y-51190146D01*
X165739767Y-51201151D01*
X165747234Y-51211175D01*
X165755566Y-51220262D01*
X165764811Y-51228456D01*
X165775012Y-51235802D01*
X165786215Y-51242343D01*
X165798467Y-51248123D01*
X165811811Y-51253188D01*
X165826293Y-51257580D01*
X165841959Y-51261344D01*
X165858854Y-51264525D01*
X165896512Y-51269312D01*
X165939631Y-51272294D01*
X165988572Y-51273824D01*
X166043699Y-51274255D01*
X166348501Y-51274255D01*
X166400418Y-51273685D01*
X166446829Y-51271776D01*
X166488030Y-51268229D01*
X166506770Y-51265749D01*
X166524319Y-51262748D01*
X166540715Y-51259189D01*
X166555995Y-51255035D01*
X166570195Y-51250248D01*
X166583354Y-51244792D01*
X166595508Y-51238628D01*
X166606695Y-51231721D01*
X166616951Y-51224032D01*
X166626315Y-51215524D01*
X166634823Y-51206161D01*
X166642512Y-51195905D01*
X166649420Y-51184718D01*
X166655583Y-51172564D01*
X166661040Y-51159405D01*
X166665827Y-51145205D01*
X166669981Y-51129925D01*
X166673541Y-51113529D01*
X166676542Y-51095979D01*
X166679022Y-51077239D01*
X166682569Y-51036037D01*
X166684478Y-50989626D01*
X166685049Y-50937708D01*
X166685049Y-49540643D01*
X166684550Y-49488720D01*
X166682841Y-49442305D01*
X166679607Y-49401101D01*
X166674531Y-49364809D01*
X166671204Y-49348413D01*
X166667298Y-49333133D01*
X166662773Y-49318932D01*
X166657590Y-49305774D01*
X166651709Y-49293620D01*
X166645091Y-49282434D01*
X166637697Y-49272178D01*
X166629486Y-49262815D01*
X166620419Y-49254308D01*
X166610457Y-49246620D01*
X166599561Y-49239714D01*
X166587690Y-49233551D01*
X166574805Y-49228095D01*
X166560867Y-49223310D01*
X166545835Y-49219156D01*
X166529672Y-49215598D01*
X166512336Y-49212598D01*
X166493789Y-49210119D01*
X166452901Y-49206574D01*
X166406693Y-49204665D01*
X166354849Y-49204095D01*
X165618246Y-49204095D01*
X165567376Y-49204736D01*
X165521743Y-49206837D01*
X165481077Y-49210668D01*
X165462523Y-49213317D01*
X165445109Y-49216499D01*
X165428802Y-49220249D01*
X165413568Y-49224600D01*
X165399374Y-49229586D01*
X165386186Y-49235241D01*
X165373969Y-49241598D01*
X165362691Y-49248690D01*
X165352318Y-49256553D01*
X165342815Y-49265218D01*
X165334150Y-49274721D01*
X165326288Y-49285095D01*
X165319195Y-49296373D01*
X165312839Y-49308590D01*
X165307185Y-49321778D01*
X165302200Y-49335973D01*
X165297849Y-49351206D01*
X165294100Y-49367513D01*
X165290918Y-49384926D01*
X165288269Y-49403480D01*
X165284439Y-49444145D01*
X165282338Y-49489776D01*
X165281698Y-49540643D01*
X165281698Y-49724847D01*
X164818151Y-49724847D01*
X164818151Y-47877008D01*
X164818835Y-47824519D01*
X164820942Y-47776496D01*
X164822556Y-47754113D01*
X164824556Y-47732790D01*
X164826955Y-47712510D01*
X164829761Y-47693252D01*
X164832986Y-47675000D01*
X164836640Y-47657733D01*
X164840734Y-47641434D01*
X164845278Y-47626084D01*
X164850282Y-47611664D01*
X164855757Y-47598156D01*
X164861713Y-47585541D01*
X164868161Y-47573801D01*
X164875111Y-47562916D01*
X164882574Y-47552868D01*
X164890561Y-47543639D01*
X164899081Y-47535210D01*
X164908145Y-47527562D01*
X164917763Y-47520677D01*
X164927947Y-47514536D01*
X164938706Y-47509121D01*
X164950051Y-47504412D01*
X164961992Y-47500391D01*
X164974540Y-47497041D01*
X164987706Y-47494341D01*
X165001499Y-47492273D01*
X165015931Y-47490820D01*
X165031011Y-47489961D01*
X165046751Y-47489679D01*
X165079736Y-47490750D01*
G37*
G36*
X167749132Y-56685293D02*
G01*
X167817468Y-56688057D01*
X167877952Y-56693222D01*
X167905396Y-56696846D01*
X167931051Y-56701242D01*
X167954976Y-56706465D01*
X167977228Y-56712573D01*
X167997867Y-56719623D01*
X168016950Y-56727672D01*
X168034536Y-56736776D01*
X168050681Y-56746993D01*
X168065446Y-56758380D01*
X168078887Y-56770994D01*
X168091063Y-56784891D01*
X168102032Y-56800129D01*
X168111853Y-56816764D01*
X168120582Y-56834854D01*
X168128280Y-56854455D01*
X168135002Y-56875625D01*
X168140809Y-56898420D01*
X168145758Y-56922897D01*
X168153313Y-56977128D01*
X168158134Y-57038771D01*
X168160685Y-57108284D01*
X168161432Y-57186121D01*
X168161432Y-59186395D01*
X168160545Y-59260962D01*
X168157612Y-59327749D01*
X168152223Y-59387168D01*
X168148480Y-59414242D01*
X168143969Y-59439627D01*
X168138640Y-59463374D01*
X168132441Y-59485536D01*
X168125321Y-59506162D01*
X168117229Y-59525304D01*
X168108114Y-59543013D01*
X168097924Y-59559341D01*
X168086609Y-59574338D01*
X168074118Y-59588056D01*
X168060398Y-59600546D01*
X168045400Y-59611860D01*
X168029071Y-59622047D01*
X168011361Y-59631161D01*
X167992219Y-59639251D01*
X167971593Y-59646369D01*
X167949432Y-59652566D01*
X167925685Y-59657893D01*
X167900302Y-59662402D01*
X167873230Y-59666144D01*
X167813816Y-59671530D01*
X167747036Y-59674462D01*
X167672480Y-59675348D01*
X166319933Y-59675348D01*
X166245378Y-59674461D01*
X166178599Y-59671528D01*
X166119186Y-59666139D01*
X166092114Y-59662395D01*
X166066730Y-59657885D01*
X166042984Y-59652555D01*
X166020823Y-59646356D01*
X166000197Y-59639237D01*
X165981055Y-59631145D01*
X165963345Y-59622029D01*
X165947016Y-59611840D01*
X165932017Y-59600525D01*
X165918298Y-59588033D01*
X165905806Y-59574314D01*
X165894491Y-59559315D01*
X165884301Y-59542987D01*
X165875186Y-59525277D01*
X165867094Y-59506134D01*
X165859973Y-59485509D01*
X165853774Y-59463348D01*
X165848445Y-59439601D01*
X165843934Y-59414217D01*
X165840190Y-59387145D01*
X165834801Y-59327732D01*
X165831867Y-59260952D01*
X165830980Y-59186395D01*
X165830980Y-57656030D01*
X166294527Y-57656030D01*
X166294927Y-57692297D01*
X166296238Y-57725080D01*
X166298629Y-57754611D01*
X166300281Y-57768230D01*
X166302266Y-57781122D01*
X166304604Y-57793318D01*
X166307316Y-57804846D01*
X166310424Y-57815734D01*
X166313948Y-57826013D01*
X166317909Y-57835711D01*
X166322329Y-57844857D01*
X166327227Y-57853479D01*
X166332625Y-57861608D01*
X166338545Y-57869272D01*
X166345006Y-57876500D01*
X166352030Y-57883320D01*
X166359637Y-57889763D01*
X166367850Y-57895857D01*
X166376687Y-57901630D01*
X166386172Y-57907113D01*
X166396323Y-57912334D01*
X166407163Y-57917321D01*
X166418713Y-57922105D01*
X166444023Y-57931176D01*
X166472422Y-57939778D01*
X166504076Y-57948145D01*
X166535728Y-57957716D01*
X166564125Y-57967586D01*
X166589434Y-57978051D01*
X166611822Y-57989411D01*
X166621974Y-57995518D01*
X166631458Y-58001961D01*
X166640296Y-58008776D01*
X166648508Y-58016000D01*
X166656116Y-58023670D01*
X166663140Y-58031825D01*
X166669601Y-58040500D01*
X166675521Y-58049734D01*
X166680920Y-58059563D01*
X166685819Y-58070024D01*
X166690238Y-58081155D01*
X166694200Y-58092994D01*
X166700833Y-58118940D01*
X166705884Y-58148160D01*
X166709522Y-58180952D01*
X166711913Y-58217614D01*
X166713225Y-58258442D01*
X166713625Y-58303735D01*
X166713625Y-58875238D01*
X166714058Y-58929239D01*
X166715597Y-58977195D01*
X166718606Y-59019461D01*
X166723448Y-59056389D01*
X166726670Y-59072962D01*
X166730485Y-59088334D01*
X166734940Y-59102547D01*
X166740080Y-59115647D01*
X166745950Y-59127677D01*
X166752596Y-59138682D01*
X166760063Y-59148706D01*
X166768395Y-59157793D01*
X166777640Y-59165987D01*
X166787841Y-59173332D01*
X166799045Y-59179873D01*
X166811296Y-59185654D01*
X166824640Y-59190718D01*
X166839122Y-59195110D01*
X166854788Y-59198875D01*
X166871683Y-59202056D01*
X166909342Y-59206842D01*
X166952460Y-59209824D01*
X167001401Y-59211354D01*
X167056528Y-59211786D01*
X167361330Y-59211786D01*
X167413319Y-59211216D01*
X167459931Y-59209306D01*
X167501445Y-59205760D01*
X167520378Y-59203280D01*
X167538141Y-59200279D01*
X167554769Y-59196720D01*
X167570298Y-59192566D01*
X167584761Y-59187779D01*
X167598194Y-59182322D01*
X167610632Y-59176159D01*
X167622109Y-59169251D01*
X167632661Y-59161562D01*
X167642322Y-59153055D01*
X167651127Y-59143691D01*
X167659111Y-59133435D01*
X167666310Y-59122249D01*
X167672757Y-59110094D01*
X167678488Y-59096936D01*
X167683537Y-59082735D01*
X167687941Y-59067455D01*
X167691732Y-59051059D01*
X167694947Y-59033510D01*
X167697620Y-59014770D01*
X167701480Y-58973568D01*
X167703591Y-58927157D01*
X167704233Y-58875238D01*
X167704233Y-57478235D01*
X167704226Y-57478235D01*
X167703655Y-57426311D01*
X167701745Y-57379896D01*
X167698198Y-57338692D01*
X167695718Y-57319951D01*
X167692716Y-57302401D01*
X167689157Y-57286004D01*
X167685002Y-57270724D01*
X167680215Y-57256524D01*
X167674758Y-57243365D01*
X167668594Y-57231211D01*
X167661686Y-57220025D01*
X167653997Y-57209769D01*
X167645489Y-57200407D01*
X167636125Y-57191900D01*
X167625868Y-57184212D01*
X167614682Y-57177305D01*
X167602527Y-57171143D01*
X167589369Y-57165687D01*
X167575168Y-57160901D01*
X167559888Y-57156748D01*
X167543493Y-57153190D01*
X167525943Y-57150190D01*
X167507204Y-57147711D01*
X167466003Y-57144166D01*
X167419594Y-57142257D01*
X167367678Y-57141687D01*
X166631075Y-57141687D01*
X166580205Y-57142327D01*
X166534572Y-57144428D01*
X166493906Y-57148260D01*
X166475352Y-57150909D01*
X166457938Y-57154091D01*
X166441631Y-57157841D01*
X166426397Y-57162192D01*
X166412203Y-57167178D01*
X166399015Y-57172832D01*
X166386798Y-57179189D01*
X166375520Y-57186282D01*
X166365147Y-57194144D01*
X166355644Y-57202810D01*
X166346979Y-57212313D01*
X166339117Y-57222687D01*
X166332025Y-57233965D01*
X166325668Y-57246181D01*
X166320014Y-57259370D01*
X166315029Y-57273564D01*
X166310678Y-57288798D01*
X166306929Y-57305104D01*
X166303747Y-57322518D01*
X166301098Y-57341072D01*
X166297268Y-57381736D01*
X166295167Y-57427367D01*
X166294527Y-57478235D01*
X166294527Y-57656030D01*
X165830980Y-57656030D01*
X165830980Y-57186121D01*
X165831797Y-57108299D01*
X165834540Y-57038797D01*
X165839645Y-56977162D01*
X165843220Y-56949151D01*
X165847550Y-56922936D01*
X165852689Y-56898460D01*
X165858692Y-56875665D01*
X165865613Y-56854496D01*
X165873508Y-56834894D01*
X165882430Y-56816803D01*
X165892436Y-56800167D01*
X165903578Y-56784927D01*
X165915912Y-56771028D01*
X165929492Y-56758412D01*
X165944374Y-56747023D01*
X165960611Y-56736803D01*
X165978259Y-56727696D01*
X165997371Y-56719644D01*
X166018004Y-56712592D01*
X166040210Y-56706481D01*
X166064046Y-56701255D01*
X166089565Y-56696856D01*
X166116823Y-56693229D01*
X166176772Y-56688061D01*
X166244329Y-56685294D01*
X166319933Y-56684473D01*
X167672480Y-56684473D01*
X167749132Y-56685293D01*
G37*
G36*
X169432692Y-47668240D02*
G01*
X169461895Y-47671572D01*
X169488456Y-47677340D01*
X169500775Y-47681194D01*
X169512469Y-47685722D01*
X169523549Y-47690949D01*
X169534027Y-47696895D01*
X169543915Y-47703583D01*
X169553223Y-47711035D01*
X169561964Y-47719272D01*
X169570149Y-47728318D01*
X169577790Y-47738194D01*
X169584899Y-47748922D01*
X169591486Y-47760524D01*
X169597565Y-47773023D01*
X169603146Y-47786441D01*
X169608241Y-47800798D01*
X169617019Y-47832424D01*
X169623993Y-47868077D01*
X169629255Y-47907935D01*
X169632899Y-47952173D01*
X169635017Y-48000968D01*
X169635702Y-48054498D01*
X169635702Y-48505365D01*
X169635955Y-48541417D01*
X169636831Y-48573542D01*
X169638508Y-48601972D01*
X169641161Y-48626938D01*
X169642909Y-48638193D01*
X169644968Y-48648669D01*
X169647359Y-48658395D01*
X169650105Y-48667398D01*
X169653228Y-48675709D01*
X169656749Y-48683355D01*
X169660692Y-48690367D01*
X169665077Y-48696771D01*
X169669927Y-48702598D01*
X169675265Y-48707877D01*
X169681111Y-48712636D01*
X169687489Y-48716903D01*
X169694421Y-48720709D01*
X169701928Y-48724081D01*
X169710032Y-48727048D01*
X169718756Y-48729641D01*
X169728122Y-48731886D01*
X169738151Y-48733814D01*
X169760290Y-48736831D01*
X169785349Y-48738922D01*
X169813505Y-48740320D01*
X169850272Y-48742260D01*
X169884397Y-48745724D01*
X169900481Y-48748040D01*
X169915918Y-48750751D01*
X169930713Y-48753861D01*
X169944871Y-48757376D01*
X169958396Y-48761301D01*
X169971294Y-48765639D01*
X169983568Y-48770396D01*
X169995224Y-48775576D01*
X170006266Y-48781184D01*
X170016699Y-48787225D01*
X170026527Y-48793703D01*
X170035755Y-48800623D01*
X170044388Y-48807989D01*
X170052430Y-48815807D01*
X170059886Y-48824081D01*
X170066760Y-48832816D01*
X170073058Y-48842016D01*
X170078784Y-48851687D01*
X170083943Y-48861832D01*
X170088539Y-48872456D01*
X170092576Y-48883565D01*
X170096060Y-48895162D01*
X170098996Y-48907253D01*
X170101387Y-48919843D01*
X170103239Y-48932935D01*
X170104556Y-48946534D01*
X170105343Y-48960646D01*
X170105604Y-48975275D01*
X170105343Y-48989335D01*
X170104562Y-49002953D01*
X170103260Y-49016128D01*
X170101437Y-49028863D01*
X170099093Y-49041158D01*
X170096228Y-49053013D01*
X170092842Y-49064431D01*
X170088935Y-49075411D01*
X170084508Y-49085955D01*
X170079559Y-49096064D01*
X170074090Y-49105738D01*
X170068100Y-49114979D01*
X170061589Y-49123787D01*
X170054557Y-49132164D01*
X170047004Y-49140110D01*
X170038930Y-49147627D01*
X170030335Y-49154714D01*
X170021219Y-49161374D01*
X170011583Y-49167608D01*
X170001425Y-49173415D01*
X169990747Y-49178798D01*
X169979547Y-49183756D01*
X169967827Y-49188292D01*
X169955586Y-49192405D01*
X169942824Y-49196097D01*
X169929541Y-49199369D01*
X169901412Y-49204656D01*
X169871199Y-49208274D01*
X169838903Y-49210230D01*
X169806203Y-49211682D01*
X169777028Y-49213814D01*
X169751183Y-49216858D01*
X169728473Y-49221046D01*
X169718232Y-49223642D01*
X169708702Y-49226611D01*
X169699858Y-49229983D01*
X169691675Y-49233786D01*
X169684130Y-49238049D01*
X169677197Y-49242802D01*
X169670853Y-49248073D01*
X169665072Y-49253893D01*
X169659831Y-49260288D01*
X169655105Y-49267290D01*
X169650870Y-49274926D01*
X169647101Y-49283226D01*
X169643774Y-49292219D01*
X169640865Y-49301934D01*
X169638348Y-49312400D01*
X169636200Y-49323646D01*
X169632912Y-49348595D01*
X169630805Y-49377012D01*
X169629684Y-49409131D01*
X169629354Y-49445184D01*
X169629354Y-49578577D01*
X169629754Y-49614843D01*
X169631066Y-49647626D01*
X169633456Y-49677157D01*
X169635108Y-49690776D01*
X169637093Y-49703669D01*
X169639431Y-49715864D01*
X169642143Y-49727392D01*
X169645251Y-49738281D01*
X169648775Y-49748560D01*
X169652736Y-49758257D01*
X169657156Y-49767403D01*
X169662054Y-49776026D01*
X169667453Y-49784155D01*
X169673372Y-49791818D01*
X169679833Y-49799046D01*
X169686857Y-49805867D01*
X169694464Y-49812309D01*
X169702677Y-49818403D01*
X169711514Y-49824177D01*
X169720999Y-49829659D01*
X169731150Y-49834880D01*
X169741991Y-49839868D01*
X169753540Y-49844651D01*
X169778850Y-49853722D01*
X169807249Y-49862325D01*
X169838903Y-49870691D01*
X169870559Y-49880262D01*
X169898958Y-49890132D01*
X169924269Y-49900598D01*
X169946659Y-49911957D01*
X169956811Y-49918065D01*
X169966295Y-49924507D01*
X169975133Y-49931322D01*
X169983345Y-49938546D01*
X169990953Y-49946217D01*
X169997977Y-49954371D01*
X170004438Y-49963047D01*
X170010357Y-49972280D01*
X170015755Y-49982109D01*
X170020653Y-49992571D01*
X170025072Y-50003702D01*
X170029033Y-50015540D01*
X170035665Y-50041486D01*
X170040715Y-50070707D01*
X170044351Y-50103499D01*
X170046741Y-50140160D01*
X170048052Y-50180989D01*
X170048452Y-50226282D01*
X170048452Y-51197839D01*
X170047511Y-51277155D01*
X170044496Y-51348657D01*
X170039118Y-51412716D01*
X170035452Y-51442070D01*
X170031088Y-51469704D01*
X170025990Y-51495664D01*
X170020120Y-51519995D01*
X170013443Y-51542745D01*
X170005924Y-51563960D01*
X169997525Y-51583686D01*
X169988211Y-51601971D01*
X169977947Y-51618860D01*
X169966695Y-51634401D01*
X169954419Y-51648639D01*
X169941085Y-51661622D01*
X169926655Y-51673395D01*
X169911094Y-51684005D01*
X169894366Y-51693500D01*
X169876434Y-51701924D01*
X169857263Y-51709326D01*
X169836816Y-51715750D01*
X169815058Y-51721245D01*
X169791952Y-51725856D01*
X169767462Y-51729630D01*
X169741553Y-51732614D01*
X169685332Y-51736395D01*
X169622999Y-51737573D01*
X169551940Y-51736674D01*
X169488499Y-51733655D01*
X169432256Y-51728032D01*
X169406704Y-51724093D01*
X169382795Y-51719321D01*
X169360476Y-51713656D01*
X169339695Y-51707038D01*
X169320401Y-51699406D01*
X169302540Y-51690700D01*
X169286060Y-51680859D01*
X169270909Y-51669823D01*
X169257034Y-51657531D01*
X169244384Y-51643922D01*
X169232906Y-51628938D01*
X169222548Y-51612515D01*
X169213257Y-51594596D01*
X169204981Y-51575118D01*
X169197668Y-51554021D01*
X169191265Y-51531246D01*
X169185721Y-51506731D01*
X169180982Y-51480416D01*
X169173712Y-51422144D01*
X169169037Y-51355947D01*
X169166539Y-51281340D01*
X169165800Y-51197839D01*
X169165800Y-49483331D01*
X169164800Y-49476271D01*
X169162599Y-49455503D01*
X169161424Y-49440173D01*
X169160399Y-49421649D01*
X169159674Y-49400009D01*
X169159399Y-49375330D01*
X169159016Y-49354824D01*
X169157824Y-49336149D01*
X169155758Y-49319216D01*
X169154377Y-49311375D01*
X169152753Y-49303935D01*
X169150877Y-49296885D01*
X169148743Y-49290214D01*
X169146341Y-49283911D01*
X169143663Y-49277964D01*
X169140702Y-49272363D01*
X169137449Y-49267095D01*
X169133896Y-49262150D01*
X169130034Y-49257517D01*
X169125857Y-49253183D01*
X169121354Y-49249138D01*
X169116520Y-49245371D01*
X169111344Y-49241869D01*
X169105820Y-49238623D01*
X169099939Y-49235621D01*
X169093692Y-49232851D01*
X169087072Y-49230302D01*
X169080071Y-49227962D01*
X169072680Y-49225822D01*
X169056697Y-49222091D01*
X169039058Y-49219019D01*
X169019697Y-49216516D01*
X168937154Y-49210504D01*
X168923053Y-49209110D01*
X168909329Y-49207310D01*
X168895986Y-49205108D01*
X168883029Y-49202507D01*
X168870463Y-49199511D01*
X168858292Y-49196124D01*
X168846521Y-49192348D01*
X168835155Y-49188187D01*
X168824198Y-49183645D01*
X168813655Y-49178724D01*
X168803531Y-49173430D01*
X168793830Y-49167764D01*
X168784557Y-49161731D01*
X168775716Y-49155334D01*
X168767313Y-49148577D01*
X168759351Y-49141462D01*
X168751836Y-49133994D01*
X168744773Y-49126175D01*
X168738164Y-49118010D01*
X168732017Y-49109502D01*
X168726334Y-49100654D01*
X168721121Y-49091470D01*
X168716383Y-49081953D01*
X168712124Y-49072106D01*
X168708348Y-49061934D01*
X168705061Y-49051440D01*
X168702266Y-49040626D01*
X168699969Y-49029497D01*
X168698175Y-49018057D01*
X168696888Y-49006307D01*
X168696112Y-48994253D01*
X168695852Y-48981897D01*
X168696895Y-48953097D01*
X168698201Y-48939419D01*
X168700031Y-48926222D01*
X168702387Y-48913504D01*
X168705269Y-48901263D01*
X168708679Y-48889500D01*
X168712619Y-48878212D01*
X168717088Y-48867398D01*
X168722089Y-48857057D01*
X168727622Y-48847189D01*
X168733689Y-48837792D01*
X168740291Y-48828864D01*
X168747428Y-48820405D01*
X168755103Y-48812413D01*
X168763317Y-48804887D01*
X168772070Y-48797827D01*
X168781363Y-48791231D01*
X168791199Y-48785097D01*
X168801577Y-48779425D01*
X168812500Y-48774213D01*
X168823968Y-48769461D01*
X168835983Y-48765167D01*
X168848545Y-48761329D01*
X168861656Y-48757948D01*
X168875317Y-48755021D01*
X168904294Y-48750527D01*
X168935486Y-48747837D01*
X168968900Y-48746942D01*
X169000418Y-48746442D01*
X169028418Y-48744723D01*
X169053105Y-48741460D01*
X169074683Y-48736328D01*
X169084371Y-48732959D01*
X169093358Y-48729000D01*
X169101671Y-48724412D01*
X169109334Y-48719152D01*
X169116374Y-48713181D01*
X169122817Y-48706458D01*
X169128687Y-48698942D01*
X169134010Y-48690591D01*
X169138812Y-48681367D01*
X169143119Y-48671227D01*
X169146957Y-48660132D01*
X169150350Y-48648040D01*
X169155905Y-48620704D01*
X169159992Y-48588894D01*
X169162813Y-48552283D01*
X169164575Y-48510547D01*
X169165482Y-48463359D01*
X169165739Y-48410394D01*
X169165807Y-48060877D01*
X169166493Y-48007265D01*
X169168610Y-47958259D01*
X169170235Y-47935434D01*
X169172253Y-47913702D01*
X169174676Y-47893041D01*
X169177514Y-47873433D01*
X169180781Y-47854858D01*
X169184487Y-47837296D01*
X169188644Y-47820727D01*
X169193265Y-47805132D01*
X169198359Y-47790490D01*
X169203939Y-47776782D01*
X169210018Y-47763988D01*
X169216605Y-47752088D01*
X169223713Y-47741063D01*
X169231354Y-47730893D01*
X169239539Y-47721557D01*
X169248280Y-47713037D01*
X169257588Y-47705312D01*
X169267475Y-47698362D01*
X169277953Y-47692168D01*
X169289033Y-47686711D01*
X169300728Y-47681969D01*
X169313048Y-47677924D01*
X169326005Y-47674555D01*
X169339610Y-47671843D01*
X169353877Y-47669769D01*
X169368815Y-47668311D01*
X169384437Y-47667451D01*
X169400755Y-47667169D01*
X169432692Y-47668240D01*
G37*
G36*
X158207906Y-47503714D02*
G01*
X158282339Y-47508029D01*
X158348941Y-47515768D01*
X158379429Y-47521060D01*
X158408110Y-47527376D01*
X158435033Y-47534770D01*
X158460248Y-47543300D01*
X158483805Y-47553019D01*
X158505753Y-47563986D01*
X158526144Y-47576254D01*
X158545027Y-47589881D01*
X158562452Y-47604921D01*
X158578469Y-47621431D01*
X158593128Y-47639466D01*
X158606479Y-47659083D01*
X158618571Y-47680337D01*
X158629456Y-47703284D01*
X158639183Y-47727979D01*
X158647801Y-47754479D01*
X158655362Y-47782839D01*
X158661914Y-47813116D01*
X158672195Y-47879640D01*
X158679043Y-47954499D01*
X158682859Y-48038139D01*
X158684042Y-48131006D01*
X158684042Y-51179010D01*
X158682702Y-51262740D01*
X158678386Y-51337963D01*
X158670647Y-51405109D01*
X158665355Y-51435787D01*
X158659039Y-51464605D01*
X158651644Y-51491619D01*
X158643114Y-51516881D01*
X158633394Y-51540445D01*
X158622427Y-51562364D01*
X158610159Y-51582692D01*
X158596532Y-51601482D01*
X158581491Y-51618788D01*
X158564980Y-51634664D01*
X158546944Y-51649163D01*
X158527327Y-51662339D01*
X158506073Y-51674244D01*
X158483125Y-51684933D01*
X158458429Y-51694460D01*
X158431929Y-51702877D01*
X158403568Y-51710238D01*
X158373291Y-51716598D01*
X158306765Y-51726524D01*
X158231904Y-51733084D01*
X158148263Y-51736705D01*
X158055395Y-51737817D01*
X155934492Y-51737817D01*
X155861598Y-51736214D01*
X155795161Y-51731244D01*
X155764287Y-51727420D01*
X155734937Y-51722664D01*
X155707080Y-51716945D01*
X155680685Y-51710233D01*
X155655723Y-51702498D01*
X155632164Y-51693709D01*
X155609976Y-51683837D01*
X155589130Y-51672851D01*
X155569596Y-51660720D01*
X155551344Y-51647416D01*
X155534342Y-51632906D01*
X155518561Y-51617162D01*
X155503971Y-51600153D01*
X155490541Y-51581849D01*
X155478242Y-51562219D01*
X155467042Y-51541234D01*
X155456912Y-51518862D01*
X155447822Y-51495075D01*
X155439741Y-51469841D01*
X155432639Y-51443131D01*
X155426485Y-51414913D01*
X155421251Y-51385159D01*
X155413416Y-51320918D01*
X155408892Y-51250167D01*
X155407438Y-51172662D01*
X155407438Y-50620233D01*
X155934492Y-50620233D01*
X155935162Y-50712586D01*
X155937468Y-50794804D01*
X155941859Y-50867464D01*
X155944975Y-50900390D01*
X155948779Y-50931142D01*
X155953327Y-50959793D01*
X155958676Y-50986414D01*
X155964880Y-51011078D01*
X155971996Y-51033856D01*
X155980079Y-51054821D01*
X155989185Y-51074045D01*
X155999370Y-51091600D01*
X156010690Y-51107557D01*
X156023201Y-51121989D01*
X156036958Y-51134968D01*
X156052018Y-51146566D01*
X156068435Y-51156855D01*
X156086267Y-51165906D01*
X156105568Y-51173793D01*
X156126395Y-51180587D01*
X156148802Y-51186360D01*
X156172848Y-51191183D01*
X156198586Y-51195130D01*
X156255364Y-51200682D01*
X156319583Y-51203590D01*
X156391691Y-51204431D01*
X157648992Y-51204431D01*
X157724665Y-51203538D01*
X157792422Y-51200561D01*
X157852682Y-51195055D01*
X157880132Y-51191213D01*
X157905865Y-51186571D01*
X157929932Y-51181074D01*
X157952387Y-51174665D01*
X157973282Y-51167288D01*
X157992668Y-51158889D01*
X158010599Y-51149410D01*
X158027127Y-51138797D01*
X158042304Y-51126993D01*
X158056182Y-51113943D01*
X158068813Y-51099590D01*
X158080251Y-51083880D01*
X158090546Y-51066755D01*
X158099752Y-51048161D01*
X158107922Y-51028042D01*
X158115106Y-51006341D01*
X158121358Y-50983003D01*
X158126729Y-50957973D01*
X158131273Y-50931193D01*
X158135041Y-50902610D01*
X158140460Y-50839805D01*
X158143404Y-50769114D01*
X158144293Y-50690088D01*
X158144293Y-49318475D01*
X158144285Y-49318506D01*
X158143953Y-49251892D01*
X158142822Y-49192245D01*
X158140685Y-49139090D01*
X158137340Y-49091954D01*
X158135150Y-49070495D01*
X158132581Y-49050363D01*
X158129607Y-49031498D01*
X158126203Y-49013842D01*
X158122343Y-48997335D01*
X158118002Y-48981917D01*
X158113154Y-48967530D01*
X158107773Y-48954115D01*
X158101835Y-48941611D01*
X158095312Y-48929960D01*
X158088181Y-48919103D01*
X158080414Y-48908980D01*
X158071988Y-48899532D01*
X158062875Y-48890700D01*
X158053050Y-48882424D01*
X158042489Y-48874645D01*
X158031164Y-48867305D01*
X158019052Y-48860343D01*
X158006125Y-48853700D01*
X157992359Y-48847318D01*
X157977728Y-48841137D01*
X157962206Y-48835097D01*
X157928388Y-48823206D01*
X157888983Y-48809295D01*
X157853931Y-48795858D01*
X157822972Y-48782478D01*
X157795845Y-48768735D01*
X157783638Y-48761597D01*
X157772291Y-48754211D01*
X157761771Y-48746525D01*
X157752047Y-48738487D01*
X157743086Y-48730044D01*
X157734854Y-48721144D01*
X157727320Y-48711735D01*
X157720451Y-48701765D01*
X157714214Y-48691180D01*
X157708577Y-48679929D01*
X157703508Y-48667960D01*
X157698972Y-48655219D01*
X157694939Y-48641655D01*
X157691376Y-48627216D01*
X157685526Y-48595501D01*
X157681163Y-48559656D01*
X157678027Y-48519261D01*
X157675856Y-48473899D01*
X157674391Y-48423151D01*
X157672456Y-48365508D01*
X157668746Y-48313807D01*
X157662821Y-48267742D01*
X157658892Y-48246726D01*
X157654246Y-48227005D01*
X157648828Y-48208539D01*
X157642583Y-48191291D01*
X157635457Y-48175221D01*
X157627394Y-48160292D01*
X157618341Y-48146464D01*
X157608243Y-48133701D01*
X157597045Y-48121963D01*
X157584693Y-48111211D01*
X157571131Y-48101409D01*
X157556305Y-48092517D01*
X157540161Y-48084497D01*
X157522644Y-48077311D01*
X157503699Y-48070919D01*
X157483271Y-48065285D01*
X157461306Y-48060370D01*
X157437750Y-48056134D01*
X157385643Y-48049551D01*
X157326514Y-48045229D01*
X157259924Y-48042860D01*
X157185438Y-48042139D01*
X156410742Y-48042139D01*
X156337374Y-48043035D01*
X156271773Y-48046033D01*
X156213521Y-48051599D01*
X156187020Y-48055490D01*
X156162199Y-48060197D01*
X156139005Y-48065779D01*
X156117387Y-48072293D01*
X156097293Y-48079798D01*
X156078669Y-48088352D01*
X156061463Y-48098013D01*
X156045624Y-48108839D01*
X156031099Y-48120888D01*
X156017835Y-48134218D01*
X156005781Y-48148888D01*
X155994883Y-48164955D01*
X155985090Y-48182478D01*
X155976350Y-48201516D01*
X155968609Y-48222125D01*
X155961816Y-48244364D01*
X155955918Y-48268292D01*
X155950863Y-48293966D01*
X155943073Y-48350786D01*
X155938026Y-48415290D01*
X155935306Y-48487942D01*
X155934492Y-48569208D01*
X155934492Y-50620233D01*
X155407438Y-50620233D01*
X155407438Y-48042108D01*
X155408974Y-47966976D01*
X155413776Y-47898581D01*
X155422130Y-47836661D01*
X155427730Y-47808047D01*
X155434326Y-47780955D01*
X155441955Y-47755351D01*
X155450652Y-47731204D01*
X155460454Y-47708479D01*
X155471397Y-47687146D01*
X155483516Y-47667170D01*
X155496848Y-47648521D01*
X155511428Y-47631164D01*
X155527294Y-47615068D01*
X155544480Y-47600200D01*
X155563023Y-47586527D01*
X155582960Y-47574017D01*
X155604325Y-47562637D01*
X155627155Y-47552355D01*
X155651486Y-47543138D01*
X155677355Y-47534953D01*
X155704796Y-47527768D01*
X155733847Y-47521550D01*
X155764543Y-47516267D01*
X155831015Y-47508375D01*
X155904501Y-47503831D01*
X155985288Y-47502374D01*
X158125242Y-47502374D01*
X158207906Y-47503714D01*
G37*
D11*
X171962454Y-100000000D02*
G75*
G03*
X171962454Y-100000000I-1315933J0D01*
G01*
D10*
G36*
X168162481Y-47497768D02*
G01*
X168216573Y-47501088D01*
X168241739Y-47503645D01*
X168265681Y-47506828D01*
X168288423Y-47510656D01*
X168309988Y-47515153D01*
X168330400Y-47520337D01*
X168349682Y-47526231D01*
X168367857Y-47532855D01*
X168384948Y-47540230D01*
X168400979Y-47548378D01*
X168415972Y-47557318D01*
X168429952Y-47567072D01*
X168442941Y-47577661D01*
X168454963Y-47589106D01*
X168466041Y-47601428D01*
X168476198Y-47614647D01*
X168485457Y-47628785D01*
X168493842Y-47643862D01*
X168501375Y-47659900D01*
X168508081Y-47676920D01*
X168513982Y-47694941D01*
X168519102Y-47713986D01*
X168523464Y-47734075D01*
X168527091Y-47755229D01*
X168530006Y-47777470D01*
X168533795Y-47825292D01*
X168535017Y-47877710D01*
X168535017Y-47889703D01*
X168535024Y-47890375D01*
X168533730Y-47942778D01*
X168529728Y-47990589D01*
X168526657Y-48012825D01*
X168522843Y-48033976D01*
X168518264Y-48054062D01*
X168512898Y-48073105D01*
X168506722Y-48091125D01*
X168499715Y-48108144D01*
X168491855Y-48124182D01*
X168483119Y-48139260D01*
X168473485Y-48153398D01*
X168462932Y-48166619D01*
X168451437Y-48178942D01*
X168438978Y-48190389D01*
X168425533Y-48200981D01*
X168411080Y-48210737D01*
X168395597Y-48219680D01*
X168379061Y-48227830D01*
X168361452Y-48235208D01*
X168342745Y-48241835D01*
X168322921Y-48247732D01*
X168301955Y-48252919D01*
X168256515Y-48261249D01*
X168206246Y-48266993D01*
X168150974Y-48270316D01*
X168090521Y-48271387D01*
X168029020Y-48270390D01*
X167972970Y-48267283D01*
X167922167Y-48261888D01*
X167898668Y-48258277D01*
X167876405Y-48254028D01*
X167855350Y-48249119D01*
X167835480Y-48243527D01*
X167816767Y-48237230D01*
X167799187Y-48230207D01*
X167782714Y-48222435D01*
X167767322Y-48213893D01*
X167752986Y-48204557D01*
X167739680Y-48194406D01*
X167727379Y-48183418D01*
X167716056Y-48171571D01*
X167705688Y-48158842D01*
X167696247Y-48145210D01*
X167687708Y-48130652D01*
X167680046Y-48115146D01*
X167673235Y-48098671D01*
X167667250Y-48081203D01*
X167662064Y-48062722D01*
X167657653Y-48043204D01*
X167653991Y-48022628D01*
X167651052Y-48000972D01*
X167648811Y-47978213D01*
X167647242Y-47954330D01*
X167646017Y-47903101D01*
X167647384Y-47848305D01*
X167651598Y-47798124D01*
X167654824Y-47774718D01*
X167658825Y-47752408D01*
X167663621Y-47731178D01*
X167669233Y-47711009D01*
X167675683Y-47691881D01*
X167682990Y-47673776D01*
X167691177Y-47656677D01*
X167700264Y-47640563D01*
X167710271Y-47625416D01*
X167721220Y-47611219D01*
X167733132Y-47597951D01*
X167746028Y-47585596D01*
X167759928Y-47574133D01*
X167774854Y-47563545D01*
X167790826Y-47553812D01*
X167807865Y-47544917D01*
X167825993Y-47536840D01*
X167845230Y-47529563D01*
X167865598Y-47523067D01*
X167887116Y-47517335D01*
X167909807Y-47512346D01*
X167933690Y-47508083D01*
X167985120Y-47501659D01*
X168041573Y-47497913D01*
X168103216Y-47496698D01*
X168162481Y-47497768D01*
G37*
G36*
X162683752Y-55605771D02*
G01*
X162712958Y-55609102D01*
X162739522Y-55614871D01*
X162751842Y-55618724D01*
X162763536Y-55623253D01*
X162774616Y-55628479D01*
X162785094Y-55634426D01*
X162794982Y-55641113D01*
X162804290Y-55648565D01*
X162813031Y-55656803D01*
X162821215Y-55665849D01*
X162828856Y-55675724D01*
X162835964Y-55686453D01*
X162842551Y-55698055D01*
X162848629Y-55710554D01*
X162854210Y-55723971D01*
X162859304Y-55738329D01*
X162868081Y-55769955D01*
X162875053Y-55805608D01*
X162880314Y-55845465D01*
X162883956Y-55889703D01*
X162886074Y-55938499D01*
X162886759Y-55992029D01*
X162886759Y-56442896D01*
X162887012Y-56478947D01*
X162887888Y-56511073D01*
X162889565Y-56539503D01*
X162892218Y-56564468D01*
X162893966Y-56575724D01*
X162896025Y-56586200D01*
X162898416Y-56595925D01*
X162901162Y-56604929D01*
X162904285Y-56613239D01*
X162907806Y-56620886D01*
X162911749Y-56627897D01*
X162916134Y-56634302D01*
X162920984Y-56640129D01*
X162926322Y-56645407D01*
X162932168Y-56650166D01*
X162938546Y-56654434D01*
X162945478Y-56658239D01*
X162952985Y-56661611D01*
X162961089Y-56664579D01*
X162969813Y-56667171D01*
X162979179Y-56669417D01*
X162989208Y-56671344D01*
X163011347Y-56674361D01*
X163036406Y-56676453D01*
X163064562Y-56677850D01*
X163101329Y-56679790D01*
X163135454Y-56683255D01*
X163151538Y-56685570D01*
X163166975Y-56688281D01*
X163181770Y-56691392D01*
X163195928Y-56694907D01*
X163209453Y-56698831D01*
X163222351Y-56703169D01*
X163234625Y-56707926D01*
X163246281Y-56713106D01*
X163257323Y-56718714D01*
X163267756Y-56724755D01*
X163277584Y-56731233D01*
X163286812Y-56738153D01*
X163295445Y-56745520D01*
X163303487Y-56753338D01*
X163310943Y-56761612D01*
X163317817Y-56770347D01*
X163324115Y-56779547D01*
X163329841Y-56789217D01*
X163335000Y-56799362D01*
X163339596Y-56809987D01*
X163343633Y-56821095D01*
X163347117Y-56832693D01*
X163350053Y-56844784D01*
X163352444Y-56857373D01*
X163354296Y-56870465D01*
X163355613Y-56884065D01*
X163356400Y-56898176D01*
X163356661Y-56912805D01*
X163356400Y-56926866D01*
X163355619Y-56940483D01*
X163354317Y-56953659D01*
X163352494Y-56966394D01*
X163350150Y-56978688D01*
X163347285Y-56990544D01*
X163343899Y-57001961D01*
X163339992Y-57012941D01*
X163335565Y-57023485D01*
X163330616Y-57033594D01*
X163325147Y-57043268D01*
X163319157Y-57052509D01*
X163312646Y-57061317D01*
X163305614Y-57069694D01*
X163298061Y-57077640D01*
X163289987Y-57085157D01*
X163281392Y-57092245D01*
X163272276Y-57098905D01*
X163262640Y-57105138D01*
X163252482Y-57110946D01*
X163241804Y-57116328D01*
X163230604Y-57121287D01*
X163218884Y-57125822D01*
X163206643Y-57129935D01*
X163193881Y-57133628D01*
X163180598Y-57136900D01*
X163152469Y-57142187D01*
X163122256Y-57145804D01*
X163089960Y-57147760D01*
X163057260Y-57149213D01*
X163028085Y-57151344D01*
X163002240Y-57154388D01*
X162979530Y-57158577D01*
X162969289Y-57161173D01*
X162959759Y-57164142D01*
X162950915Y-57167513D01*
X162942732Y-57171316D01*
X162935187Y-57175580D01*
X162928254Y-57180333D01*
X162921910Y-57185604D01*
X162916129Y-57191423D01*
X162910888Y-57197819D01*
X162906162Y-57204820D01*
X162901927Y-57212457D01*
X162898158Y-57220757D01*
X162894831Y-57229750D01*
X162891922Y-57239465D01*
X162889405Y-57249931D01*
X162887257Y-57261177D01*
X162883969Y-57286125D01*
X162881862Y-57314543D01*
X162880741Y-57346662D01*
X162880411Y-57382715D01*
X162880411Y-57516107D01*
X162880811Y-57552374D01*
X162882123Y-57585157D01*
X162884513Y-57614688D01*
X162886165Y-57628307D01*
X162888150Y-57641199D01*
X162890488Y-57653395D01*
X162893200Y-57664923D01*
X162896308Y-57675811D01*
X162899832Y-57686090D01*
X162903793Y-57695788D01*
X162908213Y-57704934D01*
X162913111Y-57713556D01*
X162918510Y-57721685D01*
X162924429Y-57729349D01*
X162930890Y-57736577D01*
X162937914Y-57743397D01*
X162945521Y-57749840D01*
X162953734Y-57755934D01*
X162962571Y-57761707D01*
X162972056Y-57767190D01*
X162982207Y-57772411D01*
X162993048Y-57777398D01*
X163004597Y-57782182D01*
X163029907Y-57791252D01*
X163058306Y-57799855D01*
X163089960Y-57808221D01*
X163121612Y-57817793D01*
X163150009Y-57827663D01*
X163175318Y-57838128D01*
X163197706Y-57849487D01*
X163207858Y-57855595D01*
X163217342Y-57862038D01*
X163226180Y-57868852D01*
X163234392Y-57876077D01*
X163242000Y-57883747D01*
X163249024Y-57891902D01*
X163255485Y-57900577D01*
X163261405Y-57909811D01*
X163266804Y-57919640D01*
X163271703Y-57930101D01*
X163276122Y-57941232D01*
X163280084Y-57953071D01*
X163286717Y-57979017D01*
X163291768Y-58008237D01*
X163295406Y-58041029D01*
X163297797Y-58077691D01*
X163299109Y-58118519D01*
X163299509Y-58163812D01*
X163299509Y-59135370D01*
X163298568Y-59214686D01*
X163295553Y-59286187D01*
X163290175Y-59350246D01*
X163286509Y-59379601D01*
X163282145Y-59407235D01*
X163277047Y-59433194D01*
X163271177Y-59457526D01*
X163264500Y-59480275D01*
X163256981Y-59501490D01*
X163248582Y-59521217D01*
X163239268Y-59539502D01*
X163229003Y-59556391D01*
X163217752Y-59571932D01*
X163205476Y-59586170D01*
X163192142Y-59599152D01*
X163177712Y-59610925D01*
X163162151Y-59621536D01*
X163145423Y-59631030D01*
X163127491Y-59639455D01*
X163108320Y-59646856D01*
X163087873Y-59653281D01*
X163066115Y-59658776D01*
X163043009Y-59663387D01*
X163018519Y-59667161D01*
X162992610Y-59670144D01*
X162936389Y-59673926D01*
X162874056Y-59675104D01*
X162802997Y-59674205D01*
X162739555Y-59671186D01*
X162683313Y-59665563D01*
X162657761Y-59661623D01*
X162633852Y-59656851D01*
X162611533Y-59651187D01*
X162590752Y-59644569D01*
X162571458Y-59636937D01*
X162553597Y-59628231D01*
X162537117Y-59618390D01*
X162521966Y-59607353D01*
X162508091Y-59595061D01*
X162495441Y-59581453D01*
X162483963Y-59566468D01*
X162473605Y-59550046D01*
X162464314Y-59532126D01*
X162456038Y-59512648D01*
X162448725Y-59491552D01*
X162442322Y-59468776D01*
X162436778Y-59444261D01*
X162432039Y-59417946D01*
X162424769Y-59359675D01*
X162420094Y-59293477D01*
X162417596Y-59218870D01*
X162416857Y-59135370D01*
X162416857Y-57420862D01*
X162415857Y-57413801D01*
X162413656Y-57393034D01*
X162412481Y-57377704D01*
X162411456Y-57359180D01*
X162410731Y-57337539D01*
X162410456Y-57312860D01*
X162410073Y-57292354D01*
X162408881Y-57273680D01*
X162406815Y-57256747D01*
X162405434Y-57248905D01*
X162403810Y-57241465D01*
X162401934Y-57234415D01*
X162399800Y-57227745D01*
X162397398Y-57221442D01*
X162394720Y-57215495D01*
X162391759Y-57209893D01*
X162388506Y-57204626D01*
X162384952Y-57199681D01*
X162381091Y-57195047D01*
X162376914Y-57190713D01*
X162372411Y-57186669D01*
X162367577Y-57182901D01*
X162362401Y-57179400D01*
X162356877Y-57176154D01*
X162350996Y-57173151D01*
X162344749Y-57170381D01*
X162338129Y-57167832D01*
X162331128Y-57165493D01*
X162323737Y-57163352D01*
X162307754Y-57159621D01*
X162290115Y-57156550D01*
X162270754Y-57154047D01*
X162188211Y-57148035D01*
X162174110Y-57146641D01*
X162160386Y-57144841D01*
X162147043Y-57142639D01*
X162134086Y-57140038D01*
X162121520Y-57137042D01*
X162109349Y-57133654D01*
X162097578Y-57129878D01*
X162086212Y-57125717D01*
X162075255Y-57121175D01*
X162064712Y-57116255D01*
X162054588Y-57110960D01*
X162044887Y-57105295D01*
X162035614Y-57099262D01*
X162026773Y-57092865D01*
X162018370Y-57086107D01*
X162010408Y-57078993D01*
X162002893Y-57071524D01*
X161995829Y-57063706D01*
X161989221Y-57055541D01*
X161983074Y-57047033D01*
X161977391Y-57038185D01*
X161972178Y-57029000D01*
X161967440Y-57019483D01*
X161963181Y-57009637D01*
X161959405Y-56999465D01*
X161956118Y-56988970D01*
X161953323Y-56978157D01*
X161951026Y-56967028D01*
X161949232Y-56955587D01*
X161947945Y-56943838D01*
X161947169Y-56931783D01*
X161946909Y-56919428D01*
X161947952Y-56890627D01*
X161949258Y-56876950D01*
X161951088Y-56863753D01*
X161953444Y-56851034D01*
X161956326Y-56838794D01*
X161959736Y-56827030D01*
X161963676Y-56815742D01*
X161968145Y-56804928D01*
X161973146Y-56794588D01*
X161978679Y-56784720D01*
X161984746Y-56775322D01*
X161991348Y-56766394D01*
X161998485Y-56757935D01*
X162006160Y-56749943D01*
X162014374Y-56742418D01*
X162023127Y-56735358D01*
X162032420Y-56728761D01*
X162042256Y-56722627D01*
X162052634Y-56716955D01*
X162063557Y-56711744D01*
X162075025Y-56706991D01*
X162087039Y-56702697D01*
X162099602Y-56698860D01*
X162112713Y-56695478D01*
X162126374Y-56692552D01*
X162155351Y-56688057D01*
X162186543Y-56685367D01*
X162219957Y-56684473D01*
X162251475Y-56683972D01*
X162279475Y-56682253D01*
X162304162Y-56678991D01*
X162325740Y-56673858D01*
X162335428Y-56670489D01*
X162344415Y-56666531D01*
X162352728Y-56661942D01*
X162360391Y-56656683D01*
X162367431Y-56650712D01*
X162373874Y-56643988D01*
X162379744Y-56636472D01*
X162385067Y-56628122D01*
X162389869Y-56618898D01*
X162394176Y-56608758D01*
X162398014Y-56597663D01*
X162401407Y-56585571D01*
X162406962Y-56558235D01*
X162411049Y-56526424D01*
X162413870Y-56489813D01*
X162415632Y-56448077D01*
X162416539Y-56400889D01*
X162416796Y-56347925D01*
X162416864Y-55998407D01*
X162417550Y-55944795D01*
X162419667Y-55895790D01*
X162421292Y-55872965D01*
X162423310Y-55851232D01*
X162425733Y-55830572D01*
X162428571Y-55810964D01*
X162431838Y-55792389D01*
X162435544Y-55774827D01*
X162439701Y-55758258D01*
X162444322Y-55742662D01*
X162449416Y-55728020D01*
X162454996Y-55714312D01*
X162461075Y-55701518D01*
X162467662Y-55689619D01*
X162474770Y-55678594D01*
X162482411Y-55668423D01*
X162490596Y-55659088D01*
X162499337Y-55650567D01*
X162508645Y-55642842D01*
X162518532Y-55635893D01*
X162529010Y-55629699D01*
X162540090Y-55624241D01*
X162551785Y-55619499D01*
X162564104Y-55615454D01*
X162577061Y-55612086D01*
X162590667Y-55609374D01*
X162604934Y-55607299D01*
X162619872Y-55605842D01*
X162635494Y-55604982D01*
X162651812Y-55604700D01*
X162683752Y-55605771D01*
G37*
G36*
X164156862Y-47490750D02*
G01*
X164186843Y-47494082D01*
X164213941Y-47499850D01*
X164226446Y-47503703D01*
X164238275Y-47508232D01*
X164249445Y-47513459D01*
X164259968Y-47519405D01*
X164269862Y-47526093D01*
X164279141Y-47533544D01*
X164287819Y-47541782D01*
X164295913Y-47550828D01*
X164303437Y-47560704D01*
X164310406Y-47571432D01*
X164316836Y-47583034D01*
X164322742Y-47595533D01*
X164328138Y-47608950D01*
X164333040Y-47623308D01*
X164341422Y-47654934D01*
X164348009Y-47690587D01*
X164352922Y-47730444D01*
X164356281Y-47774683D01*
X164358208Y-47823478D01*
X164358823Y-47877008D01*
X164358823Y-51248865D01*
X164357731Y-51319242D01*
X164354247Y-51382920D01*
X164348066Y-51440198D01*
X164343868Y-51466529D01*
X164338881Y-51491372D01*
X164333066Y-51514763D01*
X164326384Y-51536741D01*
X164318798Y-51557341D01*
X164310269Y-51576602D01*
X164300759Y-51594560D01*
X164290228Y-51611253D01*
X164278640Y-51626718D01*
X164265956Y-51640993D01*
X164252136Y-51654114D01*
X164237144Y-51666118D01*
X164220939Y-51677044D01*
X164203485Y-51686927D01*
X164184743Y-51695806D01*
X164164674Y-51703718D01*
X164143240Y-51710699D01*
X164120402Y-51716788D01*
X164096123Y-51722021D01*
X164070363Y-51726435D01*
X164014250Y-51732957D01*
X163951756Y-51736652D01*
X163882574Y-51737817D01*
X162517324Y-51737817D01*
X162442769Y-51736931D01*
X162375990Y-51733997D01*
X162316577Y-51728608D01*
X162289505Y-51724865D01*
X162264122Y-51720354D01*
X162240375Y-51715025D01*
X162218214Y-51708826D01*
X162197588Y-51701706D01*
X162178446Y-51693614D01*
X162160736Y-51684499D01*
X162144407Y-51674309D01*
X162129409Y-51662994D01*
X162115689Y-51650503D01*
X162103197Y-51636783D01*
X162091882Y-51621785D01*
X162081692Y-51605456D01*
X162072577Y-51587746D01*
X162064485Y-51568604D01*
X162057365Y-51547978D01*
X162051165Y-51525817D01*
X162045836Y-51502071D01*
X162041325Y-51476687D01*
X162037581Y-51449615D01*
X162032192Y-51390201D01*
X162029258Y-51323421D01*
X162028372Y-51248865D01*
X162028372Y-49718500D01*
X162491918Y-49718500D01*
X162492318Y-49754767D01*
X162493630Y-49787549D01*
X162496020Y-49817081D01*
X162497672Y-49830699D01*
X162499657Y-49843592D01*
X162501995Y-49855788D01*
X162504707Y-49867315D01*
X162507815Y-49878204D01*
X162511339Y-49888483D01*
X162515300Y-49898180D01*
X162519720Y-49907326D01*
X162524618Y-49915949D01*
X162530017Y-49924078D01*
X162535936Y-49931741D01*
X162542397Y-49938969D01*
X162549421Y-49945790D01*
X162557029Y-49952233D01*
X162565241Y-49958326D01*
X162574079Y-49964100D01*
X162583563Y-49969583D01*
X162593715Y-49974803D01*
X162604555Y-49979791D01*
X162616104Y-49984574D01*
X162641414Y-49993645D01*
X162669813Y-50002248D01*
X162701467Y-50010614D01*
X162733119Y-50020185D01*
X162761516Y-50030055D01*
X162786825Y-50040521D01*
X162809213Y-50051880D01*
X162819365Y-50057988D01*
X162828849Y-50064430D01*
X162837687Y-50071245D01*
X162845899Y-50078469D01*
X162853507Y-50086140D01*
X162860531Y-50094294D01*
X162866993Y-50102970D01*
X162872912Y-50112203D01*
X162878311Y-50122032D01*
X162883210Y-50132494D01*
X162887630Y-50143625D01*
X162891591Y-50155463D01*
X162898224Y-50181409D01*
X162903276Y-50210630D01*
X162906913Y-50243422D01*
X162909304Y-50280083D01*
X162910616Y-50320912D01*
X162911016Y-50366205D01*
X162911016Y-50937708D01*
X162911449Y-50991708D01*
X162912988Y-51039665D01*
X162915998Y-51081931D01*
X162920839Y-51118859D01*
X162924061Y-51135432D01*
X162927876Y-51150803D01*
X162932332Y-51165016D01*
X162937471Y-51178116D01*
X162943342Y-51190146D01*
X162949987Y-51201151D01*
X162957454Y-51211175D01*
X162965787Y-51220262D01*
X162975031Y-51228456D01*
X162985232Y-51235802D01*
X162996436Y-51242343D01*
X163008687Y-51248123D01*
X163022031Y-51253188D01*
X163036513Y-51257580D01*
X163052179Y-51261344D01*
X163069074Y-51264525D01*
X163106733Y-51269312D01*
X163149851Y-51272294D01*
X163198792Y-51273824D01*
X163253919Y-51274255D01*
X163558721Y-51274255D01*
X163610710Y-51273685D01*
X163657322Y-51271776D01*
X163698836Y-51268229D01*
X163717769Y-51265749D01*
X163735532Y-51262748D01*
X163752161Y-51259189D01*
X163767689Y-51255035D01*
X163782152Y-51250248D01*
X163795585Y-51244792D01*
X163808023Y-51238628D01*
X163819500Y-51231721D01*
X163830052Y-51224032D01*
X163839713Y-51215524D01*
X163848518Y-51206161D01*
X163856502Y-51195905D01*
X163863701Y-51184718D01*
X163870148Y-51172564D01*
X163875879Y-51159405D01*
X163880929Y-51145205D01*
X163885332Y-51129925D01*
X163889123Y-51113529D01*
X163892338Y-51095979D01*
X163895011Y-51077239D01*
X163898871Y-51036037D01*
X163900983Y-50989626D01*
X163901624Y-50937708D01*
X163901624Y-49540704D01*
X163901617Y-49540704D01*
X163901046Y-49488781D01*
X163899136Y-49442366D01*
X163895589Y-49401162D01*
X163893109Y-49382420D01*
X163890108Y-49364870D01*
X163886548Y-49348474D01*
X163882393Y-49333194D01*
X163877606Y-49318993D01*
X163872149Y-49305835D01*
X163865985Y-49293681D01*
X163859077Y-49282495D01*
X163851388Y-49272239D01*
X163842880Y-49262876D01*
X163833516Y-49254369D01*
X163823260Y-49246681D01*
X163812073Y-49239775D01*
X163799919Y-49233612D01*
X163786760Y-49228156D01*
X163772559Y-49223371D01*
X163757280Y-49219217D01*
X163740884Y-49215659D01*
X163723335Y-49212659D01*
X163704595Y-49210180D01*
X163663394Y-49206635D01*
X163616985Y-49204727D01*
X163565069Y-49204157D01*
X162828466Y-49204157D01*
X162777596Y-49204797D01*
X162731963Y-49206898D01*
X162691297Y-49210729D01*
X162672743Y-49213378D01*
X162655329Y-49216560D01*
X162639022Y-49220310D01*
X162623789Y-49224661D01*
X162609594Y-49229647D01*
X162596406Y-49235302D01*
X162584190Y-49241659D01*
X162572912Y-49248751D01*
X162562538Y-49256614D01*
X162553035Y-49265279D01*
X162544370Y-49274782D01*
X162536508Y-49285156D01*
X162529416Y-49296434D01*
X162523060Y-49308651D01*
X162517406Y-49321839D01*
X162512420Y-49336034D01*
X162508070Y-49351267D01*
X162504320Y-49367574D01*
X162501138Y-49384987D01*
X162498490Y-49403541D01*
X162494659Y-49444206D01*
X162492559Y-49489837D01*
X162491918Y-49540704D01*
X162491918Y-49718500D01*
X162028372Y-49718500D01*
X162028372Y-49242273D01*
X162029189Y-49165568D01*
X162031931Y-49097045D01*
X162037036Y-49036257D01*
X162040611Y-49008624D01*
X162044941Y-48982758D01*
X162050080Y-48958603D01*
X162056083Y-48936103D01*
X162063004Y-48915202D01*
X162070899Y-48895844D01*
X162079822Y-48877975D01*
X162089827Y-48861537D01*
X162100969Y-48846476D01*
X162113303Y-48832735D01*
X162126883Y-48820259D01*
X162141765Y-48808992D01*
X162158002Y-48798878D01*
X162175650Y-48789861D01*
X162194762Y-48781887D01*
X162215395Y-48774898D01*
X162237602Y-48768839D01*
X162261437Y-48763655D01*
X162286957Y-48759290D01*
X162314214Y-48755688D01*
X162374163Y-48750549D01*
X162441720Y-48747792D01*
X162517324Y-48746973D01*
X163603178Y-48746973D01*
X163645175Y-48746204D01*
X163683182Y-48743797D01*
X163717376Y-48739605D01*
X163733098Y-48736793D01*
X163747933Y-48733478D01*
X163761903Y-48729642D01*
X163775031Y-48725267D01*
X163787337Y-48720333D01*
X163798845Y-48714823D01*
X163809576Y-48708718D01*
X163819552Y-48701998D01*
X163828796Y-48694646D01*
X163837330Y-48686643D01*
X163845175Y-48677970D01*
X163852354Y-48668609D01*
X163858889Y-48658541D01*
X163864802Y-48647747D01*
X163870115Y-48636210D01*
X163874850Y-48623909D01*
X163879029Y-48610827D01*
X163882675Y-48596945D01*
X163885809Y-48582244D01*
X163888453Y-48566707D01*
X163892362Y-48533045D01*
X163894577Y-48495812D01*
X163895277Y-48454858D01*
X163895277Y-47877008D01*
X163895960Y-47823463D01*
X163898067Y-47774656D01*
X163899680Y-47751974D01*
X163901680Y-47730410D01*
X163904078Y-47709943D01*
X163906883Y-47690549D01*
X163910108Y-47672206D01*
X163913761Y-47654893D01*
X163917854Y-47638588D01*
X163922397Y-47623268D01*
X163927400Y-47608911D01*
X163932875Y-47595495D01*
X163938830Y-47582998D01*
X163945278Y-47571397D01*
X163952228Y-47560672D01*
X163959690Y-47550798D01*
X163967676Y-47541755D01*
X163976196Y-47533520D01*
X163985260Y-47526071D01*
X163994879Y-47519386D01*
X164005062Y-47513443D01*
X164015822Y-47508219D01*
X164027167Y-47503693D01*
X164039109Y-47499842D01*
X164051658Y-47496645D01*
X164064825Y-47494078D01*
X164078620Y-47492120D01*
X164093053Y-47490749D01*
X164108135Y-47489943D01*
X164123876Y-47489679D01*
X164156862Y-47490750D01*
G37*
D12*
X161992109Y-117447759D02*
X162134966Y-117495378D01*
X162134966Y-117495378D02*
X162182585Y-117542997D01*
X162182585Y-117542997D02*
X162230204Y-117638235D01*
X162230204Y-117638235D02*
X162230204Y-117781092D01*
X162230204Y-117781092D02*
X162182585Y-117876330D01*
X162182585Y-117876330D02*
X162134966Y-117923950D01*
X162134966Y-117923950D02*
X162039728Y-117971569D01*
X162039728Y-117971569D02*
X161658776Y-117971569D01*
X161658776Y-117971569D02*
X161658776Y-116971569D01*
X161658776Y-116971569D02*
X161992109Y-116971569D01*
X161992109Y-116971569D02*
X162087347Y-117019188D01*
X162087347Y-117019188D02*
X162134966Y-117066807D01*
X162134966Y-117066807D02*
X162182585Y-117162045D01*
X162182585Y-117162045D02*
X162182585Y-117257283D01*
X162182585Y-117257283D02*
X162134966Y-117352521D01*
X162134966Y-117352521D02*
X162087347Y-117400140D01*
X162087347Y-117400140D02*
X161992109Y-117447759D01*
X161992109Y-117447759D02*
X161658776Y-117447759D01*
X162611157Y-117685854D02*
X163087347Y-117685854D01*
X162515919Y-117971569D02*
X162849252Y-116971569D01*
X162849252Y-116971569D02*
X163182585Y-117971569D01*
X163373062Y-116971569D02*
X163944490Y-116971569D01*
X163658776Y-117971569D02*
X163658776Y-116971569D01*
X151444490Y-69869819D02*
X151444490Y-68869819D01*
X151920680Y-69869819D02*
X151920680Y-68869819D01*
X151920680Y-68869819D02*
X152158775Y-68869819D01*
X152158775Y-68869819D02*
X152301632Y-68917438D01*
X152301632Y-68917438D02*
X152396870Y-69012676D01*
X152396870Y-69012676D02*
X152444489Y-69107914D01*
X152444489Y-69107914D02*
X152492108Y-69298390D01*
X152492108Y-69298390D02*
X152492108Y-69441247D01*
X152492108Y-69441247D02*
X152444489Y-69631723D01*
X152444489Y-69631723D02*
X152396870Y-69726961D01*
X152396870Y-69726961D02*
X152301632Y-69822200D01*
X152301632Y-69822200D02*
X152158775Y-69869819D01*
X152158775Y-69869819D02*
X151920680Y-69869819D01*
X152920680Y-69869819D02*
X152920680Y-68869819D01*
X152920680Y-68869819D02*
X153301632Y-68869819D01*
X153301632Y-68869819D02*
X153396870Y-68917438D01*
X153396870Y-68917438D02*
X153444489Y-68965057D01*
X153444489Y-68965057D02*
X153492108Y-69060295D01*
X153492108Y-69060295D02*
X153492108Y-69203152D01*
X153492108Y-69203152D02*
X153444489Y-69298390D01*
X153444489Y-69298390D02*
X153396870Y-69346009D01*
X153396870Y-69346009D02*
X153301632Y-69393628D01*
X153301632Y-69393628D02*
X152920680Y-69393628D01*
X154682585Y-69869819D02*
X154682585Y-68869819D01*
X154682585Y-68869819D02*
X155063537Y-68869819D01*
X155063537Y-68869819D02*
X155158775Y-68917438D01*
X155158775Y-68917438D02*
X155206394Y-68965057D01*
X155206394Y-68965057D02*
X155254013Y-69060295D01*
X155254013Y-69060295D02*
X155254013Y-69203152D01*
X155254013Y-69203152D02*
X155206394Y-69298390D01*
X155206394Y-69298390D02*
X155158775Y-69346009D01*
X155158775Y-69346009D02*
X155063537Y-69393628D01*
X155063537Y-69393628D02*
X154682585Y-69393628D01*
X155825442Y-69869819D02*
X155730204Y-69822200D01*
X155730204Y-69822200D02*
X155682585Y-69774580D01*
X155682585Y-69774580D02*
X155634966Y-69679342D01*
X155634966Y-69679342D02*
X155634966Y-69393628D01*
X155634966Y-69393628D02*
X155682585Y-69298390D01*
X155682585Y-69298390D02*
X155730204Y-69250771D01*
X155730204Y-69250771D02*
X155825442Y-69203152D01*
X155825442Y-69203152D02*
X155968299Y-69203152D01*
X155968299Y-69203152D02*
X156063537Y-69250771D01*
X156063537Y-69250771D02*
X156111156Y-69298390D01*
X156111156Y-69298390D02*
X156158775Y-69393628D01*
X156158775Y-69393628D02*
X156158775Y-69679342D01*
X156158775Y-69679342D02*
X156111156Y-69774580D01*
X156111156Y-69774580D02*
X156063537Y-69822200D01*
X156063537Y-69822200D02*
X155968299Y-69869819D01*
X155968299Y-69869819D02*
X155825442Y-69869819D01*
X156492109Y-69203152D02*
X156682585Y-69869819D01*
X156682585Y-69869819D02*
X156873061Y-69393628D01*
X156873061Y-69393628D02*
X157063537Y-69869819D01*
X157063537Y-69869819D02*
X157254013Y-69203152D01*
X158015918Y-69822200D02*
X157920680Y-69869819D01*
X157920680Y-69869819D02*
X157730204Y-69869819D01*
X157730204Y-69869819D02*
X157634966Y-69822200D01*
X157634966Y-69822200D02*
X157587347Y-69726961D01*
X157587347Y-69726961D02*
X157587347Y-69346009D01*
X157587347Y-69346009D02*
X157634966Y-69250771D01*
X157634966Y-69250771D02*
X157730204Y-69203152D01*
X157730204Y-69203152D02*
X157920680Y-69203152D01*
X157920680Y-69203152D02*
X158015918Y-69250771D01*
X158015918Y-69250771D02*
X158063537Y-69346009D01*
X158063537Y-69346009D02*
X158063537Y-69441247D01*
X158063537Y-69441247D02*
X157587347Y-69536485D01*
X158492109Y-69869819D02*
X158492109Y-69203152D01*
X158492109Y-69393628D02*
X158539728Y-69298390D01*
X158539728Y-69298390D02*
X158587347Y-69250771D01*
X158587347Y-69250771D02*
X158682585Y-69203152D01*
X158682585Y-69203152D02*
X158777823Y-69203152D01*
X159873062Y-69869819D02*
X159873062Y-68869819D01*
X159873062Y-68869819D02*
X160111157Y-68869819D01*
X160111157Y-68869819D02*
X160254014Y-68917438D01*
X160254014Y-68917438D02*
X160349252Y-69012676D01*
X160349252Y-69012676D02*
X160396871Y-69107914D01*
X160396871Y-69107914D02*
X160444490Y-69298390D01*
X160444490Y-69298390D02*
X160444490Y-69441247D01*
X160444490Y-69441247D02*
X160396871Y-69631723D01*
X160396871Y-69631723D02*
X160349252Y-69726961D01*
X160349252Y-69726961D02*
X160254014Y-69822200D01*
X160254014Y-69822200D02*
X160111157Y-69869819D01*
X160111157Y-69869819D02*
X159873062Y-69869819D01*
X160873062Y-69869819D02*
X160873062Y-69203152D01*
X160873062Y-68869819D02*
X160825443Y-68917438D01*
X160825443Y-68917438D02*
X160873062Y-68965057D01*
X160873062Y-68965057D02*
X160920681Y-68917438D01*
X160920681Y-68917438D02*
X160873062Y-68869819D01*
X160873062Y-68869819D02*
X160873062Y-68965057D01*
X161301633Y-69822200D02*
X161396871Y-69869819D01*
X161396871Y-69869819D02*
X161587347Y-69869819D01*
X161587347Y-69869819D02*
X161682585Y-69822200D01*
X161682585Y-69822200D02*
X161730204Y-69726961D01*
X161730204Y-69726961D02*
X161730204Y-69679342D01*
X161730204Y-69679342D02*
X161682585Y-69584104D01*
X161682585Y-69584104D02*
X161587347Y-69536485D01*
X161587347Y-69536485D02*
X161444490Y-69536485D01*
X161444490Y-69536485D02*
X161349252Y-69488866D01*
X161349252Y-69488866D02*
X161301633Y-69393628D01*
X161301633Y-69393628D02*
X161301633Y-69346009D01*
X161301633Y-69346009D02*
X161349252Y-69250771D01*
X161349252Y-69250771D02*
X161444490Y-69203152D01*
X161444490Y-69203152D02*
X161587347Y-69203152D01*
X161587347Y-69203152D02*
X161682585Y-69250771D01*
X162015919Y-69203152D02*
X162396871Y-69203152D01*
X162158776Y-68869819D02*
X162158776Y-69726961D01*
X162158776Y-69726961D02*
X162206395Y-69822200D01*
X162206395Y-69822200D02*
X162301633Y-69869819D01*
X162301633Y-69869819D02*
X162396871Y-69869819D01*
X162730205Y-69869819D02*
X162730205Y-69203152D01*
X162730205Y-69393628D02*
X162777824Y-69298390D01*
X162777824Y-69298390D02*
X162825443Y-69250771D01*
X162825443Y-69250771D02*
X162920681Y-69203152D01*
X162920681Y-69203152D02*
X163015919Y-69203152D01*
X163349253Y-69869819D02*
X163349253Y-69203152D01*
X163349253Y-68869819D02*
X163301634Y-68917438D01*
X163301634Y-68917438D02*
X163349253Y-68965057D01*
X163349253Y-68965057D02*
X163396872Y-68917438D01*
X163396872Y-68917438D02*
X163349253Y-68869819D01*
X163349253Y-68869819D02*
X163349253Y-68965057D01*
X163825443Y-69869819D02*
X163825443Y-68869819D01*
X163825443Y-69250771D02*
X163920681Y-69203152D01*
X163920681Y-69203152D02*
X164111157Y-69203152D01*
X164111157Y-69203152D02*
X164206395Y-69250771D01*
X164206395Y-69250771D02*
X164254014Y-69298390D01*
X164254014Y-69298390D02*
X164301633Y-69393628D01*
X164301633Y-69393628D02*
X164301633Y-69679342D01*
X164301633Y-69679342D02*
X164254014Y-69774580D01*
X164254014Y-69774580D02*
X164206395Y-69822200D01*
X164206395Y-69822200D02*
X164111157Y-69869819D01*
X164111157Y-69869819D02*
X163920681Y-69869819D01*
X163920681Y-69869819D02*
X163825443Y-69822200D01*
X165158776Y-69203152D02*
X165158776Y-69869819D01*
X164730205Y-69203152D02*
X164730205Y-69726961D01*
X164730205Y-69726961D02*
X164777824Y-69822200D01*
X164777824Y-69822200D02*
X164873062Y-69869819D01*
X164873062Y-69869819D02*
X165015919Y-69869819D01*
X165015919Y-69869819D02*
X165111157Y-69822200D01*
X165111157Y-69822200D02*
X165158776Y-69774580D01*
X165492110Y-69203152D02*
X165873062Y-69203152D01*
X165634967Y-68869819D02*
X165634967Y-69726961D01*
X165634967Y-69726961D02*
X165682586Y-69822200D01*
X165682586Y-69822200D02*
X165777824Y-69869819D01*
X165777824Y-69869819D02*
X165873062Y-69869819D01*
X166206396Y-69869819D02*
X166206396Y-69203152D01*
X166206396Y-68869819D02*
X166158777Y-68917438D01*
X166158777Y-68917438D02*
X166206396Y-68965057D01*
X166206396Y-68965057D02*
X166254015Y-68917438D01*
X166254015Y-68917438D02*
X166206396Y-68869819D01*
X166206396Y-68869819D02*
X166206396Y-68965057D01*
X166825443Y-69869819D02*
X166730205Y-69822200D01*
X166730205Y-69822200D02*
X166682586Y-69774580D01*
X166682586Y-69774580D02*
X166634967Y-69679342D01*
X166634967Y-69679342D02*
X166634967Y-69393628D01*
X166634967Y-69393628D02*
X166682586Y-69298390D01*
X166682586Y-69298390D02*
X166730205Y-69250771D01*
X166730205Y-69250771D02*
X166825443Y-69203152D01*
X166825443Y-69203152D02*
X166968300Y-69203152D01*
X166968300Y-69203152D02*
X167063538Y-69250771D01*
X167063538Y-69250771D02*
X167111157Y-69298390D01*
X167111157Y-69298390D02*
X167158776Y-69393628D01*
X167158776Y-69393628D02*
X167158776Y-69679342D01*
X167158776Y-69679342D02*
X167111157Y-69774580D01*
X167111157Y-69774580D02*
X167063538Y-69822200D01*
X167063538Y-69822200D02*
X166968300Y-69869819D01*
X166968300Y-69869819D02*
X166825443Y-69869819D01*
X167587348Y-69203152D02*
X167587348Y-69869819D01*
X167587348Y-69298390D02*
X167634967Y-69250771D01*
X167634967Y-69250771D02*
X167730205Y-69203152D01*
X167730205Y-69203152D02*
X167873062Y-69203152D01*
X167873062Y-69203152D02*
X167968300Y-69250771D01*
X167968300Y-69250771D02*
X168015919Y-69346009D01*
X168015919Y-69346009D02*
X168015919Y-69869819D01*
X169254015Y-69869819D02*
X169254015Y-68869819D01*
X169254015Y-68869819D02*
X169587348Y-69584104D01*
X169587348Y-69584104D02*
X169920681Y-68869819D01*
X169920681Y-68869819D02*
X169920681Y-69869819D01*
X170539729Y-69869819D02*
X170444491Y-69822200D01*
X170444491Y-69822200D02*
X170396872Y-69774580D01*
X170396872Y-69774580D02*
X170349253Y-69679342D01*
X170349253Y-69679342D02*
X170349253Y-69393628D01*
X170349253Y-69393628D02*
X170396872Y-69298390D01*
X170396872Y-69298390D02*
X170444491Y-69250771D01*
X170444491Y-69250771D02*
X170539729Y-69203152D01*
X170539729Y-69203152D02*
X170682586Y-69203152D01*
X170682586Y-69203152D02*
X170777824Y-69250771D01*
X170777824Y-69250771D02*
X170825443Y-69298390D01*
X170825443Y-69298390D02*
X170873062Y-69393628D01*
X170873062Y-69393628D02*
X170873062Y-69679342D01*
X170873062Y-69679342D02*
X170825443Y-69774580D01*
X170825443Y-69774580D02*
X170777824Y-69822200D01*
X170777824Y-69822200D02*
X170682586Y-69869819D01*
X170682586Y-69869819D02*
X170539729Y-69869819D01*
X171730205Y-69869819D02*
X171730205Y-68869819D01*
X171730205Y-69822200D02*
X171634967Y-69869819D01*
X171634967Y-69869819D02*
X171444491Y-69869819D01*
X171444491Y-69869819D02*
X171349253Y-69822200D01*
X171349253Y-69822200D02*
X171301634Y-69774580D01*
X171301634Y-69774580D02*
X171254015Y-69679342D01*
X171254015Y-69679342D02*
X171254015Y-69393628D01*
X171254015Y-69393628D02*
X171301634Y-69298390D01*
X171301634Y-69298390D02*
X171349253Y-69250771D01*
X171349253Y-69250771D02*
X171444491Y-69203152D01*
X171444491Y-69203152D02*
X171634967Y-69203152D01*
X171634967Y-69203152D02*
X171730205Y-69250771D01*
X172634967Y-69203152D02*
X172634967Y-69869819D01*
X172206396Y-69203152D02*
X172206396Y-69726961D01*
X172206396Y-69726961D02*
X172254015Y-69822200D01*
X172254015Y-69822200D02*
X172349253Y-69869819D01*
X172349253Y-69869819D02*
X172492110Y-69869819D01*
X172492110Y-69869819D02*
X172587348Y-69822200D01*
X172587348Y-69822200D02*
X172634967Y-69774580D01*
X173254015Y-69869819D02*
X173158777Y-69822200D01*
X173158777Y-69822200D02*
X173111158Y-69726961D01*
X173111158Y-69726961D02*
X173111158Y-68869819D01*
X174015920Y-69822200D02*
X173920682Y-69869819D01*
X173920682Y-69869819D02*
X173730206Y-69869819D01*
X173730206Y-69869819D02*
X173634968Y-69822200D01*
X173634968Y-69822200D02*
X173587349Y-69726961D01*
X173587349Y-69726961D02*
X173587349Y-69346009D01*
X173587349Y-69346009D02*
X173634968Y-69250771D01*
X173634968Y-69250771D02*
X173730206Y-69203152D01*
X173730206Y-69203152D02*
X173920682Y-69203152D01*
X173920682Y-69203152D02*
X174015920Y-69250771D01*
X174015920Y-69250771D02*
X174063539Y-69346009D01*
X174063539Y-69346009D02*
X174063539Y-69441247D01*
X174063539Y-69441247D02*
X173587349Y-69536485D01*
X158849252Y-74869819D02*
X158515919Y-74393628D01*
X158277824Y-74869819D02*
X158277824Y-73869819D01*
X158277824Y-73869819D02*
X158658776Y-73869819D01*
X158658776Y-73869819D02*
X158754014Y-73917438D01*
X158754014Y-73917438D02*
X158801633Y-73965057D01*
X158801633Y-73965057D02*
X158849252Y-74060295D01*
X158849252Y-74060295D02*
X158849252Y-74203152D01*
X158849252Y-74203152D02*
X158801633Y-74298390D01*
X158801633Y-74298390D02*
X158754014Y-74346009D01*
X158754014Y-74346009D02*
X158658776Y-74393628D01*
X158658776Y-74393628D02*
X158277824Y-74393628D01*
X159658776Y-74822200D02*
X159563538Y-74869819D01*
X159563538Y-74869819D02*
X159373062Y-74869819D01*
X159373062Y-74869819D02*
X159277824Y-74822200D01*
X159277824Y-74822200D02*
X159230205Y-74726961D01*
X159230205Y-74726961D02*
X159230205Y-74346009D01*
X159230205Y-74346009D02*
X159277824Y-74250771D01*
X159277824Y-74250771D02*
X159373062Y-74203152D01*
X159373062Y-74203152D02*
X159563538Y-74203152D01*
X159563538Y-74203152D02*
X159658776Y-74250771D01*
X159658776Y-74250771D02*
X159706395Y-74346009D01*
X159706395Y-74346009D02*
X159706395Y-74441247D01*
X159706395Y-74441247D02*
X159230205Y-74536485D01*
X160039729Y-74203152D02*
X160277824Y-74869819D01*
X160277824Y-74869819D02*
X160515919Y-74203152D01*
X161611158Y-73965057D02*
X161658777Y-73917438D01*
X161658777Y-73917438D02*
X161754015Y-73869819D01*
X161754015Y-73869819D02*
X161992110Y-73869819D01*
X161992110Y-73869819D02*
X162087348Y-73917438D01*
X162087348Y-73917438D02*
X162134967Y-73965057D01*
X162134967Y-73965057D02*
X162182586Y-74060295D01*
X162182586Y-74060295D02*
X162182586Y-74155533D01*
X162182586Y-74155533D02*
X162134967Y-74298390D01*
X162134967Y-74298390D02*
X161563539Y-74869819D01*
X161563539Y-74869819D02*
X162182586Y-74869819D01*
X162658777Y-74822200D02*
X162658777Y-74869819D01*
X162658777Y-74869819D02*
X162611158Y-74965057D01*
X162611158Y-74965057D02*
X162563539Y-75012676D01*
X163801634Y-73965057D02*
X163849253Y-73917438D01*
X163849253Y-73917438D02*
X163944491Y-73869819D01*
X163944491Y-73869819D02*
X164182586Y-73869819D01*
X164182586Y-73869819D02*
X164277824Y-73917438D01*
X164277824Y-73917438D02*
X164325443Y-73965057D01*
X164325443Y-73965057D02*
X164373062Y-74060295D01*
X164373062Y-74060295D02*
X164373062Y-74155533D01*
X164373062Y-74155533D02*
X164325443Y-74298390D01*
X164325443Y-74298390D02*
X163754015Y-74869819D01*
X163754015Y-74869819D02*
X164373062Y-74869819D01*
X164992110Y-73869819D02*
X165087348Y-73869819D01*
X165087348Y-73869819D02*
X165182586Y-73917438D01*
X165182586Y-73917438D02*
X165230205Y-73965057D01*
X165230205Y-73965057D02*
X165277824Y-74060295D01*
X165277824Y-74060295D02*
X165325443Y-74250771D01*
X165325443Y-74250771D02*
X165325443Y-74488866D01*
X165325443Y-74488866D02*
X165277824Y-74679342D01*
X165277824Y-74679342D02*
X165230205Y-74774580D01*
X165230205Y-74774580D02*
X165182586Y-74822200D01*
X165182586Y-74822200D02*
X165087348Y-74869819D01*
X165087348Y-74869819D02*
X164992110Y-74869819D01*
X164992110Y-74869819D02*
X164896872Y-74822200D01*
X164896872Y-74822200D02*
X164849253Y-74774580D01*
X164849253Y-74774580D02*
X164801634Y-74679342D01*
X164801634Y-74679342D02*
X164754015Y-74488866D01*
X164754015Y-74488866D02*
X164754015Y-74250771D01*
X164754015Y-74250771D02*
X164801634Y-74060295D01*
X164801634Y-74060295D02*
X164849253Y-73965057D01*
X164849253Y-73965057D02*
X164896872Y-73917438D01*
X164896872Y-73917438D02*
X164992110Y-73869819D01*
X165706396Y-73965057D02*
X165754015Y-73917438D01*
X165754015Y-73917438D02*
X165849253Y-73869819D01*
X165849253Y-73869819D02*
X166087348Y-73869819D01*
X166087348Y-73869819D02*
X166182586Y-73917438D01*
X166182586Y-73917438D02*
X166230205Y-73965057D01*
X166230205Y-73965057D02*
X166277824Y-74060295D01*
X166277824Y-74060295D02*
X166277824Y-74155533D01*
X166277824Y-74155533D02*
X166230205Y-74298390D01*
X166230205Y-74298390D02*
X165658777Y-74869819D01*
X165658777Y-74869819D02*
X166277824Y-74869819D01*
X167134967Y-74203152D02*
X167134967Y-74869819D01*
X166896872Y-73822200D02*
X166658777Y-74536485D01*
X166658777Y-74536485D02*
X167277824Y-74536485D01*
X170265569Y-100003866D02*
X171027474Y-100003866D01*
X170646521Y-100384819D02*
X170646521Y-99622914D01*
X154490569Y-100003866D02*
X155252474Y-100003866D01*
D11*
X127600000Y-52766000D02*
X107400000Y-52766000D01*
X127600000Y-49806000D02*
X107400000Y-49806000D01*
X127600000Y-44905000D02*
X107400000Y-44905000D01*
X127600000Y-43405000D02*
X107400000Y-43405000D01*
X127600000Y-42845000D02*
X107400000Y-42845000D01*
X126680000Y-47505000D02*
G75*
G03*
X126680000Y-47505000I-1680000J0D01*
G01*
X121680000Y-47505000D02*
G75*
G03*
X121680000Y-47505000I-1680000J0D01*
G01*
X116680000Y-47505000D02*
G75*
G03*
X116680000Y-47505000I-1680000J0D01*
G01*
X111680000Y-47505000D02*
G75*
G03*
X111680000Y-47505000I-1680000J0D01*
G01*
X67600000Y-52766000D02*
X47400000Y-52766000D01*
X67600000Y-49806000D02*
X47400000Y-49806000D01*
X67600000Y-44905000D02*
X47400000Y-44905000D01*
X67600000Y-43405000D02*
X47400000Y-43405000D01*
X67600000Y-42845000D02*
X47400000Y-42845000D01*
X47400000Y-42845000D02*
X47400000Y-52766000D01*
X66680000Y-47505000D02*
G75*
G03*
X66680000Y-47505000I-1680000J0D01*
G01*
X61680000Y-47505000D02*
G75*
G03*
X61680000Y-47505000I-1680000J0D01*
G01*
X56680000Y-47505000D02*
G75*
G03*
X56680000Y-47505000I-1680000J0D01*
G01*
X51680000Y-47505000D02*
G75*
G03*
X51680000Y-47505000I-1680000J0D01*
G01*
X107600000Y-52766000D02*
X87400000Y-52766000D01*
X107600000Y-49806000D02*
X87400000Y-49806000D01*
X107600000Y-44905000D02*
X87400000Y-44905000D01*
X107600000Y-43405000D02*
X87400000Y-43405000D01*
X107600000Y-42845000D02*
X87400000Y-42845000D01*
X106680000Y-47505000D02*
G75*
G03*
X106680000Y-47505000I-1680000J0D01*
G01*
X101680000Y-47505000D02*
G75*
G03*
X101680000Y-47505000I-1680000J0D01*
G01*
X96680000Y-47505000D02*
G75*
G03*
X96680000Y-47505000I-1680000J0D01*
G01*
X91680000Y-47505000D02*
G75*
G03*
X91680000Y-47505000I-1680000J0D01*
G01*
X147600000Y-52766000D02*
X127400000Y-52766000D01*
X147600000Y-49806000D02*
X127400000Y-49806000D01*
X147600000Y-44905000D02*
X127400000Y-44905000D01*
X147600000Y-43405000D02*
X127400000Y-43405000D01*
X147600000Y-42845000D02*
X147600000Y-52766000D01*
X147600000Y-42845000D02*
X127400000Y-42845000D01*
X146680000Y-47505000D02*
G75*
G03*
X146680000Y-47505000I-1680000J0D01*
G01*
X141680000Y-47505000D02*
G75*
G03*
X141680000Y-47505000I-1680000J0D01*
G01*
X136680000Y-47505000D02*
G75*
G03*
X136680000Y-47505000I-1680000J0D01*
G01*
X131680000Y-47505000D02*
G75*
G03*
X131680000Y-47505000I-1680000J0D01*
G01*
X87600000Y-52766000D02*
X67400000Y-52766000D01*
X87600000Y-49806000D02*
X67400000Y-49806000D01*
X87600000Y-44905000D02*
X67400000Y-44905000D01*
X87600000Y-43405000D02*
X67400000Y-43405000D01*
X87600000Y-42845000D02*
X67400000Y-42845000D01*
X86680000Y-47505000D02*
G75*
G03*
X86680000Y-47505000I-1680000J0D01*
G01*
X81680000Y-47505000D02*
G75*
G03*
X81680000Y-47505000I-1680000J0D01*
G01*
X76680000Y-47505000D02*
G75*
G03*
X76680000Y-47505000I-1680000J0D01*
G01*
X71680000Y-47505000D02*
G75*
G03*
X71680000Y-47505000I-1680000J0D01*
G01*
X127600000Y-77764333D02*
X107400000Y-77764333D01*
X127600000Y-74804333D02*
X107400000Y-74804333D01*
X127600000Y-69903333D02*
X107400000Y-69903333D01*
X127600000Y-68403333D02*
X107400000Y-68403333D01*
X127600000Y-67843333D02*
X107400000Y-67843333D01*
X126680000Y-72503333D02*
G75*
G03*
X126680000Y-72503333I-1680000J0D01*
G01*
X121680000Y-72503333D02*
G75*
G03*
X121680000Y-72503333I-1680000J0D01*
G01*
X116680000Y-72503333D02*
G75*
G03*
X116680000Y-72503333I-1680000J0D01*
G01*
X111680000Y-72503333D02*
G75*
G03*
X111680000Y-72503333I-1680000J0D01*
G01*
X67600000Y-77764333D02*
X47400000Y-77764333D01*
X67600000Y-74804333D02*
X47400000Y-74804333D01*
X67600000Y-69903333D02*
X47400000Y-69903333D01*
X67600000Y-68403333D02*
X47400000Y-68403333D01*
X67600000Y-67843333D02*
X47400000Y-67843333D01*
X47400000Y-67843333D02*
X47400000Y-77764333D01*
X66680000Y-72503333D02*
G75*
G03*
X66680000Y-72503333I-1680000J0D01*
G01*
X61680000Y-72503333D02*
G75*
G03*
X61680000Y-72503333I-1680000J0D01*
G01*
X56680000Y-72503333D02*
G75*
G03*
X56680000Y-72503333I-1680000J0D01*
G01*
X51680000Y-72503333D02*
G75*
G03*
X51680000Y-72503333I-1680000J0D01*
G01*
X87600000Y-77764333D02*
X67400000Y-77764333D01*
X87600000Y-74804333D02*
X67400000Y-74804333D01*
X87600000Y-69903333D02*
X67400000Y-69903333D01*
X87600000Y-68403333D02*
X67400000Y-68403333D01*
X87600000Y-67843333D02*
X67400000Y-67843333D01*
X86680000Y-72503333D02*
G75*
G03*
X86680000Y-72503333I-1680000J0D01*
G01*
X81680000Y-72503333D02*
G75*
G03*
X81680000Y-72503333I-1680000J0D01*
G01*
X76680000Y-72503333D02*
G75*
G03*
X76680000Y-72503333I-1680000J0D01*
G01*
X71680000Y-72503333D02*
G75*
G03*
X71680000Y-72503333I-1680000J0D01*
G01*
X147600000Y-77764333D02*
X127400000Y-77764333D01*
X147600000Y-74804333D02*
X127400000Y-74804333D01*
X147600000Y-69903333D02*
X127400000Y-69903333D01*
X147600000Y-68403333D02*
X127400000Y-68403333D01*
X147600000Y-67843333D02*
X147600000Y-77764333D01*
X147600000Y-67843333D02*
X127400000Y-67843333D01*
X146680000Y-72503333D02*
G75*
G03*
X146680000Y-72503333I-1680000J0D01*
G01*
X141680000Y-72503333D02*
G75*
G03*
X141680000Y-72503333I-1680000J0D01*
G01*
X136680000Y-72503333D02*
G75*
G03*
X136680000Y-72503333I-1680000J0D01*
G01*
X131680000Y-72503333D02*
G75*
G03*
X131680000Y-72503333I-1680000J0D01*
G01*
X107600000Y-77764333D02*
X87400000Y-77764333D01*
X107600000Y-74804333D02*
X87400000Y-74804333D01*
X107600000Y-69903333D02*
X87400000Y-69903333D01*
X107600000Y-68403333D02*
X87400000Y-68403333D01*
X107600000Y-67843333D02*
X87400000Y-67843333D01*
X106680000Y-72503333D02*
G75*
G03*
X106680000Y-72503333I-1680000J0D01*
G01*
X101680000Y-72503333D02*
G75*
G03*
X101680000Y-72503333I-1680000J0D01*
G01*
X96680000Y-72503333D02*
G75*
G03*
X96680000Y-72503333I-1680000J0D01*
G01*
X91680000Y-72503333D02*
G75*
G03*
X91680000Y-72503333I-1680000J0D01*
G01*
X127600000Y-102762666D02*
X107400000Y-102762666D01*
X127600000Y-99802666D02*
X107400000Y-99802666D01*
X127600000Y-94901666D02*
X107400000Y-94901666D01*
X127600000Y-93401666D02*
X107400000Y-93401666D01*
X127600000Y-92841666D02*
X107400000Y-92841666D01*
X126680000Y-97501666D02*
G75*
G03*
X126680000Y-97501666I-1680000J0D01*
G01*
X121680000Y-97501666D02*
G75*
G03*
X121680000Y-97501666I-1680000J0D01*
G01*
X116680000Y-97501666D02*
G75*
G03*
X116680000Y-97501666I-1680000J0D01*
G01*
X111680000Y-97501666D02*
G75*
G03*
X111680000Y-97501666I-1680000J0D01*
G01*
X87600000Y-102762666D02*
X67400000Y-102762666D01*
X87600000Y-99802666D02*
X67400000Y-99802666D01*
X87600000Y-94901666D02*
X67400000Y-94901666D01*
X87600000Y-93401666D02*
X67400000Y-93401666D01*
X87600000Y-92841666D02*
X67400000Y-92841666D01*
X86680000Y-97501666D02*
G75*
G03*
X86680000Y-97501666I-1680000J0D01*
G01*
X81680000Y-97501666D02*
G75*
G03*
X81680000Y-97501666I-1680000J0D01*
G01*
X76680000Y-97501666D02*
G75*
G03*
X76680000Y-97501666I-1680000J0D01*
G01*
X71680000Y-97501666D02*
G75*
G03*
X71680000Y-97501666I-1680000J0D01*
G01*
X107600000Y-102762666D02*
X87400000Y-102762666D01*
X107600000Y-99802666D02*
X87400000Y-99802666D01*
X107600000Y-94901666D02*
X87400000Y-94901666D01*
X107600000Y-93401666D02*
X87400000Y-93401666D01*
X107600000Y-92841666D02*
X87400000Y-92841666D01*
X106680000Y-97501666D02*
G75*
G03*
X106680000Y-97501666I-1680000J0D01*
G01*
X101680000Y-97501666D02*
G75*
G03*
X101680000Y-97501666I-1680000J0D01*
G01*
X96680000Y-97501666D02*
G75*
G03*
X96680000Y-97501666I-1680000J0D01*
G01*
X91680000Y-97501666D02*
G75*
G03*
X91680000Y-97501666I-1680000J0D01*
G01*
X167861521Y-97374750D02*
X167861521Y-87453750D01*
X167861521Y-97374750D02*
X157661521Y-97374750D01*
X167861521Y-94414750D02*
X157661521Y-94414750D01*
X167861521Y-89513750D02*
X157661521Y-89513750D01*
X167861521Y-88013750D02*
X157661521Y-88013750D01*
X167861521Y-87453750D02*
X157661521Y-87453750D01*
X157661521Y-97374750D02*
X157661521Y-87453750D01*
X166941521Y-92113750D02*
G75*
G03*
X166941521Y-92113750I-1680000J0D01*
G01*
X161941521Y-92113750D02*
G75*
G03*
X161941521Y-92113750I-1680000J0D01*
G01*
X107600000Y-127761000D02*
X87400000Y-127761000D01*
X107600000Y-124801000D02*
X87400000Y-124801000D01*
X107600000Y-119900000D02*
X87400000Y-119900000D01*
X107600000Y-118400000D02*
X87400000Y-118400000D01*
X107600000Y-117840000D02*
X87400000Y-117840000D01*
X106680000Y-122500000D02*
G75*
G03*
X106680000Y-122500000I-1680000J0D01*
G01*
X101680000Y-122500000D02*
G75*
G03*
X101680000Y-122500000I-1680000J0D01*
G01*
X96680000Y-122500000D02*
G75*
G03*
X96680000Y-122500000I-1680000J0D01*
G01*
X91680000Y-122500000D02*
G75*
G03*
X91680000Y-122500000I-1680000J0D01*
G01*
X160151521Y-104353750D02*
X160151521Y-101693750D01*
X162751521Y-104353750D02*
X160151521Y-104353750D01*
X162751521Y-104353750D02*
X165351521Y-104353750D01*
X165351521Y-104353750D02*
X165351521Y-101693750D01*
X160151521Y-101693750D02*
X165351521Y-101693750D01*
X147600000Y-102762666D02*
X127400000Y-102762666D01*
X147600000Y-99802666D02*
X127400000Y-99802666D01*
X147600000Y-94901666D02*
X127400000Y-94901666D01*
X147600000Y-93401666D02*
X127400000Y-93401666D01*
X147600000Y-92841666D02*
X147600000Y-102762666D01*
X147600000Y-92841666D02*
X127400000Y-92841666D01*
X146680000Y-97501666D02*
G75*
G03*
X146680000Y-97501666I-1680000J0D01*
G01*
X141680000Y-97501666D02*
G75*
G03*
X141680000Y-97501666I-1680000J0D01*
G01*
X136680000Y-97501666D02*
G75*
G03*
X136680000Y-97501666I-1680000J0D01*
G01*
X131680000Y-97501666D02*
G75*
G03*
X131680000Y-97501666I-1680000J0D01*
G01*
X67600000Y-102762666D02*
X47400000Y-102762666D01*
X67600000Y-99802666D02*
X47400000Y-99802666D01*
X67600000Y-94901666D02*
X47400000Y-94901666D01*
X67600000Y-93401666D02*
X47400000Y-93401666D01*
X67600000Y-92841666D02*
X47400000Y-92841666D01*
X47400000Y-92841666D02*
X47400000Y-102762666D01*
X66680000Y-97501666D02*
G75*
G03*
X66680000Y-97501666I-1680000J0D01*
G01*
X61680000Y-97501666D02*
G75*
G03*
X61680000Y-97501666I-1680000J0D01*
G01*
X56680000Y-97501666D02*
G75*
G03*
X56680000Y-97501666I-1680000J0D01*
G01*
X51680000Y-97501666D02*
G75*
G03*
X51680000Y-97501666I-1680000J0D01*
G01*
X87600000Y-127761000D02*
X67400000Y-127761000D01*
X87600000Y-124801000D02*
X67400000Y-124801000D01*
X87600000Y-119900000D02*
X67400000Y-119900000D01*
X87600000Y-118400000D02*
X67400000Y-118400000D01*
X87600000Y-117840000D02*
X67400000Y-117840000D01*
X86680000Y-122500000D02*
G75*
G03*
X86680000Y-122500000I-1680000J0D01*
G01*
X81680000Y-122500000D02*
G75*
G03*
X81680000Y-122500000I-1680000J0D01*
G01*
X76680000Y-122500000D02*
G75*
G03*
X76680000Y-122500000I-1680000J0D01*
G01*
X71680000Y-122500000D02*
G75*
G03*
X71680000Y-122500000I-1680000J0D01*
G01*
X147600000Y-127761000D02*
X127400000Y-127761000D01*
X147600000Y-124801000D02*
X127400000Y-124801000D01*
X147600000Y-119900000D02*
X127400000Y-119900000D01*
X147600000Y-118400000D02*
X127400000Y-118400000D01*
X147600000Y-117840000D02*
X147600000Y-127761000D01*
X147600000Y-117840000D02*
X127400000Y-117840000D01*
X146680000Y-122500000D02*
G75*
G03*
X146680000Y-122500000I-1680000J0D01*
G01*
X141680000Y-122500000D02*
G75*
G03*
X141680000Y-122500000I-1680000J0D01*
G01*
X136680000Y-122500000D02*
G75*
G03*
X136680000Y-122500000I-1680000J0D01*
G01*
X131680000Y-122500000D02*
G75*
G03*
X131680000Y-122500000I-1680000J0D01*
G01*
X67600000Y-127761000D02*
X47400000Y-127761000D01*
X67600000Y-124801000D02*
X47400000Y-124801000D01*
X67600000Y-119900000D02*
X47400000Y-119900000D01*
X67600000Y-118400000D02*
X47400000Y-118400000D01*
X67600000Y-117840000D02*
X47400000Y-117840000D01*
X47400000Y-117840000D02*
X47400000Y-127761000D01*
X66680000Y-122500000D02*
G75*
G03*
X66680000Y-122500000I-1680000J0D01*
G01*
X61680000Y-122500000D02*
G75*
G03*
X61680000Y-122500000I-1680000J0D01*
G01*
X56680000Y-122500000D02*
G75*
G03*
X56680000Y-122500000I-1680000J0D01*
G01*
X51680000Y-122500000D02*
G75*
G03*
X51680000Y-122500000I-1680000J0D01*
G01*
X127600000Y-127761000D02*
X107400000Y-127761000D01*
X127600000Y-124801000D02*
X107400000Y-124801000D01*
X127600000Y-119900000D02*
X107400000Y-119900000D01*
X127600000Y-118400000D02*
X107400000Y-118400000D01*
X127600000Y-117840000D02*
X107400000Y-117840000D01*
X126680000Y-122500000D02*
G75*
G03*
X126680000Y-122500000I-1680000J0D01*
G01*
X121680000Y-122500000D02*
G75*
G03*
X121680000Y-122500000I-1680000J0D01*
G01*
X116680000Y-122500000D02*
G75*
G03*
X116680000Y-122500000I-1680000J0D01*
G01*
X111680000Y-122500000D02*
G75*
G03*
X111680000Y-122500000I-1680000J0D01*
G01*
%LPC*%
D13*
X125000000Y-47505000D03*
X120000000Y-47505000D03*
X115000000Y-47505000D03*
X110000000Y-47505000D03*
X65000000Y-47505000D03*
X60000000Y-47505000D03*
X55000000Y-47505000D03*
X50000000Y-47505000D03*
X105000000Y-47505000D03*
X100000000Y-47505000D03*
X95000000Y-47505000D03*
X90000000Y-47505000D03*
X145000000Y-47505000D03*
X140000000Y-47505000D03*
X135000000Y-47505000D03*
X130000000Y-47505000D03*
X85000000Y-47505000D03*
X80000000Y-47505000D03*
X75000000Y-47505000D03*
X70000000Y-47505000D03*
X125000000Y-72503333D03*
X120000000Y-72503333D03*
X115000000Y-72503333D03*
X110000000Y-72503333D03*
X65000000Y-72503333D03*
X60000000Y-72503333D03*
X55000000Y-72503333D03*
X50000000Y-72503333D03*
X85000000Y-72503333D03*
X80000000Y-72503333D03*
X75000000Y-72503333D03*
X70000000Y-72503333D03*
X145000000Y-72503333D03*
X140000000Y-72503333D03*
X135000000Y-72503333D03*
X130000000Y-72503333D03*
X105000000Y-72503333D03*
X100000000Y-72503333D03*
X95000000Y-72503333D03*
X90000000Y-72503333D03*
X125000000Y-97501666D03*
X120000000Y-97501666D03*
X115000000Y-97501666D03*
X110000000Y-97501666D03*
X85000000Y-97501666D03*
X80000000Y-97501666D03*
X75000000Y-97501666D03*
X70000000Y-97501666D03*
X105000000Y-97501666D03*
X100000000Y-97501666D03*
X95000000Y-97501666D03*
X90000000Y-97501666D03*
X165261521Y-92113750D03*
X160261521Y-92113750D03*
X105000000Y-122500000D03*
X100000000Y-122500000D03*
X95000000Y-122500000D03*
X90000000Y-122500000D03*
D14*
X161481521Y-103023750D03*
D15*
X164021521Y-103023750D03*
D13*
X145000000Y-97501666D03*
X140000000Y-97501666D03*
X135000000Y-97501666D03*
X130000000Y-97501666D03*
X65000000Y-97501666D03*
X60000000Y-97501666D03*
X55000000Y-97501666D03*
X50000000Y-97501666D03*
X85000000Y-122500000D03*
X80000000Y-122500000D03*
X75000000Y-122500000D03*
X70000000Y-122500000D03*
X145000000Y-122500000D03*
X140000000Y-122500000D03*
X135000000Y-122500000D03*
X130000000Y-122500000D03*
X153866521Y-117500000D03*
X171646521Y-122580000D03*
X171646521Y-112420000D03*
X65000000Y-122500000D03*
X60000000Y-122500000D03*
X55000000Y-122500000D03*
X50000000Y-122500000D03*
X125000000Y-122500000D03*
X120000000Y-122500000D03*
X115000000Y-122500000D03*
X110000000Y-122500000D03*
%LPD*%
M02*
