M48
; DRILL file {KiCad 7.0.7} date Tue Oct 24 14:33:56 2023
; FORMAT={-:-/ absolute / metric / decimal}
; #@! TF.CreationDate,2023-10-24T14:33:56+02:00
; #@! TF.GenerationSoftware,Kicad,Pcbnew,7.0.7
; #@! TF.FileFunction,Plated,1,2,PTH
FMAT,2
METRIC
; #@! TA.AperFunction,Plated,PTH,ViaDrill
T1C0.800
; #@! TA.AperFunction,Plated,PTH,ComponentDrill
T2C1.000
; #@! TA.AperFunction,Plated,PTH,ComponentDrill
T3C2.000
%
G90
G05
T1
X66.04Y-101.6
X66.04Y-144.78
X67.31Y-149.86
X67.31Y-167.005
X68.58Y-104.14
X68.58Y-148.59
X68.58Y-175.26
X69.85Y-163.83
X69.85Y-172.72
X69.85Y-209.55
X69.85Y-212.09
X71.12Y-74.93
X71.12Y-89.535
X71.12Y-100.965
X71.12Y-102.87
X71.12Y-176.53
X71.12Y-205.74
X72.39Y-96.52
X72.39Y-151.13
X72.39Y-201.93
X72.39Y-208.28
X72.39Y-213.36
X72.39Y-220.98
X73.66Y-101.6
X73.66Y-267.97
X74.93Y-57.15
X74.93Y-165.1
X74.93Y-180.34
X74.93Y-187.96
X74.93Y-257.81
X74.93Y-279.4
X76.2Y-101.6
X76.2Y-135.89
X76.2Y-185.42
X76.2Y-195.58
X77.47Y-144.78
X77.47Y-218.44
X77.47Y-223.52
X77.47Y-280.67
X78.74Y-73.66
X78.74Y-104.14
X78.74Y-149.86
X78.74Y-185.42
X78.74Y-238.76
X80.01Y-135.89
X80.01Y-144.78
X80.01Y-172.72
X80.01Y-205.74
X80.645Y-102.235
X81.28Y-163.83
X81.28Y-204.47
X81.28Y-223.52
X81.28Y-237.49
X82.55Y-144.78
X82.55Y-150.495
X82.55Y-180.34
X83.82Y-100.33
X83.82Y-135.89
X83.82Y-240.03
X85.09Y-96.52
X85.09Y-111.76
X85.09Y-187.96
X86.36Y-163.195
X86.995Y-205.74
X87.63Y-114.3
X87.63Y-137.16
X87.63Y-165.1
X87.63Y-194.31
X88.9Y-100.33
X88.9Y-129.54
X88.9Y-180.34
X88.9Y-184.15
X88.9Y-200.66
X90.17Y-59.69
X90.17Y-95.25
X90.17Y-97.79
X90.17Y-137.16
X90.17Y-165.1
X90.17Y-172.72
X90.17Y-223.52
X90.17Y-234.315
X90.17Y-238.76
X90.17Y-278.13
X92.075Y-157.48
X92.71Y-64.77
X92.71Y-97.79
X92.71Y-114.3
X92.71Y-130.81
X92.71Y-209.55
X93.345Y-205.74
X93.98Y-203.2
X95.25Y-109.22
X95.25Y-137.16
X95.25Y-257.81
X95.885Y-181.61
X95.885Y-230.505
X96.52Y-187.96
X96.52Y-267.97
X97.79Y-81.28
X97.79Y-124.46
X97.79Y-193.04
X97.79Y-224.79
X97.79Y-256.54
X99.06Y-64.77
X99.06Y-91.44
X99.06Y-114.3
X99.06Y-130.81
X99.06Y-196.85
X100.33Y-102.87
X100.33Y-110.49
X100.33Y-123.19
X100.33Y-177.8
X100.33Y-184.785
X100.33Y-194.31
X101.6Y-91.44
X101.6Y-166.37
X101.6Y-227.33
X101.6Y-259.08
X102.235Y-149.86
X102.87Y-93.98
X102.87Y-177.8
X102.87Y-185.42
X102.87Y-217.17
X104.14Y-135.89
X104.14Y-148.59
X104.14Y-223.52
X104.14Y-240.03
X105.41Y-111.76
X105.41Y-122.555
X105.41Y-185.42
X106.68Y-135.89
X106.68Y-156.21
X106.68Y-166.37
X106.68Y-231.14
X107.315Y-180.34
X107.95Y-109.22
X107.95Y-185.42
X107.95Y-209.55
X108.585Y-149.86
X109.22Y-73.66
X109.22Y-116.84
X109.22Y-135.89
X109.22Y-222.25
X109.22Y-229.87
X109.855Y-180.34
X110.49Y-121.92
X110.49Y-192.405
X110.49Y-201.93
X110.49Y-217.17
X110.49Y-255.905
X111.125Y-116.205
X111.76Y-71.755
X111.76Y-135.89
X111.76Y-232.41
X113.03Y-80.01
X113.03Y-109.22
X113.03Y-149.86
X113.03Y-203.2
X113.03Y-257.81
X114.3Y-71.755
X114.3Y-162.56
X114.3Y-192.405
X115.57Y-187.325
X115.57Y-203.2
X115.57Y-255.905
X116.84Y-81.915
X116.84Y-113.03
X118.11Y-91.44
X118.11Y-205.74
X118.11Y-208.28
X118.11Y-218.44
X118.11Y-231.14
X118.11Y-255.905
X119.38Y-64.135
X119.38Y-210.82
X120.65Y-175.26
X120.65Y-213.36
X120.65Y-256.54
X121.285Y-180.34
X121.92Y-184.15
X122.872Y-64.77
X123.825Y-214.63
X124.46Y-82.55
X124.46Y-156.21
X124.46Y-198.12
X124.46Y-205.74
X124.46Y-210.82
X124.46Y-227.33
X125.095Y-146.685
X125.095Y-216.535
X125.095Y-219.71
X125.095Y-229.87
X125.73Y-175.895
X125.73Y-292.1
X126.365Y-145.415
X127.0Y-106.68
X127.0Y-133.35
X127.0Y-163.83
X127.0Y-190.5
X127.635Y-93.98
X127.635Y-186.69
X127.635Y-196.85
X127.953Y-162.56
X128.27Y-130.81
X128.27Y-209.55
X128.27Y-222.25
X128.27Y-236.22
X128.27Y-256.54
X129.222Y-118.11
X129.54Y-178.435
X130.175Y-225.425
X130.81Y-185.42
X130.81Y-256.54
X132.08Y-81.28
X132.08Y-119.38
X132.08Y-275.59
X132.715Y-207.645
X133.35Y-93.98
X133.35Y-149.86
X133.35Y-154.305
X133.35Y-187.96
X133.35Y-223.52
X133.35Y-226.06
X133.35Y-247.65
X133.985Y-185.42
X134.62Y-72.39
X134.62Y-83.82
X134.62Y-181.61
X135.89Y-96.52
X135.89Y-154.305
X135.89Y-175.895
X135.89Y-185.42
X135.89Y-187.96
X135.89Y-211.455
X135.89Y-217.17
X135.89Y-247.65
X135.89Y-257.81
X135.89Y-266.7
X135.89Y-287.02
X137.16Y-93.98
X137.16Y-135.89
X138.43Y-73.66
X138.43Y-87.63
X138.43Y-96.52
X138.43Y-127.0
X138.43Y-154.94
X138.43Y-176.53
X138.43Y-203.2
X138.43Y-256.54
X139.7Y-151.13
X139.7Y-160.02
X139.7Y-218.44
X140.335Y-135.89
X140.97Y-78.74
X140.97Y-116.84
X140.97Y-153.67
X140.97Y-176.53
X140.97Y-231.14
X140.97Y-276.86
X142.24Y-82.55
X142.24Y-87.63
X142.24Y-180.34
X142.24Y-203.2
X142.24Y-248.285
X143.51Y-58.42
X143.51Y-116.84
X143.51Y-137.795
X143.51Y-266.065
X144.145Y-156.21
X144.145Y-175.895
X144.78Y-82.55
X144.78Y-114.3
X144.78Y-179.705
X144.78Y-248.285
X146.05Y-176.53
X146.05Y-224.79
X146.05Y-231.775
X146.05Y-239.395
X147.32Y-72.39
X147.32Y-88.9
X147.32Y-116.205
X147.32Y-151.13
X147.32Y-217.805
X147.32Y-219.71
X147.955Y-176.53
X147.955Y-179.705
X148.59Y-78.74
X148.59Y-104.14
X148.59Y-137.16
X148.59Y-154.94
X148.59Y-158.75
X148.59Y-187.96
X148.59Y-239.395
X148.59Y-292.1
X149.86Y-57.15
X149.86Y-80.01
X149.86Y-114.935
X149.86Y-140.97
X149.86Y-201.93
X151.13Y-82.55
X151.13Y-112.395
X151.13Y-132.715
X151.13Y-153.67
X151.13Y-186.69
X151.13Y-225.425
X151.765Y-160.655
X151.765Y-177.165
X152.4Y-77.47
X152.4Y-154.94
X152.4Y-231.14
X152.4Y-238.76
X152.4Y-249.555
X152.4Y-256.54
X152.4Y-259.08
X153.67Y-93.98
X153.67Y-127.0
X153.67Y-140.97
X153.67Y-153.67
X153.67Y-266.065
X153.67Y-285.75
X154.305Y-274.955
X154.94Y-71.12
X154.94Y-83.82
X154.94Y-114.3
X154.94Y-161.29
X154.94Y-186.69
X154.94Y-280.67
X156.21Y-137.16
X156.21Y-140.97
X156.21Y-151.765
X156.21Y-173.355
X156.21Y-196.85
X156.21Y-200.66
X156.21Y-209.55
X156.21Y-220.98
X156.21Y-231.14
X156.845Y-180.975
X157.48Y-74.93
X157.48Y-88.9
X157.48Y-114.3
X157.48Y-187.96
X158.115Y-247.65
X158.75Y-111.76
X158.75Y-196.85
X158.75Y-200.66
X158.75Y-240.03
X158.75Y-274.32
X159.385Y-173.99
X160.02Y-74.295
X160.02Y-159.385
X160.02Y-177.165
X160.02Y-187.325
X160.02Y-224.79
X160.02Y-266.065
X161.29Y-77.47
X161.29Y-116.84
X161.29Y-156.21
X161.29Y-256.54
X161.29Y-259.08
X161.29Y-287.02
X161.925Y-94.615
X162.56Y-120.65
X162.56Y-161.29
X162.56Y-233.68
X162.56Y-236.22
X162.56Y-254.0
X163.83Y-67.31
X163.83Y-76.2
X163.83Y-90.17
X163.83Y-137.16
X163.83Y-156.21
X163.83Y-196.85
X163.83Y-203.835
X163.83Y-217.17
X165.1Y-121.285
X165.1Y-158.75
X165.1Y-191.77
X165.1Y-266.065
X165.1Y-274.955
X166.37Y-78.74
X166.37Y-96.52
X166.37Y-104.14
X166.37Y-106.68
X166.37Y-174.625
X166.37Y-199.39
X166.37Y-234.315
X166.37Y-287.02
X167.005Y-136.525
X167.64Y-153.67
X167.64Y-160.02
X167.64Y-186.69
X167.64Y-254.635
X168.275Y-238.76
X168.91Y-169.545
X168.91Y-174.625
X168.91Y-201.93
X168.91Y-266.7
X168.91Y-276.86
X170.18Y-57.15
X170.18Y-135.89
X170.18Y-153.035
X170.18Y-158.75
X170.18Y-163.83
X170.18Y-179.07
X170.18Y-187.325
X170.18Y-247.015
X171.45Y-88.9
X171.45Y-121.92
X171.45Y-150.495
X171.45Y-240.665
X171.45Y-270.51
X171.45Y-279.4
X172.72Y-158.75
X172.72Y-173.355
X172.72Y-196.85
X172.72Y-260.35
X173.99Y-144.145
X173.99Y-165.1
X173.99Y-170.18
X173.99Y-241.3
X175.26Y-178.435
X175.26Y-256.54
X175.26Y-271.78
X176.53Y-87.63
X176.53Y-116.205
X176.53Y-149.86
X176.53Y-157.48
X176.53Y-170.18
X176.53Y-187.96
X176.53Y-241.3
X176.53Y-289.56
X176.53Y-292.1
X177.8Y-62.23
X177.8Y-71.12
X177.8Y-121.285
X177.8Y-172.72
X177.8Y-175.26
X177.8Y-233.68
X177.8Y-271.78
X179.07Y-170.18
X179.07Y-246.38
X179.07Y-266.7
X180.34Y-57.15
X180.34Y-74.93
X180.34Y-86.36
X180.34Y-140.97
X180.34Y-156.21
X180.34Y-173.99
X180.34Y-233.68
X181.61Y-78.74
X181.61Y-87.63
X181.61Y-160.02
X181.61Y-171.45
X182.88Y-100.33
X182.88Y-115.57
X182.88Y-131.445
X182.88Y-151.13
X182.88Y-156.21
X182.88Y-259.08
X182.88Y-267.97
X183.515Y-203.2
X184.15Y-72.39
X184.15Y-80.01
X184.15Y-144.78
X184.15Y-181.61
X184.15Y-206.375
X184.15Y-220.98
X184.15Y-273.05
X184.785Y-170.18
X184.785Y-249.555
X185.42Y-86.36
X186.055Y-131.445
X186.69Y-72.39
X186.69Y-162.56
X186.69Y-167.64
X186.69Y-217.805
X186.69Y-231.14
X186.69Y-273.05
X187.96Y-142.875
X187.96Y-173.355
X187.96Y-187.96
X188.595Y-146.685
X188.595Y-203.2
X189.23Y-68.58
X189.23Y-168.91
X189.23Y-182.88
X189.23Y-248.92
X189.23Y-266.065
X189.23Y-270.51
X190.5Y-72.39
X190.5Y-120.65
X190.5Y-143.51
X190.5Y-147.32
X190.5Y-212.09
X191.135Y-203.2
X191.77Y-74.93
X191.77Y-83.82
X191.77Y-99.06
X191.77Y-193.04
X191.77Y-226.695
X191.77Y-238.76
X193.04Y-113.03
X193.04Y-165.1
X194.31Y-64.77
X194.31Y-99.06
X194.31Y-106.68
X194.31Y-143.51
X194.31Y-195.58
X194.31Y-271.78
X195.58Y-116.84
X195.58Y-149.86
X195.58Y-161.29
X195.58Y-215.9
X196.215Y-141.605
X196.215Y-146.685
X196.85Y-81.28
X196.85Y-83.82
X196.85Y-89.535
X196.85Y-106.68
X196.85Y-132.08
X196.85Y-163.83
X196.85Y-200.66
X196.85Y-233.68
X198.12Y-154.94
X198.12Y-193.675
X198.12Y-280.67
X198.12Y-292.1
X198.755Y-179.705
X199.39Y-68.58
X199.39Y-80.01
X199.39Y-142.24
X199.39Y-157.48
X199.39Y-162.56
X199.39Y-175.895
X200.025Y-133.985
X200.66Y-105.41
X200.66Y-120.65
X200.66Y-161.29
X200.66Y-181.61
X200.66Y-280.67
X201.93Y-68.58
X201.93Y-116.84
X201.93Y-270.51
X203.2Y-112.395
X203.2Y-120.65
X203.2Y-147.955
X203.2Y-153.67
X203.2Y-209.55
X203.2Y-264.16
X203.835Y-216.535
X203.835Y-225.425
X204.47Y-88.9
X204.47Y-156.21
X204.47Y-201.93
X205.74Y-106.68
X205.74Y-123.19
X205.74Y-131.445
X205.74Y-147.32
X205.74Y-172.72
X205.74Y-187.96
X205.74Y-213.36
X205.74Y-251.46
X205.74Y-267.97
X207.01Y-154.94
X207.01Y-236.22
X208.28Y-78.74
X208.28Y-96.52
X208.28Y-107.95
X208.28Y-117.475
X208.28Y-143.51
X208.28Y-158.75
X208.28Y-178.435
X209.55Y-217.17
X210.82Y-80.01
X210.82Y-107.95
X210.82Y-147.32
X210.82Y-170.18
X210.82Y-184.15
X210.82Y-245.11
X212.09Y-143.51
X212.09Y-160.02
X212.09Y-163.83
X212.09Y-179.07
X212.09Y-201.93
X212.09Y-281.94
X212.09Y-287.02
X213.36Y-104.14
X213.36Y-109.22
X214.63Y-147.32
X214.63Y-179.07
X214.63Y-195.58
X215.265Y-238.125
X215.9Y-96.52
X215.9Y-109.22
X215.9Y-186.69
X215.9Y-292.1
X216.535Y-272.415
X217.17Y-147.32
X217.17Y-172.72
X217.17Y-195.58
X218.44Y-107.95
X218.44Y-194.31
X218.44Y-287.02
X218.44Y-289.56
X219.71Y-86.995
X219.71Y-104.14
X219.71Y-172.72
X219.71Y-280.67
X219.71Y-283.21
X220.345Y-272.415
X220.98Y-147.32
X220.98Y-227.33
X220.98Y-284.48
X222.25Y-102.87
X222.25Y-109.22
X222.25Y-140.97
X222.25Y-172.72
X222.25Y-186.69
X222.25Y-248.92
X222.25Y-256.54
X222.25Y-270.51
X222.25Y-280.67
X222.25Y-285.75
X223.52Y-67.31
X223.52Y-81.28
X223.52Y-142.24
X223.52Y-194.31
X223.52Y-231.14
X223.52Y-288.29
X224.79Y-57.15
X224.79Y-69.85
X224.79Y-102.87
X224.79Y-123.19
X224.79Y-146.05
X224.79Y-161.29
X224.79Y-172.72
X224.79Y-179.07
X224.79Y-195.58
X224.79Y-254.0
X226.06Y-104.775
X226.06Y-118.11
X226.06Y-240.03
X226.06Y-248.285
X226.06Y-261.62
X226.06Y-277.495
X226.695Y-80.01
X226.695Y-233.68
X227.33Y-69.85
X227.33Y-83.82
X227.33Y-87.63
X227.33Y-143.51
X227.33Y-156.21
X227.33Y-173.99
X227.965Y-114.935
X228.6Y-132.08
X228.6Y-148.59
X228.6Y-222.25
X228.6Y-278.13
X229.235Y-73.66
X229.235Y-219.71
X229.87Y-57.15
X229.87Y-173.99
X229.87Y-246.38
X229.87Y-248.92
X229.87Y-254.0
X229.87Y-275.59
X229.87Y-280.67
X229.87Y-289.56
X231.14Y-133.35
X231.14Y-179.07
X231.14Y-231.14
X232.41Y-174.625
X232.41Y-238.76
X232.41Y-254.0
X232.41Y-269.875
X233.045Y-72.39
X233.045Y-87.63
X233.045Y-102.87
X233.68Y-133.35
X233.68Y-149.86
X233.68Y-160.02
X234.95Y-165.1
X234.95Y-284.48
X236.22Y-163.83
X236.855Y-268.605
X237.49Y-224.79
X237.49Y-229.87
X237.49Y-246.38
X237.49Y-281.94
X238.76Y-123.19
X238.76Y-222.25
X240.03Y-162.56
X240.03Y-177.8
X240.03Y-208.28
X240.03Y-257.81
X240.03Y-281.94
X241.3Y-57.15
X241.3Y-156.21
X241.3Y-219.71
X241.3Y-246.38
X242.57Y-133.35
X242.57Y-165.1
X242.57Y-229.87
X243.84Y-149.86
X243.84Y-156.21
X243.84Y-228.6
X245.11Y-58.42
X245.11Y-162.56
X245.11Y-179.07
X245.11Y-182.88
X246.38Y-176.53
X246.38Y-184.15
X246.38Y-227.33
X246.38Y-231.14
X247.65Y-232.41
X248.92Y-58.42
X248.92Y-187.96
X248.92Y-252.73
X250.19Y-175.26
X250.825Y-217.17
X251.46Y-124.46
X251.46Y-203.2
X251.46Y-214.63
X251.46Y-223.52
X252.73Y-162.56
X252.73Y-179.07
X252.73Y-207.645
X252.73Y-231.14
X252.73Y-259.08
X254.0Y-172.085
X254.0Y-273.685
X254.635Y-81.28
X254.635Y-223.52
X254.635Y-257.175
X255.27Y-156.21
X256.54Y-57.15
X256.54Y-116.84
X256.54Y-181.61
X256.54Y-219.075
X257.175Y-224.155
X257.175Y-229.87
X257.81Y-144.78
X257.81Y-149.86
X257.81Y-176.53
X257.81Y-186.69
X257.81Y-217.17
X257.81Y-238.76
X257.81Y-260.35
X258.445Y-73.66
X258.445Y-87.63
X258.445Y-102.87
X259.715Y-230.505
X260.35Y-160.02
X260.35Y-187.96
X260.35Y-203.2
X260.35Y-238.76
X260.35Y-257.175
X260.35Y-259.715
X261.62Y-218.44
X261.62Y-224.79
X261.62Y-232.41
X261.62Y-234.95
X261.62Y-269.875
X262.255Y-215.265
X262.89Y-127.0
X262.89Y-149.86
X262.89Y-163.83
X264.16Y-193.04
X264.16Y-212.09
X264.16Y-257.81
X265.43Y-195.58
X266.7Y-57.15
X266.7Y-124.46
X266.7Y-157.48
X266.7Y-203.2
X266.7Y-216.535
X266.7Y-257.175
X267.97Y-132.08
X267.97Y-148.59
X267.97Y-187.325
X267.97Y-275.59
X269.24Y-118.11
X269.24Y-172.085
X269.24Y-231.14
X269.24Y-267.97
X270.51Y-124.46
X270.51Y-127.0
X270.51Y-273.05
X271.145Y-173.99
X271.78Y-209.55
X271.78Y-259.08
X273.05Y-70.485
X273.05Y-185.42
X273.05Y-234.95
X273.685Y-139.065
X274.32Y-117.475
X274.32Y-130.81
X274.32Y-177.165
X274.32Y-226.06
X274.32Y-233.68
X274.32Y-238.76
X274.32Y-241.3
X275.59Y-139.7
X275.59Y-172.72
X275.59Y-186.69
X275.59Y-218.44
X275.59Y-271.78
X276.225Y-254.0
X276.86Y-176.53
X276.86Y-220.98
X276.86Y-231.14
X277.495Y-210.82
X278.13Y-118.11
X278.13Y-172.085
X278.13Y-179.07
X278.13Y-186.69
X278.13Y-193.04
X278.13Y-201.93
X279.4Y-147.955
X279.4Y-156.21
X279.4Y-282.575
X280.035Y-57.15
X280.67Y-171.45
X280.67Y-175.895
X280.67Y-186.69
X280.67Y-217.17
X280.67Y-246.38
X281.94Y-132.08
X281.94Y-194.31
X281.94Y-201.93
X281.94Y-224.79
X281.94Y-274.955
X283.21Y-149.225
X283.21Y-170.815
X283.21Y-175.26
X283.21Y-198.12
X283.21Y-207.01
X283.21Y-246.38
X283.845Y-73.025
X283.845Y-87.63
X283.845Y-102.87
X283.845Y-187.96
X284.48Y-281.94
X285.75Y-129.54
X285.75Y-144.78
X285.75Y-163.83
X285.75Y-184.15
X287.02Y-190.5
X287.02Y-201.93
X287.02Y-208.28
X287.02Y-261.62
X287.02Y-281.94
X287.655Y-194.945
X288.29Y-125.73
X288.29Y-179.07
X289.56Y-191.77
X290.195Y-201.295
X290.83Y-117.475
X290.83Y-140.97
X290.83Y-147.32
X290.83Y-149.86
X290.83Y-153.67
X290.83Y-158.75
X290.83Y-161.29
X290.83Y-246.38
X292.1Y-57.15
X292.1Y-138.43
X292.1Y-191.77
X292.1Y-200.66
X292.1Y-274.32
X292.735Y-194.945
X293.37Y-139.7
X293.37Y-152.4
X293.37Y-218.44
X293.37Y-261.62
X293.37Y-285.75
X294.64Y-187.96
X294.64Y-204.47
X294.64Y-238.76
X294.64Y-274.32
X294.64Y-289.56
X295.91Y-193.04
X295.91Y-266.7
X297.18Y-142.24
X297.18Y-172.72
X297.18Y-226.06
X298.45Y-186.69
X298.45Y-208.28
X298.45Y-223.52
X298.45Y-252.73
X299.72Y-97.79
X299.72Y-125.73
X299.72Y-224.79
X299.72Y-270.51
X300.99Y-120.65
X300.99Y-133.985
X300.99Y-162.56
X300.99Y-195.58
X300.99Y-201.295
X300.99Y-243.84
X300.99Y-292.1
X302.26Y-71.755
X302.26Y-172.72
X302.895Y-282.575
X303.53Y-117.475
X303.53Y-209.55
X303.53Y-246.38
X303.53Y-256.54
X303.53Y-261.62
X304.8Y-171.45
X304.8Y-224.79
X304.8Y-234.95
X305.435Y-80.645
X306.07Y-205.74
X306.07Y-222.25
X306.07Y-283.21
X307.34Y-57.15
X308.61Y-130.81
X308.61Y-144.78
X308.61Y-148.59
X308.61Y-179.07
X308.61Y-190.5
X308.61Y-193.04
X308.61Y-218.44
X308.61Y-248.92
X308.61Y-262.89
X309.88Y-274.32
X311.15Y-124.46
X311.15Y-152.4
X311.15Y-167.64
X311.15Y-179.07
X311.15Y-182.88
X311.15Y-264.16
X312.42Y-210.82
X312.42Y-281.94
X313.69Y-171.45
X313.69Y-186.69
X313.69Y-208.28
X314.96Y-163.83
X314.96Y-283.21
X316.23Y-120.65
X316.23Y-248.92
X316.23Y-264.16
X317.5Y-142.24
X317.5Y-281.94
X318.77Y-186.69
X318.77Y-264.16
X321.31Y-194.31
X321.31Y-203.2
X321.31Y-218.44
X321.31Y-266.7
X322.58Y-97.79
X322.58Y-210.82
X322.58Y-248.92
X323.85Y-186.69
X323.85Y-218.44
X323.85Y-259.08
X323.85Y-289.56
X325.12Y-165.1
X325.12Y-247.65
X325.12Y-292.1
X326.39Y-78.74
X326.39Y-156.21
X326.39Y-186.69
X326.39Y-195.58
X326.39Y-218.44
X326.39Y-280.67
X327.66Y-139.7
X327.66Y-171.45
X327.66Y-232.41
X328.613Y-220.98
X328.93Y-72.39
X328.93Y-87.63
X328.93Y-102.87
X328.93Y-147.32
X328.93Y-205.74
X330.835Y-193.04
X330.835Y-214.63
X331.47Y-186.69
X331.47Y-237.49
X332.105Y-199.39
X332.105Y-220.98
X332.105Y-232.41
X332.74Y-235.585
X334.01Y-120.65
X334.01Y-130.81
X334.01Y-142.24
X334.01Y-156.21
X334.01Y-179.07
X334.01Y-213.36
X334.01Y-241.3
X335.28Y-261.62
X335.28Y-276.86
X336.55Y-208.28
X336.55Y-223.52
X336.55Y-274.32
X337.82Y-118.11
X337.82Y-147.32
X337.82Y-193.04
X337.82Y-195.58
X337.82Y-227.33
X337.82Y-242.57
X339.09Y-226.06
X339.09Y-234.315
X340.36Y-231.775
X341.63Y-135.89
X341.63Y-154.94
X341.63Y-200.66
X341.63Y-215.9
X342.9Y-261.62
X344.17Y-233.68
X344.17Y-246.38
X345.44Y-158.75
X345.44Y-181.61
X345.44Y-231.775
X346.71Y-194.31
X347.98Y-156.21
X347.98Y-162.56
X347.98Y-186.69
X347.98Y-254.0
X347.98Y-261.62
X349.25Y-200.66
X349.25Y-218.44
X350.52Y-194.31
X350.52Y-210.82
X353.06Y-177.8
X353.06Y-241.3
X353.06Y-248.92
X354.33Y-127.0
X354.33Y-163.83
X355.6Y-175.26
X355.6Y-190.5
X355.6Y-205.74
X355.6Y-220.98
X355.6Y-224.79
X355.6Y-236.22
T2
X64.77Y-182.88
X67.305Y-119.39
X67.305Y-127.01
X67.305Y-133.36
X67.305Y-140.98
X67.305Y-147.33
X67.305Y-154.95
X67.31Y-77.47
X67.31Y-85.09
X67.31Y-91.44
X67.31Y-99.06
X67.31Y-106.68
X67.31Y-114.3
X67.31Y-161.29
X67.31Y-168.91
X67.35Y-158.75
X68.58Y-274.32
X68.58Y-279.32
X68.58Y-285.75
X68.58Y-290.75
X69.67Y-182.88
X69.845Y-119.39
X69.845Y-127.01
X69.845Y-133.36
X69.845Y-140.98
X69.845Y-147.33
X69.845Y-154.95
X69.85Y-77.47
X69.85Y-85.09
X69.85Y-91.44
X69.85Y-99.06
X69.85Y-106.68
X69.85Y-114.3
X69.85Y-161.29
X69.85Y-168.91
X69.85Y-214.63
X69.85Y-222.25
X69.85Y-224.79
X69.85Y-232.41
X69.85Y-235.07
X69.85Y-242.57
X72.35Y-158.75
X72.385Y-119.39
X72.385Y-127.01
X72.385Y-133.36
X72.385Y-140.98
X72.385Y-147.33
X72.385Y-154.95
X72.39Y-77.47
X72.39Y-85.09
X72.39Y-91.44
X72.39Y-99.06
X72.39Y-106.68
X72.39Y-114.3
X72.39Y-161.29
X72.39Y-168.91
X73.66Y-218.44
X73.66Y-232.41
X73.72Y-215.9
X74.915Y-236.23
X74.915Y-243.85
X74.925Y-119.39
X74.925Y-127.01
X74.925Y-133.36
X74.925Y-140.98
X74.925Y-147.33
X74.925Y-154.95
X74.93Y-68.58
X74.93Y-72.39
X74.93Y-77.47
X74.93Y-85.09
X74.93Y-91.44
X74.93Y-99.06
X74.93Y-106.68
X74.93Y-114.3
X74.93Y-161.29
X74.93Y-168.91
X74.93Y-172.72
X74.93Y-175.26
X74.93Y-182.88
X74.93Y-190.5
X74.93Y-198.12
X74.93Y-200.66
X74.93Y-220.98
X74.93Y-228.6
X75.01Y-87.63
X75.01Y-209.55
X75.05Y-203.2
X76.2Y-232.41
X77.455Y-236.23
X77.455Y-243.85
X77.465Y-119.39
X77.465Y-127.01
X77.465Y-133.36
X77.465Y-140.98
X77.465Y-147.33
X77.465Y-154.95
X77.47Y-77.47
X77.47Y-85.09
X77.47Y-91.44
X77.47Y-99.06
X77.47Y-106.68
X77.47Y-114.3
X77.47Y-161.29
X77.47Y-168.91
X77.47Y-175.26
X77.47Y-182.88
X77.47Y-190.5
X77.47Y-198.12
X77.47Y-220.98
X77.47Y-228.6
X77.47Y-261.62
X77.51Y-130.81
X77.55Y-64.77
X78.74Y-232.41
X78.74Y-251.46
X78.74Y-254.0
X78.74Y-270.51
X78.74Y-273.05
X78.74Y-287.02
X78.74Y-289.56
X79.995Y-236.23
X79.995Y-243.85
X80.005Y-119.39
X80.005Y-127.01
X80.005Y-133.36
X80.005Y-140.98
X80.005Y-147.33
X80.005Y-154.95
X80.01Y-77.47
X80.01Y-85.09
X80.01Y-87.63
X80.01Y-91.44
X80.01Y-99.06
X80.01Y-106.68
X80.01Y-114.3
X80.01Y-161.29
X80.01Y-168.91
X80.01Y-175.26
X80.01Y-182.88
X80.01Y-190.5
X80.01Y-198.12
X80.01Y-209.55
X80.01Y-220.98
X80.01Y-228.6
X81.22Y-215.9
X81.28Y-218.44
X81.28Y-251.46
X81.28Y-254.0
X81.28Y-270.51
X81.28Y-273.05
X81.28Y-287.02
X81.28Y-289.56
X82.47Y-261.62
X82.51Y-130.81
X82.535Y-236.23
X82.535Y-243.85
X82.545Y-119.39
X82.545Y-127.01
X82.545Y-133.36
X82.545Y-140.98
X82.545Y-147.33
X82.545Y-154.95
X82.55Y-64.77
X82.55Y-68.58
X82.55Y-72.39
X82.55Y-77.47
X82.55Y-85.09
X82.55Y-91.44
X82.55Y-99.06
X82.55Y-106.68
X82.55Y-114.3
X82.55Y-161.29
X82.55Y-168.91
X82.55Y-172.72
X82.55Y-175.26
X82.55Y-182.88
X82.55Y-186.69
X82.55Y-190.5
X82.55Y-198.12
X82.55Y-200.66
X82.55Y-203.2
X82.55Y-220.98
X82.55Y-228.6
X82.55Y-232.41
X83.82Y-208.28
X83.82Y-210.82
X83.82Y-213.36
X83.82Y-215.9
X83.82Y-218.44
X83.82Y-251.46
X83.82Y-254.0
X83.82Y-270.51
X83.82Y-273.05
X83.82Y-287.02
X83.82Y-289.56
X85.075Y-236.23
X85.075Y-243.85
X85.085Y-119.39
X85.085Y-127.01
X85.085Y-133.36
X85.085Y-140.98
X85.085Y-147.33
X85.085Y-154.95
X85.09Y-161.29
X85.09Y-168.91
X85.09Y-175.26
X85.09Y-182.88
X85.09Y-190.5
X85.09Y-198.12
X85.09Y-220.98
X85.09Y-228.6
X85.09Y-232.41
X86.36Y-251.46
X86.36Y-254.0
X86.36Y-270.51
X86.36Y-273.05
X86.36Y-287.02
X86.36Y-289.56
X87.615Y-236.23
X87.615Y-243.85
X87.625Y-119.39
X87.625Y-127.01
X87.625Y-133.36
X87.625Y-140.98
X87.625Y-147.33
X87.625Y-154.95
X87.63Y-161.29
X87.63Y-168.91
X87.63Y-175.26
X87.63Y-182.88
X87.63Y-190.5
X87.63Y-198.12
X87.63Y-203.2
X87.63Y-220.98
X87.63Y-228.6
X87.63Y-232.41
X87.71Y-261.62
X88.9Y-62.23
X88.9Y-69.85
X88.9Y-77.47
X88.9Y-85.09
X88.9Y-251.46
X88.9Y-254.0
X88.9Y-270.51
X88.9Y-273.05
X88.9Y-287.02
X88.9Y-289.56
X90.155Y-236.23
X90.155Y-243.85
X90.165Y-119.39
X90.165Y-127.01
X90.165Y-133.36
X90.165Y-140.98
X90.165Y-147.33
X90.165Y-154.95
X90.17Y-161.29
X90.17Y-168.91
X90.17Y-175.26
X90.17Y-182.88
X90.17Y-186.69
X90.17Y-190.5
X90.17Y-198.12
X90.17Y-203.2
X90.17Y-220.98
X90.17Y-228.6
X90.17Y-232.41
X91.44Y-62.23
X91.44Y-69.85
X91.44Y-77.47
X91.44Y-85.09
X91.44Y-208.28
X91.44Y-210.82
X91.44Y-213.36
X91.44Y-215.9
X91.44Y-218.44
X91.44Y-251.46
X91.44Y-254.0
X91.44Y-270.51
X91.44Y-273.05
X91.44Y-287.02
X91.44Y-289.56
X92.695Y-236.23
X92.695Y-243.85
X92.71Y-107.95
X92.71Y-186.69
X92.71Y-232.41
X92.71Y-261.62
X93.98Y-62.23
X93.98Y-69.85
X93.98Y-77.47
X93.98Y-85.09
X93.98Y-251.46
X93.98Y-254.0
X93.98Y-270.51
X93.98Y-273.05
X93.98Y-287.02
X93.98Y-289.56
X94.02Y-73.66
X95.25Y-111.76
X96.52Y-62.23
X96.52Y-69.85
X96.52Y-77.47
X96.52Y-85.09
X96.52Y-232.41
X96.52Y-251.46
X96.52Y-254.0
X96.52Y-270.51
X96.52Y-273.05
X96.52Y-287.02
X96.52Y-289.56
X97.785Y-119.39
X97.785Y-127.01
X97.785Y-133.36
X97.785Y-140.98
X97.785Y-147.33
X97.785Y-154.95
X97.785Y-220.99
X97.785Y-228.61
X97.785Y-236.23
X97.785Y-243.85
X97.79Y-111.76
X97.79Y-161.29
X97.79Y-168.91
X97.79Y-175.26
X97.79Y-182.88
X97.79Y-190.5
X97.79Y-198.12
X97.79Y-205.74
X97.79Y-213.36
X97.87Y-201.93
X99.02Y-73.66
X99.06Y-62.23
X99.06Y-69.85
X99.06Y-77.47
X99.06Y-85.09
X99.06Y-251.46
X99.06Y-254.0
X99.06Y-259.08
X99.06Y-266.7
X99.06Y-270.51
X99.06Y-273.05
X99.06Y-287.02
X99.06Y-289.56
X100.325Y-119.39
X100.325Y-127.01
X100.325Y-133.36
X100.325Y-140.98
X100.325Y-147.33
X100.325Y-154.95
X100.325Y-220.99
X100.325Y-228.61
X100.325Y-236.23
X100.325Y-243.85
X100.33Y-107.95
X100.33Y-161.29
X100.33Y-168.91
X100.33Y-175.26
X100.33Y-182.88
X100.33Y-186.69
X100.33Y-190.5
X100.33Y-198.12
X100.33Y-205.74
X100.33Y-213.36
X101.6Y-62.23
X101.6Y-69.85
X101.6Y-77.47
X101.6Y-85.09
X101.6Y-251.46
X101.6Y-254.0
X101.6Y-270.51
X101.6Y-273.05
X101.6Y-287.02
X101.6Y-289.56
X102.865Y-119.39
X102.865Y-127.01
X102.865Y-133.36
X102.865Y-140.98
X102.865Y-147.33
X102.865Y-154.95
X102.865Y-220.99
X102.865Y-228.61
X102.865Y-236.23
X102.865Y-243.85
X102.87Y-161.29
X102.87Y-168.91
X102.87Y-175.26
X102.87Y-182.88
X102.87Y-190.5
X102.87Y-198.12
X102.87Y-201.93
X102.87Y-205.74
X102.87Y-213.36
X104.14Y-62.23
X104.14Y-69.85
X104.14Y-77.47
X104.14Y-85.09
X104.14Y-232.41
X104.14Y-251.46
X104.14Y-254.0
X104.14Y-270.51
X104.14Y-273.05
X104.14Y-287.02
X104.14Y-289.56
X105.405Y-119.39
X105.405Y-127.01
X105.405Y-133.36
X105.405Y-140.98
X105.405Y-147.33
X105.405Y-154.95
X105.405Y-220.99
X105.405Y-228.61
X105.405Y-236.23
X105.405Y-243.85
X105.41Y-106.68
X105.41Y-114.3
X105.41Y-161.29
X105.41Y-168.91
X105.41Y-175.26
X105.41Y-182.88
X105.41Y-190.5
X105.41Y-198.12
X105.41Y-205.74
X105.41Y-213.36
X106.68Y-251.46
X106.68Y-254.0
X106.68Y-270.51
X106.68Y-273.05
X106.68Y-287.02
X106.68Y-289.56
X107.945Y-119.39
X107.945Y-127.01
X107.945Y-133.36
X107.945Y-140.98
X107.945Y-147.33
X107.945Y-154.95
X107.945Y-220.99
X107.945Y-228.61
X107.945Y-236.23
X107.945Y-243.85
X107.95Y-106.68
X107.95Y-114.3
X107.95Y-161.29
X107.95Y-168.91
X107.95Y-175.26
X107.95Y-182.88
X107.95Y-190.5
X107.95Y-198.12
X107.95Y-205.74
X107.95Y-213.36
X109.22Y-251.46
X109.22Y-254.0
X109.22Y-259.08
X109.22Y-266.7
X109.22Y-270.51
X109.22Y-273.05
X109.22Y-287.02
X109.22Y-289.56
X110.485Y-119.39
X110.485Y-127.01
X110.485Y-133.36
X110.485Y-140.98
X110.485Y-147.33
X110.485Y-154.95
X110.485Y-220.99
X110.485Y-228.61
X110.485Y-236.23
X110.485Y-243.85
X110.49Y-106.68
X110.49Y-114.3
X110.49Y-161.29
X110.49Y-168.91
X110.49Y-175.26
X110.49Y-182.88
X110.49Y-190.5
X110.49Y-198.12
X110.49Y-205.74
X110.49Y-213.36
X111.76Y-62.23
X111.76Y-69.85
X111.76Y-77.47
X111.76Y-85.09
X111.76Y-251.46
X111.76Y-254.0
X111.76Y-259.08
X111.76Y-266.7
X111.76Y-270.51
X111.76Y-273.05
X111.76Y-287.02
X111.76Y-289.56
X111.8Y-57.15
X113.025Y-119.39
X113.025Y-127.01
X113.025Y-133.36
X113.025Y-140.98
X113.025Y-147.33
X113.025Y-154.95
X113.025Y-220.99
X113.025Y-228.61
X113.025Y-236.23
X113.025Y-243.85
X113.03Y-106.68
X113.03Y-114.3
X113.03Y-161.29
X113.03Y-168.91
X113.03Y-175.26
X113.03Y-182.88
X113.03Y-190.5
X113.03Y-198.12
X113.03Y-205.74
X113.03Y-213.36
X114.3Y-62.23
X114.3Y-69.85
X114.3Y-77.47
X114.3Y-85.09
X114.3Y-251.46
X114.3Y-254.0
X114.3Y-259.08
X114.3Y-266.7
X114.3Y-270.51
X114.3Y-273.05
X114.3Y-287.02
X114.3Y-289.56
X115.565Y-119.39
X115.565Y-127.01
X115.565Y-133.36
X115.565Y-140.98
X115.565Y-147.33
X115.565Y-154.95
X115.565Y-220.99
X115.565Y-228.61
X115.565Y-236.23
X115.565Y-243.85
X115.57Y-106.68
X115.57Y-114.3
X115.57Y-161.29
X115.57Y-168.91
X115.57Y-175.26
X115.57Y-182.88
X115.57Y-190.5
X115.57Y-198.12
X115.57Y-205.74
X115.57Y-213.36
X116.8Y-57.15
X116.84Y-62.23
X116.84Y-69.85
X116.84Y-77.47
X116.84Y-85.09
X116.84Y-251.46
X116.84Y-254.0
X116.84Y-259.08
X116.84Y-266.7
X116.84Y-270.51
X116.84Y-273.05
X116.84Y-287.02
X116.84Y-289.56
X118.105Y-119.39
X118.105Y-127.01
X118.105Y-133.36
X118.105Y-140.98
X118.105Y-147.33
X118.105Y-154.95
X118.105Y-220.99
X118.105Y-228.61
X118.105Y-236.23
X118.105Y-243.85
X118.11Y-106.68
X118.11Y-114.3
X118.11Y-161.29
X118.11Y-168.91
X118.11Y-190.5
X118.11Y-198.12
X118.15Y-73.66
X119.38Y-62.23
X119.38Y-69.85
X119.38Y-77.47
X119.38Y-85.09
X119.38Y-251.46
X119.38Y-254.0
X119.38Y-270.51
X119.38Y-273.05
X119.38Y-287.02
X119.38Y-289.56
X120.645Y-119.39
X120.645Y-127.01
X120.645Y-133.36
X120.645Y-140.98
X120.645Y-147.33
X120.645Y-154.95
X120.645Y-220.99
X120.645Y-228.61
X120.645Y-236.23
X120.645Y-243.85
X120.65Y-106.68
X120.65Y-114.3
X120.65Y-161.29
X120.65Y-168.91
X120.65Y-190.5
X120.65Y-198.12
X121.92Y-62.23
X121.92Y-69.85
X121.92Y-77.47
X121.92Y-85.09
X121.92Y-92.71
X121.92Y-97.61
X121.92Y-251.46
X121.92Y-254.0
X121.92Y-270.51
X121.92Y-273.05
X123.15Y-73.66
X124.46Y-62.23
X124.46Y-69.85
X124.46Y-77.47
X124.46Y-85.09
X124.46Y-91.56
X124.46Y-99.06
X124.46Y-251.46
X124.46Y-254.0
X124.46Y-270.51
X124.46Y-273.05
X127.0Y-62.23
X127.0Y-69.85
X127.0Y-77.47
X127.0Y-85.09
X127.0Y-91.56
X127.0Y-99.06
X127.0Y-135.89
X127.0Y-140.89
X127.0Y-251.46
X127.0Y-254.0
X127.0Y-259.08
X127.0Y-266.7
X127.0Y-270.51
X127.0Y-273.05
X128.275Y-283.22
X128.275Y-290.84
X129.54Y-251.46
X129.54Y-254.0
X129.54Y-270.51
X129.54Y-273.05
X130.805Y-167.635
X130.805Y-182.875
X130.805Y-213.355
X130.805Y-228.595
X130.81Y-91.44
X130.81Y-99.06
X130.81Y-147.32
X130.81Y-162.56
X130.81Y-190.5
X130.81Y-205.74
X130.815Y-106.675
X130.815Y-121.915
X130.815Y-133.36
X130.815Y-140.98
X130.815Y-283.22
X130.815Y-290.84
X132.08Y-251.46
X132.08Y-254.0
X132.08Y-259.08
X132.08Y-266.7
X132.08Y-270.51
X132.08Y-273.05
X133.345Y-167.635
X133.345Y-182.875
X133.345Y-213.355
X133.345Y-228.595
X133.35Y-147.32
X133.35Y-162.56
X133.35Y-190.5
X133.35Y-205.74
X133.355Y-106.675
X133.355Y-121.915
X133.355Y-133.36
X133.355Y-140.98
X133.355Y-283.22
X133.355Y-290.84
X134.62Y-62.23
X134.62Y-69.85
X134.62Y-251.46
X134.62Y-254.0
X134.62Y-270.51
X134.62Y-273.05
X134.66Y-57.15
X135.885Y-167.635
X135.885Y-182.875
X135.885Y-213.355
X135.885Y-228.595
X135.885Y-236.23
X135.885Y-243.85
X135.89Y-147.32
X135.89Y-162.56
X135.89Y-190.5
X135.89Y-205.74
X135.895Y-106.675
X135.895Y-121.915
X135.895Y-133.36
X135.895Y-140.98
X135.895Y-283.22
X135.895Y-290.84
X137.16Y-62.23
X137.16Y-69.85
X137.16Y-251.46
X137.16Y-254.0
X137.16Y-270.51
X137.16Y-273.05
X138.425Y-167.635
X138.425Y-182.875
X138.425Y-213.355
X138.425Y-228.595
X138.425Y-236.23
X138.425Y-243.85
X138.43Y-147.32
X138.43Y-162.56
X138.43Y-190.5
X138.43Y-205.74
X138.435Y-106.675
X138.435Y-121.915
X138.435Y-133.36
X138.435Y-140.98
X138.435Y-283.22
X138.435Y-290.84
X139.66Y-57.15
X139.7Y-62.23
X139.7Y-69.85
X139.7Y-251.46
X139.7Y-254.0
X139.7Y-270.51
X139.7Y-273.05
X140.965Y-167.635
X140.965Y-182.875
X140.965Y-213.355
X140.965Y-228.595
X140.965Y-236.23
X140.965Y-243.85
X140.97Y-147.32
X140.97Y-162.56
X140.97Y-190.5
X140.97Y-205.74
X140.975Y-106.675
X140.975Y-121.915
X140.975Y-133.36
X140.975Y-140.98
X140.975Y-283.22
X140.975Y-290.84
X142.24Y-62.23
X142.24Y-69.85
X142.24Y-251.46
X142.24Y-254.0
X143.505Y-167.635
X143.505Y-182.875
X143.505Y-213.355
X143.505Y-228.595
X143.505Y-236.23
X143.505Y-243.85
X143.51Y-147.32
X143.51Y-162.56
X143.51Y-190.5
X143.51Y-205.74
X143.515Y-106.675
X143.515Y-121.915
X143.515Y-133.36
X143.515Y-140.98
X143.515Y-283.22
X143.515Y-290.84
X144.78Y-62.23
X144.78Y-69.85
X144.78Y-251.46
X144.78Y-254.0
X146.045Y-167.635
X146.045Y-182.875
X146.045Y-213.355
X146.045Y-228.595
X146.045Y-236.23
X146.045Y-243.85
X146.05Y-147.32
X146.05Y-162.56
X146.05Y-190.5
X146.05Y-205.74
X146.055Y-106.675
X146.055Y-121.915
X146.055Y-133.36
X146.055Y-140.98
X147.32Y-62.23
X147.32Y-69.85
X147.32Y-251.46
X147.32Y-254.0
X148.585Y-167.635
X148.585Y-182.875
X148.585Y-213.355
X148.585Y-228.595
X148.585Y-236.23
X148.585Y-243.85
X148.59Y-147.32
X148.59Y-162.56
X148.59Y-190.5
X148.59Y-205.74
X148.595Y-106.675
X148.595Y-121.915
X148.65Y-266.065
X149.86Y-62.23
X149.86Y-69.85
X149.86Y-251.46
X149.86Y-254.0
X151.125Y-167.635
X151.125Y-182.875
X151.125Y-213.355
X151.125Y-228.595
X151.125Y-236.23
X151.125Y-243.85
X151.13Y-147.32
X151.13Y-162.56
X151.13Y-190.5
X151.13Y-205.74
X151.135Y-106.675
X151.135Y-121.915
X151.135Y-269.25
X151.135Y-276.87
X151.135Y-283.22
X151.135Y-290.84
X152.4Y-251.46
X152.4Y-254.0
X153.665Y-167.635
X153.665Y-182.875
X153.665Y-213.355
X153.665Y-228.595
X153.665Y-236.23
X153.665Y-243.85
X153.67Y-147.32
X153.67Y-162.56
X153.67Y-190.5
X153.67Y-205.74
X153.675Y-106.675
X153.675Y-121.915
X153.675Y-269.25
X153.675Y-276.87
X153.675Y-283.22
X153.675Y-290.84
X153.71Y-209.55
X154.94Y-251.46
X154.94Y-254.0
X156.15Y-266.065
X156.205Y-167.635
X156.205Y-182.875
X156.205Y-213.355
X156.205Y-228.595
X156.205Y-236.23
X156.205Y-243.85
X156.21Y-147.32
X156.21Y-162.56
X156.21Y-190.5
X156.21Y-205.74
X156.215Y-106.675
X156.215Y-121.915
X156.215Y-269.25
X156.215Y-276.87
X156.215Y-283.22
X156.215Y-290.84
X157.48Y-62.23
X157.48Y-69.85
X157.48Y-251.46
X157.48Y-254.0
X157.52Y-57.15
X158.71Y-209.55
X158.745Y-167.635
X158.745Y-182.875
X158.745Y-213.355
X158.745Y-228.595
X158.745Y-236.23
X158.745Y-243.85
X158.75Y-133.35
X158.75Y-140.97
X158.75Y-147.32
X158.75Y-162.56
X158.75Y-190.5
X158.75Y-205.74
X158.755Y-106.675
X158.755Y-121.915
X158.755Y-269.25
X158.755Y-276.87
X158.755Y-283.22
X158.755Y-290.84
X160.02Y-62.23
X160.02Y-69.85
X161.285Y-167.635
X161.285Y-182.875
X161.285Y-213.355
X161.285Y-228.595
X161.29Y-81.28
X161.29Y-88.9
X161.29Y-91.44
X161.29Y-99.06
X161.29Y-133.35
X161.29Y-140.97
X161.29Y-147.32
X161.29Y-162.56
X161.29Y-190.5
X161.29Y-205.74
X161.295Y-269.25
X161.295Y-276.87
X161.295Y-283.22
X161.295Y-290.84
X162.52Y-57.15
X162.56Y-62.23
X162.56Y-69.85
X163.825Y-167.635
X163.825Y-182.875
X163.825Y-213.355
X163.825Y-228.595
X163.83Y-133.35
X163.83Y-140.97
X163.83Y-147.32
X163.83Y-162.56
X163.83Y-190.5
X163.83Y-205.74
X163.83Y-251.46
X163.83Y-259.08
X163.835Y-269.25
X163.835Y-276.87
X163.835Y-283.22
X163.835Y-290.84
X165.1Y-62.23
X165.1Y-69.85
X165.1Y-87.63
X166.355Y-76.21
X166.355Y-83.83
X166.365Y-91.44
X166.365Y-99.06
X166.365Y-167.635
X166.365Y-182.875
X166.365Y-213.355
X166.365Y-228.595
X166.37Y-133.35
X166.37Y-140.97
X166.37Y-147.32
X166.37Y-162.56
X166.37Y-190.5
X166.37Y-205.74
X166.37Y-251.46
X166.37Y-259.08
X166.375Y-269.25
X166.375Y-276.87
X166.375Y-283.22
X166.375Y-290.84
X167.64Y-62.23
X167.64Y-69.85
X167.64Y-236.22
X167.64Y-243.84
X167.72Y-57.15
X168.895Y-76.21
X168.895Y-83.83
X168.905Y-91.44
X168.905Y-99.06
X168.905Y-167.635
X168.905Y-182.875
X168.905Y-213.355
X168.905Y-228.595
X168.91Y-106.68
X168.91Y-114.3
X168.91Y-119.5
X168.91Y-127.0
X168.91Y-133.35
X168.91Y-140.97
X168.91Y-147.32
X168.91Y-162.56
X168.91Y-190.5
X168.91Y-205.74
X168.91Y-251.46
X168.91Y-259.08
X170.1Y-87.63
X170.18Y-62.23
X170.18Y-69.85
X170.18Y-236.22
X170.18Y-243.84
X171.435Y-76.21
X171.435Y-83.83
X171.445Y-91.44
X171.445Y-99.06
X171.445Y-167.635
X171.445Y-182.875
X171.445Y-213.355
X171.445Y-228.595
X171.45Y-106.68
X171.45Y-114.3
X171.45Y-133.35
X171.45Y-140.97
X171.45Y-147.32
X171.45Y-162.56
X171.45Y-190.5
X171.45Y-205.74
X171.45Y-251.46
X171.45Y-259.08
X172.72Y-57.15
X172.72Y-62.23
X172.72Y-69.85
X172.72Y-119.44
X172.72Y-126.94
X172.72Y-236.22
X172.72Y-243.84
X173.975Y-76.21
X173.975Y-83.83
X173.985Y-91.44
X173.985Y-99.06
X173.985Y-167.635
X173.985Y-182.875
X173.985Y-213.355
X173.985Y-228.595
X173.99Y-106.68
X173.99Y-114.3
X173.99Y-133.35
X173.99Y-140.97
X173.99Y-147.32
X173.99Y-162.56
X173.99Y-190.5
X173.99Y-205.74
X173.99Y-251.46
X173.99Y-259.08
X175.26Y-236.22
X175.26Y-243.84
X176.515Y-76.21
X176.515Y-83.83
X176.525Y-91.44
X176.525Y-99.06
X176.525Y-167.635
X176.525Y-182.875
X176.525Y-213.355
X176.525Y-228.595
X176.53Y-106.68
X176.53Y-114.3
X176.53Y-119.5
X176.53Y-127.0
X176.53Y-147.32
X176.53Y-162.56
X176.53Y-190.5
X176.53Y-205.74
X176.53Y-251.46
X176.53Y-259.08
X177.8Y-236.22
X177.8Y-243.84
X179.055Y-76.21
X179.055Y-83.83
X179.065Y-91.44
X179.065Y-99.06
X179.065Y-167.635
X179.065Y-182.875
X179.065Y-213.355
X179.065Y-228.595
X179.07Y-106.68
X179.07Y-114.3
X179.07Y-147.32
X179.07Y-162.56
X179.07Y-190.5
X179.07Y-205.74
X179.07Y-251.46
X179.07Y-259.08
X179.07Y-275.59
X179.07Y-278.13
X179.07Y-287.02
X179.07Y-289.56
X180.34Y-62.23
X180.34Y-69.85
X180.34Y-119.5
X180.34Y-127.0
X180.34Y-138.43
X180.34Y-236.22
X180.34Y-243.84
X181.595Y-76.21
X181.595Y-83.83
X181.605Y-91.44
X181.605Y-99.06
X181.61Y-106.68
X181.61Y-114.3
X181.61Y-275.59
X181.61Y-278.13
X181.61Y-287.02
X181.61Y-289.56
X182.88Y-62.23
X182.88Y-69.85
X184.135Y-76.21
X184.135Y-83.83
X184.145Y-91.44
X184.145Y-99.06
X184.15Y-106.68
X184.15Y-114.3
X184.15Y-119.5
X184.15Y-127.0
X184.15Y-275.59
X184.15Y-278.13
X184.15Y-287.02
X184.15Y-289.56
X185.34Y-138.43
X185.42Y-62.23
X185.42Y-69.85
X186.685Y-91.44
X186.685Y-99.06
X186.69Y-106.68
X186.69Y-114.3
X186.69Y-152.4
X186.69Y-160.02
X186.69Y-190.5
X186.69Y-198.12
X186.69Y-205.74
X186.69Y-213.36
X186.69Y-220.98
X186.69Y-228.6
X186.69Y-236.22
X186.69Y-243.84
X186.69Y-251.46
X186.69Y-259.08
X186.69Y-275.59
X186.69Y-278.13
X186.69Y-287.02
X186.69Y-289.56
X187.96Y-62.23
X187.96Y-69.85
X187.96Y-119.5
X187.96Y-127.0
X189.225Y-91.44
X189.225Y-99.06
X189.23Y-140.97
X189.23Y-148.59
X189.23Y-152.4
X189.23Y-160.02
X189.23Y-190.5
X189.23Y-198.12
X189.23Y-205.74
X189.23Y-213.36
X189.23Y-220.98
X189.23Y-228.6
X189.23Y-236.22
X189.23Y-243.84
X189.23Y-251.46
X189.23Y-259.08
X189.23Y-275.59
X189.23Y-278.13
X189.23Y-287.02
X189.23Y-289.56
X190.5Y-62.23
X190.5Y-69.85
X191.77Y-119.5
X191.77Y-127.0
X191.77Y-140.97
X191.77Y-148.59
X191.77Y-152.4
X191.77Y-160.02
X191.77Y-190.5
X191.77Y-198.12
X191.77Y-205.74
X191.77Y-213.36
X191.77Y-220.98
X191.77Y-228.6
X191.77Y-236.22
X191.77Y-243.84
X191.77Y-251.46
X191.77Y-259.08
X191.77Y-275.59
X191.77Y-278.13
X191.77Y-287.02
X191.77Y-289.56
X193.04Y-62.23
X193.04Y-69.85
X194.31Y-132.08
X194.31Y-139.7
X194.31Y-152.4
X194.31Y-160.02
X194.31Y-167.64
X194.31Y-182.88
X194.31Y-190.5
X194.31Y-198.12
X194.31Y-205.74
X194.31Y-213.36
X194.31Y-220.98
X194.31Y-228.6
X194.31Y-236.22
X194.31Y-243.84
X194.31Y-251.46
X194.31Y-259.08
X194.31Y-275.59
X194.31Y-278.13
X194.31Y-287.02
X194.31Y-289.56
X195.58Y-62.23
X195.58Y-69.85
X195.58Y-119.5
X195.58Y-127.0
X196.85Y-76.2
X196.85Y-91.44
X196.85Y-152.4
X196.85Y-160.02
X196.85Y-167.64
X196.85Y-182.88
X196.85Y-190.5
X196.85Y-198.12
X196.85Y-205.74
X196.85Y-213.36
X196.85Y-220.98
X196.85Y-228.6
X196.85Y-236.22
X196.85Y-243.84
X196.85Y-251.46
X196.85Y-259.08
X196.85Y-275.59
X196.85Y-278.13
X196.85Y-287.02
X196.85Y-289.56
X196.855Y-99.055
X196.855Y-114.295
X199.39Y-76.2
X199.39Y-91.44
X199.39Y-152.4
X199.39Y-160.02
X199.39Y-167.64
X199.39Y-182.88
X199.39Y-190.5
X199.39Y-198.12
X199.39Y-205.74
X199.39Y-213.36
X199.39Y-220.98
X199.39Y-228.6
X199.39Y-236.22
X199.39Y-243.84
X199.39Y-251.46
X199.39Y-259.08
X199.39Y-275.59
X199.39Y-278.13
X199.39Y-287.02
X199.39Y-289.56
X199.395Y-99.055
X199.395Y-114.295
X201.93Y-76.2
X201.93Y-91.44
X201.93Y-133.35
X201.93Y-140.97
X201.93Y-152.4
X201.93Y-160.02
X201.93Y-167.64
X201.93Y-182.88
X201.93Y-190.5
X201.93Y-198.12
X201.93Y-205.74
X201.93Y-213.36
X201.93Y-220.98
X201.93Y-228.6
X201.93Y-236.22
X201.93Y-243.84
X201.93Y-251.46
X201.93Y-259.08
X201.93Y-275.59
X201.93Y-278.13
X201.93Y-287.02
X201.93Y-289.56
X201.935Y-99.055
X201.935Y-114.295
X204.47Y-76.2
X204.47Y-91.44
X204.47Y-133.35
X204.47Y-140.97
X204.47Y-152.4
X204.47Y-160.02
X204.47Y-167.64
X204.47Y-182.88
X204.47Y-275.59
X204.47Y-278.13
X204.47Y-287.02
X204.47Y-289.56
X204.475Y-99.055
X204.475Y-114.295
X204.55Y-162.56
X207.01Y-76.2
X207.01Y-91.44
X207.01Y-133.35
X207.01Y-140.97
X207.01Y-152.4
X207.01Y-160.02
X207.01Y-167.64
X207.01Y-182.88
X207.01Y-275.59
X207.01Y-278.13
X207.01Y-287.02
X207.01Y-289.56
X207.015Y-99.055
X207.015Y-114.295
X209.55Y-76.2
X209.55Y-91.44
X209.55Y-133.35
X209.55Y-140.97
X209.55Y-152.4
X209.55Y-160.02
X209.55Y-162.56
X209.55Y-167.64
X209.55Y-182.88
X209.55Y-190.5
X209.55Y-198.12
X209.55Y-205.74
X209.55Y-213.36
X209.55Y-220.98
X209.55Y-228.6
X209.55Y-236.22
X209.55Y-243.84
X209.55Y-275.59
X209.55Y-278.13
X209.55Y-287.02
X209.55Y-289.56
X209.555Y-99.055
X209.555Y-114.295
X210.82Y-248.92
X210.82Y-251.46
X212.09Y-76.2
X212.09Y-91.44
X212.09Y-133.35
X212.09Y-140.97
X212.09Y-167.64
X212.09Y-182.88
X212.09Y-190.5
X212.09Y-198.12
X212.09Y-205.74
X212.09Y-213.36
X212.09Y-220.98
X212.09Y-228.6
X212.09Y-236.22
X212.09Y-243.84
X212.095Y-99.055
X212.095Y-114.295
X213.36Y-248.92
X213.36Y-251.46
X214.63Y-76.2
X214.63Y-91.44
X214.63Y-133.35
X214.63Y-140.97
X214.63Y-167.64
X214.63Y-182.88
X214.63Y-190.5
X214.63Y-198.12
X214.63Y-205.74
X214.63Y-213.36
X214.63Y-220.98
X214.63Y-228.6
X214.63Y-236.22
X214.63Y-243.84
X214.635Y-99.055
X214.635Y-114.295
X217.17Y-76.2
X217.17Y-91.44
X217.17Y-133.35
X217.17Y-140.97
X217.17Y-167.64
X217.17Y-182.88
X217.17Y-190.5
X217.17Y-198.12
X217.17Y-205.74
X217.17Y-213.36
X217.17Y-220.98
X217.17Y-228.6
X217.17Y-236.22
X217.17Y-243.84
X217.175Y-99.055
X217.175Y-114.295
X219.71Y-76.2
X219.71Y-91.44
X219.71Y-133.35
X219.71Y-140.97
X219.71Y-167.64
X219.71Y-182.88
X219.71Y-190.5
X219.71Y-198.12
X219.71Y-205.74
X219.71Y-213.36
X219.71Y-220.98
X219.71Y-228.6
X219.71Y-236.22
X219.71Y-243.84
X219.715Y-99.055
X219.715Y-114.295
X219.75Y-217.17
X222.25Y-76.2
X222.25Y-91.44
X222.25Y-167.64
X222.25Y-182.88
X222.25Y-190.5
X222.25Y-198.12
X222.25Y-205.74
X222.25Y-213.36
X222.25Y-220.98
X222.25Y-228.6
X222.25Y-236.22
X222.25Y-243.84
X222.25Y-251.46
X222.25Y-266.7
X222.255Y-99.055
X222.255Y-114.295
X224.75Y-217.17
X224.79Y-76.2
X224.79Y-91.44
X224.79Y-167.64
X224.79Y-182.88
X224.79Y-190.5
X224.79Y-198.12
X224.79Y-205.74
X224.79Y-213.36
X224.79Y-220.98
X224.79Y-228.6
X224.79Y-236.22
X224.79Y-243.84
X224.79Y-251.46
X224.79Y-266.7
X224.795Y-99.055
X224.795Y-114.295
X227.33Y-167.64
X227.33Y-182.88
X227.33Y-251.46
X227.33Y-266.7
X229.87Y-167.64
X229.87Y-182.88
X229.87Y-242.57
X229.87Y-251.46
X229.87Y-266.7
X231.14Y-62.27
X231.14Y-67.27
X231.14Y-77.51
X231.14Y-82.51
X231.14Y-92.75
X231.14Y-97.75
X231.14Y-107.99
X231.14Y-112.99
X231.14Y-190.5
X231.14Y-198.12
X232.41Y-121.92
X232.41Y-129.54
X232.41Y-167.64
X232.41Y-182.88
X232.41Y-220.98
X232.41Y-236.22
X232.41Y-242.57
X232.41Y-251.46
X232.41Y-266.7
X234.95Y-60.96
X234.95Y-68.58
X234.95Y-76.2
X234.95Y-83.82
X234.95Y-91.44
X234.95Y-99.06
X234.95Y-106.68
X234.95Y-114.3
X234.95Y-121.92
X234.95Y-129.54
X234.95Y-167.64
X234.95Y-182.88
X234.95Y-220.98
X234.95Y-236.22
X234.95Y-242.57
X234.95Y-251.46
X234.95Y-266.7
X234.95Y-275.59
X234.95Y-278.13
X234.95Y-287.02
X234.95Y-289.56
X237.49Y-60.96
X237.49Y-68.58
X237.49Y-76.2
X237.49Y-83.82
X237.49Y-91.44
X237.49Y-99.06
X237.49Y-106.68
X237.49Y-114.3
X237.49Y-121.92
X237.49Y-129.54
X237.49Y-137.16
X237.49Y-144.78
X237.49Y-152.4
X237.49Y-160.02
X237.49Y-167.64
X237.49Y-182.88
X237.49Y-220.98
X237.49Y-236.22
X237.49Y-242.57
X237.49Y-251.46
X237.49Y-266.7
X237.49Y-275.59
X237.49Y-278.13
X237.49Y-287.02
X237.49Y-289.56
X240.03Y-60.96
X240.03Y-68.58
X240.03Y-76.2
X240.03Y-83.82
X240.03Y-91.44
X240.03Y-99.06
X240.03Y-106.68
X240.03Y-114.3
X240.03Y-121.92
X240.03Y-129.54
X240.03Y-137.16
X240.03Y-144.78
X240.03Y-152.4
X240.03Y-160.02
X240.03Y-167.64
X240.03Y-182.88
X240.03Y-220.98
X240.03Y-236.22
X240.03Y-242.57
X240.03Y-251.46
X240.03Y-266.7
X240.03Y-275.59
X240.03Y-278.13
X240.03Y-287.02
X240.03Y-289.56
X240.09Y-133.35
X242.57Y-60.96
X242.57Y-68.58
X242.57Y-76.2
X242.57Y-83.82
X242.57Y-91.44
X242.57Y-99.06
X242.57Y-106.68
X242.57Y-114.3
X242.57Y-121.92
X242.57Y-129.54
X242.57Y-137.16
X242.57Y-144.78
X242.57Y-152.4
X242.57Y-160.02
X242.57Y-162.56
X242.57Y-167.64
X242.57Y-182.88
X242.57Y-220.98
X242.57Y-236.22
X242.57Y-240.03
X242.57Y-242.57
X242.57Y-251.46
X242.57Y-266.7
X242.57Y-275.59
X242.57Y-278.13
X242.57Y-287.02
X242.57Y-289.56
X245.11Y-60.96
X245.11Y-68.58
X245.11Y-76.2
X245.11Y-83.82
X245.11Y-91.44
X245.11Y-99.06
X245.11Y-106.68
X245.11Y-114.3
X245.11Y-121.92
X245.11Y-129.54
X245.11Y-137.16
X245.11Y-144.78
X245.11Y-152.4
X245.11Y-160.02
X245.11Y-220.98
X245.11Y-236.22
X245.11Y-240.03
X245.11Y-242.57
X245.11Y-251.46
X245.11Y-266.7
X245.11Y-275.59
X245.11Y-278.13
X245.11Y-287.02
X245.11Y-289.56
X246.38Y-209.55
X246.38Y-214.45
X247.59Y-133.35
X247.65Y-60.96
X247.65Y-68.58
X247.65Y-76.2
X247.65Y-83.82
X247.65Y-91.44
X247.65Y-99.06
X247.65Y-106.68
X247.65Y-114.3
X247.65Y-121.92
X247.65Y-129.54
X247.65Y-137.16
X247.65Y-144.78
X247.65Y-152.4
X247.65Y-160.02
X247.65Y-220.98
X247.65Y-236.22
X247.65Y-240.03
X247.65Y-242.57
X247.65Y-251.46
X247.65Y-266.7
X247.65Y-275.59
X247.65Y-278.13
X247.65Y-287.02
X247.65Y-289.56
X248.92Y-162.56
X250.19Y-60.96
X250.19Y-68.58
X250.19Y-76.2
X250.19Y-83.82
X250.19Y-91.44
X250.19Y-99.06
X250.19Y-106.68
X250.19Y-114.3
X250.19Y-121.92
X250.19Y-129.54
X250.19Y-133.35
X250.19Y-137.16
X250.19Y-144.78
X250.19Y-152.4
X250.19Y-160.02
X250.19Y-167.64
X250.19Y-182.88
X250.19Y-220.98
X250.19Y-236.22
X250.19Y-240.03
X250.19Y-242.57
X250.19Y-251.46
X250.19Y-266.7
X250.19Y-275.59
X250.19Y-278.13
X250.19Y-287.02
X250.19Y-289.56
X252.73Y-60.96
X252.73Y-68.58
X252.73Y-76.2
X252.73Y-83.82
X252.73Y-91.44
X252.73Y-99.06
X252.73Y-106.68
X252.73Y-114.3
X252.73Y-121.92
X252.73Y-129.54
X252.73Y-137.16
X252.73Y-144.78
X252.73Y-152.4
X252.73Y-160.02
X252.73Y-167.64
X252.73Y-182.88
X252.73Y-205.74
X252.73Y-213.36
X252.73Y-220.98
X252.73Y-236.22
X252.73Y-242.57
X252.73Y-251.46
X252.73Y-266.7
X252.73Y-275.59
X252.73Y-278.13
X252.73Y-287.02
X252.73Y-289.56
X255.27Y-121.92
X255.27Y-129.54
X255.27Y-137.16
X255.27Y-144.78
X255.27Y-152.4
X255.27Y-160.02
X255.27Y-167.64
X255.27Y-182.88
X255.27Y-190.5
X255.27Y-198.12
X255.27Y-205.74
X255.27Y-213.36
X255.27Y-220.98
X255.27Y-236.22
X255.27Y-242.57
X255.27Y-251.46
X255.27Y-266.7
X255.27Y-275.59
X255.27Y-278.13
X255.27Y-287.02
X255.27Y-289.56
X256.54Y-62.27
X256.54Y-67.27
X256.54Y-77.51
X256.54Y-82.51
X256.54Y-92.75
X256.54Y-97.75
X256.54Y-107.99
X256.54Y-112.99
X257.81Y-133.35
X257.81Y-152.4
X257.81Y-160.02
X257.81Y-167.64
X257.81Y-182.88
X257.81Y-190.5
X257.81Y-198.12
X257.81Y-205.74
X257.81Y-213.36
X257.81Y-220.98
X257.81Y-236.22
X257.81Y-242.57
X257.81Y-251.46
X257.81Y-266.7
X257.81Y-275.59
X257.81Y-278.13
X257.81Y-287.02
X257.81Y-289.56
X260.35Y-60.96
X260.35Y-68.58
X260.35Y-76.2
X260.35Y-83.82
X260.35Y-91.44
X260.35Y-99.06
X260.35Y-106.68
X260.35Y-114.3
X260.35Y-167.64
X260.35Y-182.88
X260.35Y-190.5
X260.35Y-198.12
X260.35Y-205.74
X260.35Y-213.36
X260.35Y-220.98
X260.35Y-236.22
X260.35Y-242.57
X260.35Y-251.46
X260.35Y-266.7
X260.35Y-275.59
X260.35Y-278.13
X260.35Y-287.02
X260.35Y-289.56
X262.89Y-60.96
X262.89Y-68.58
X262.89Y-76.2
X262.89Y-83.82
X262.89Y-91.44
X262.89Y-99.06
X262.89Y-106.68
X262.89Y-114.3
X262.89Y-167.64
X262.89Y-182.88
X262.89Y-186.69
X262.89Y-190.5
X262.89Y-198.12
X262.89Y-205.74
X262.89Y-213.36
X262.89Y-242.57
X262.89Y-251.46
X262.89Y-266.7
X262.89Y-275.59
X262.89Y-278.13
X262.89Y-287.02
X262.89Y-289.56
X265.43Y-60.96
X265.43Y-68.58
X265.43Y-76.2
X265.43Y-83.82
X265.43Y-91.44
X265.43Y-99.06
X265.43Y-106.68
X265.43Y-114.3
X265.43Y-121.92
X265.43Y-129.54
X265.43Y-137.16
X265.43Y-144.78
X265.43Y-152.4
X265.43Y-160.02
X265.43Y-167.64
X265.43Y-182.88
X265.43Y-186.69
X265.43Y-190.5
X265.43Y-198.12
X265.43Y-205.74
X265.43Y-213.36
X265.43Y-251.46
X265.43Y-266.7
X265.43Y-275.59
X265.43Y-278.13
X265.43Y-287.02
X265.43Y-289.56
X266.7Y-219.71
X266.7Y-222.25
X267.97Y-60.96
X267.97Y-68.58
X267.97Y-76.2
X267.97Y-83.82
X267.97Y-91.44
X267.97Y-99.06
X267.97Y-106.68
X267.97Y-114.3
X267.97Y-121.92
X267.97Y-129.54
X267.97Y-137.16
X267.97Y-144.78
X267.97Y-152.4
X267.97Y-160.02
X267.97Y-167.64
X267.97Y-182.88
X267.97Y-190.5
X267.97Y-198.12
X267.97Y-205.74
X267.97Y-213.36
X267.97Y-251.46
X267.97Y-266.7
X267.97Y-287.02
X267.97Y-289.56
X269.24Y-219.71
X269.24Y-222.25
X269.24Y-228.6
X269.24Y-236.22
X270.51Y-60.96
X270.51Y-68.58
X270.51Y-76.2
X270.51Y-83.82
X270.51Y-91.44
X270.51Y-99.06
X270.51Y-106.68
X270.51Y-114.3
X270.51Y-121.92
X270.51Y-129.54
X270.51Y-137.16
X270.51Y-144.78
X270.51Y-152.4
X270.51Y-160.02
X270.51Y-167.64
X270.51Y-182.88
X270.51Y-190.5
X270.51Y-198.12
X270.51Y-205.74
X270.51Y-213.36
X270.51Y-251.46
X270.51Y-266.7
X270.51Y-287.02
X270.51Y-289.56
X270.63Y-133.35
X271.78Y-228.6
X271.78Y-236.22
X273.05Y-60.96
X273.05Y-68.58
X273.05Y-76.2
X273.05Y-83.82
X273.05Y-91.44
X273.05Y-99.06
X273.05Y-106.68
X273.05Y-114.3
X273.05Y-121.92
X273.05Y-129.54
X273.05Y-137.16
X273.05Y-144.78
X273.05Y-152.4
X273.05Y-160.02
X273.05Y-167.64
X273.05Y-182.88
X273.05Y-190.5
X273.05Y-198.12
X273.05Y-205.74
X273.05Y-213.36
X273.05Y-219.71
X273.05Y-222.25
X273.05Y-287.02
X273.05Y-289.56
X273.13Y-163.83
X274.32Y-228.6
X274.32Y-236.22
X275.59Y-60.96
X275.59Y-68.58
X275.59Y-76.2
X275.59Y-83.82
X275.59Y-91.44
X275.59Y-99.06
X275.59Y-106.68
X275.59Y-114.3
X275.59Y-121.92
X275.59Y-129.54
X275.59Y-137.16
X275.59Y-144.78
X275.59Y-152.4
X275.59Y-160.02
X275.59Y-167.64
X275.59Y-182.88
X275.59Y-190.5
X275.59Y-198.12
X275.59Y-205.74
X275.59Y-213.36
X275.59Y-287.02
X275.59Y-289.56
X276.86Y-228.6
X276.86Y-236.22
X278.115Y-243.85
X278.115Y-251.47
X278.13Y-60.96
X278.13Y-68.58
X278.13Y-76.2
X278.13Y-83.82
X278.13Y-91.44
X278.13Y-99.06
X278.13Y-106.68
X278.13Y-114.3
X278.13Y-121.92
X278.13Y-129.54
X278.13Y-133.35
X278.13Y-137.16
X278.13Y-144.78
X278.13Y-152.4
X278.13Y-160.02
X278.13Y-163.83
X278.13Y-167.64
X278.13Y-182.88
X278.13Y-190.5
X278.13Y-198.12
X278.13Y-240.03
X278.13Y-271.78
X278.13Y-279.4
X278.13Y-287.02
X278.13Y-289.56
X278.135Y-259.09
X278.135Y-266.71
X279.4Y-228.6
X279.4Y-236.22
X280.655Y-243.85
X280.655Y-251.47
X280.67Y-121.92
X280.67Y-129.54
X280.67Y-137.16
X280.67Y-144.78
X280.67Y-152.4
X280.67Y-160.02
X280.67Y-167.64
X280.67Y-182.88
X280.67Y-219.71
X280.67Y-222.25
X280.67Y-240.03
X280.67Y-271.78
X280.67Y-279.4
X280.67Y-287.02
X280.67Y-289.56
X280.675Y-259.09
X280.675Y-266.71
X281.94Y-62.27
X281.94Y-67.27
X281.94Y-77.51
X281.94Y-82.51
X281.94Y-92.75
X281.94Y-97.75
X281.94Y-108.03
X281.94Y-113.03
X281.94Y-228.6
X281.94Y-236.22
X283.195Y-243.85
X283.195Y-251.47
X283.21Y-121.92
X283.21Y-129.54
X283.21Y-137.16
X283.21Y-144.78
X283.21Y-152.4
X283.21Y-160.02
X283.21Y-167.64
X283.21Y-182.88
X283.21Y-271.78
X283.21Y-279.4
X283.21Y-287.02
X283.21Y-289.56
X283.215Y-259.09
X283.215Y-266.71
X284.48Y-228.6
X284.48Y-236.22
X285.735Y-243.85
X285.735Y-251.47
X285.75Y-60.96
X285.75Y-68.58
X285.75Y-76.2
X285.75Y-83.82
X285.75Y-91.44
X285.75Y-99.06
X285.75Y-106.68
X285.75Y-114.3
X285.75Y-198.12
X285.75Y-205.74
X285.75Y-213.36
X285.75Y-220.98
X285.75Y-271.78
X285.75Y-279.4
X285.755Y-259.09
X285.755Y-266.71
X285.83Y-224.79
X288.275Y-243.85
X288.275Y-251.47
X288.29Y-60.96
X288.29Y-68.58
X288.29Y-76.2
X288.29Y-83.82
X288.29Y-91.44
X288.29Y-99.06
X288.29Y-106.68
X288.29Y-114.3
X288.29Y-198.12
X288.29Y-205.74
X288.29Y-213.36
X288.29Y-220.98
X288.29Y-271.78
X288.29Y-279.4
X288.295Y-259.09
X288.295Y-266.71
X288.35Y-148.59
X288.41Y-133.985
X289.56Y-240.03
X289.56Y-288.29
X290.815Y-243.85
X290.815Y-251.47
X290.83Y-60.96
X290.83Y-68.58
X290.83Y-76.2
X290.83Y-83.82
X290.83Y-91.44
X290.83Y-99.06
X290.83Y-106.68
X290.83Y-114.3
X290.83Y-137.16
X290.83Y-144.78
X290.83Y-163.83
X290.83Y-167.64
X290.83Y-175.26
X290.83Y-182.88
X290.83Y-190.5
X290.83Y-198.12
X290.83Y-205.74
X290.83Y-213.36
X290.83Y-220.98
X290.83Y-224.79
X290.83Y-228.6
X290.83Y-236.22
X290.83Y-271.78
X290.83Y-279.4
X290.835Y-123.2
X290.835Y-130.82
X290.835Y-259.09
X290.835Y-266.71
X293.355Y-243.85
X293.355Y-251.47
X293.37Y-60.96
X293.37Y-68.58
X293.37Y-76.2
X293.37Y-83.82
X293.37Y-91.44
X293.37Y-99.06
X293.37Y-106.68
X293.37Y-114.3
X293.37Y-137.16
X293.37Y-144.78
X293.37Y-167.64
X293.37Y-175.26
X293.37Y-182.88
X293.37Y-190.5
X293.37Y-198.12
X293.37Y-205.74
X293.37Y-213.36
X293.37Y-220.98
X293.37Y-228.6
X293.37Y-236.22
X293.37Y-271.78
X293.37Y-279.4
X293.375Y-123.2
X293.375Y-130.82
X293.375Y-259.09
X293.375Y-266.71
X295.85Y-148.59
X295.895Y-243.85
X295.895Y-251.47
X295.91Y-60.96
X295.91Y-68.58
X295.91Y-76.2
X295.91Y-83.82
X295.91Y-91.44
X295.91Y-99.06
X295.91Y-106.68
X295.91Y-114.3
X295.91Y-133.985
X295.91Y-137.16
X295.91Y-144.78
X295.91Y-167.64
X295.91Y-175.26
X295.91Y-182.88
X295.91Y-190.5
X295.91Y-198.12
X295.91Y-205.74
X295.91Y-213.36
X295.91Y-220.98
X295.91Y-228.6
X295.91Y-236.22
X295.91Y-254.0
X295.91Y-271.78
X295.91Y-279.4
X295.915Y-123.2
X295.915Y-130.82
X295.99Y-179.07
X297.18Y-240.03
X297.18Y-288.29
X298.45Y-60.96
X298.45Y-68.58
X298.45Y-76.2
X298.45Y-83.82
X298.45Y-91.44
X298.45Y-99.06
X298.45Y-106.68
X298.45Y-114.3
X298.45Y-133.35
X298.45Y-137.16
X298.45Y-144.78
X298.45Y-148.59
X298.45Y-152.4
X298.45Y-163.83
X298.45Y-167.64
X298.45Y-175.26
X298.45Y-182.88
X298.45Y-190.5
X298.45Y-198.12
X298.45Y-205.74
X298.45Y-213.36
X298.45Y-220.98
X298.45Y-228.6
X298.45Y-236.22
X298.455Y-123.2
X298.455Y-130.82
X298.49Y-157.48
X300.99Y-60.96
X300.99Y-68.58
X300.99Y-76.2
X300.99Y-83.82
X300.99Y-91.44
X300.99Y-99.06
X300.99Y-106.68
X300.99Y-114.3
X300.99Y-137.16
X300.99Y-144.78
X300.99Y-154.94
X300.99Y-167.64
X300.99Y-175.26
X300.99Y-179.07
X300.99Y-182.88
X300.99Y-190.5
X300.99Y-198.12
X300.99Y-205.74
X300.99Y-213.36
X300.99Y-220.98
X300.99Y-228.6
X300.99Y-236.22
X300.995Y-123.2
X300.995Y-130.82
X303.49Y-157.48
X303.53Y-60.96
X303.53Y-68.58
X303.53Y-76.2
X303.53Y-83.82
X303.53Y-91.44
X303.53Y-99.06
X303.53Y-106.68
X303.53Y-114.3
X303.53Y-119.38
X303.53Y-137.16
X303.53Y-144.78
X303.53Y-152.4
X303.53Y-167.64
X303.53Y-175.26
X303.53Y-182.88
X303.53Y-190.5
X303.53Y-228.6
X303.53Y-236.22
X303.53Y-240.03
X303.53Y-243.84
X303.53Y-251.46
X303.53Y-254.0
X303.53Y-271.78
X303.53Y-279.4
X303.535Y-123.2
X303.535Y-130.82
X303.535Y-259.09
X303.535Y-266.71
X306.07Y-133.35
X306.07Y-137.16
X306.07Y-144.78
X306.07Y-148.59
X306.07Y-167.64
X306.07Y-175.26
X306.07Y-182.88
X306.07Y-190.5
X306.07Y-228.6
X306.07Y-236.22
X306.07Y-240.03
X306.07Y-243.84
X306.07Y-251.46
X306.07Y-271.78
X306.07Y-279.4
X306.07Y-288.29
X306.075Y-123.2
X306.075Y-130.82
X306.075Y-259.09
X306.075Y-266.71
X307.34Y-62.27
X307.34Y-67.27
X307.34Y-77.51
X307.34Y-82.51
X307.34Y-92.75
X307.34Y-97.75
X307.34Y-108.03
X307.34Y-113.03
X308.61Y-243.84
X308.61Y-251.46
X308.61Y-271.78
X308.61Y-279.4
X308.615Y-259.09
X308.615Y-266.71
X311.15Y-60.96
X311.15Y-68.58
X311.15Y-76.2
X311.15Y-83.82
X311.15Y-91.44
X311.15Y-99.06
X311.15Y-106.68
X311.15Y-114.3
X311.15Y-119.38
X311.15Y-198.12
X311.15Y-205.74
X311.15Y-213.36
X311.15Y-220.98
X311.15Y-243.84
X311.15Y-251.46
X311.15Y-271.78
X311.15Y-279.4
X311.155Y-259.09
X311.155Y-266.71
X312.42Y-137.16
X312.42Y-144.78
X312.42Y-228.6
X312.42Y-236.22
X313.69Y-60.96
X313.69Y-68.58
X313.69Y-76.2
X313.69Y-83.82
X313.69Y-91.44
X313.69Y-99.06
X313.69Y-106.68
X313.69Y-114.3
X313.69Y-127.0
X313.69Y-152.4
X313.69Y-160.02
X313.69Y-167.64
X313.69Y-175.26
X313.69Y-182.88
X313.69Y-190.5
X313.69Y-198.12
X313.69Y-205.74
X313.69Y-213.36
X313.69Y-220.98
X313.69Y-243.84
X313.69Y-251.46
X313.69Y-271.78
X313.69Y-279.4
X313.69Y-288.29
X313.695Y-259.09
X313.695Y-266.71
X314.96Y-137.16
X314.96Y-144.78
X314.96Y-228.6
X314.96Y-236.22
X316.23Y-60.96
X316.23Y-68.58
X316.23Y-76.2
X316.23Y-83.82
X316.23Y-91.44
X316.23Y-99.06
X316.23Y-106.68
X316.23Y-114.3
X316.23Y-124.46
X316.23Y-129.54
X316.23Y-152.4
X316.23Y-160.02
X316.23Y-167.64
X316.23Y-175.26
X316.23Y-182.88
X316.23Y-190.5
X316.23Y-198.12
X316.23Y-205.74
X316.23Y-213.36
X316.23Y-220.98
X316.23Y-243.84
X316.23Y-251.46
X316.23Y-271.78
X316.23Y-279.4
X316.235Y-259.09
X316.235Y-266.71
X317.5Y-137.16
X317.5Y-144.78
X317.5Y-228.6
X317.5Y-236.22
X318.77Y-60.96
X318.77Y-68.58
X318.77Y-76.2
X318.77Y-83.82
X318.77Y-91.44
X318.77Y-99.06
X318.77Y-106.68
X318.77Y-114.3
X318.77Y-152.4
X318.77Y-160.02
X318.77Y-167.64
X318.77Y-175.26
X318.77Y-182.88
X318.77Y-190.5
X318.77Y-198.12
X318.77Y-205.74
X318.77Y-213.36
X318.77Y-220.98
X318.77Y-243.84
X318.77Y-251.46
X318.77Y-271.78
X318.77Y-279.4
X318.775Y-259.09
X318.775Y-266.71
X318.85Y-133.35
X320.04Y-137.16
X320.04Y-144.78
X320.04Y-228.6
X320.04Y-236.22
X320.12Y-148.59
X321.31Y-60.96
X321.31Y-68.58
X321.31Y-76.2
X321.31Y-83.82
X321.31Y-91.44
X321.31Y-99.06
X321.31Y-106.68
X321.31Y-114.3
X321.31Y-152.4
X321.31Y-160.02
X321.31Y-167.64
X321.31Y-175.26
X321.31Y-182.88
X321.31Y-190.5
X321.31Y-198.12
X321.31Y-205.74
X321.31Y-213.36
X321.31Y-220.98
X321.31Y-243.84
X321.31Y-251.46
X321.31Y-271.78
X321.31Y-279.4
X322.58Y-137.16
X322.58Y-144.78
X322.58Y-228.6
X322.58Y-236.22
X322.66Y-238.76
X323.85Y-60.96
X323.85Y-68.58
X323.85Y-76.2
X323.85Y-83.82
X323.85Y-91.44
X323.85Y-99.06
X323.85Y-106.68
X323.85Y-114.3
X323.85Y-133.35
X323.85Y-152.4
X323.85Y-160.02
X323.85Y-167.64
X323.85Y-175.26
X323.85Y-182.88
X323.85Y-190.5
X323.85Y-198.12
X323.85Y-205.74
X323.85Y-213.36
X323.85Y-220.98
X323.93Y-179.07
X325.12Y-127.0
X325.12Y-137.16
X325.12Y-144.78
X325.12Y-148.59
X325.12Y-228.6
X325.12Y-236.22
X326.39Y-60.96
X326.39Y-68.58
X326.39Y-76.2
X326.39Y-83.82
X326.39Y-91.44
X326.39Y-99.06
X326.39Y-106.68
X326.39Y-114.3
X326.39Y-152.4
X326.39Y-160.02
X326.39Y-167.64
X326.39Y-175.26
X326.39Y-182.88
X326.39Y-190.5
X326.39Y-198.12
X326.39Y-205.74
X326.39Y-213.36
X326.39Y-220.98
X327.66Y-124.46
X327.66Y-129.54
X327.66Y-137.16
X327.66Y-144.78
X327.66Y-228.6
X327.66Y-236.22
X327.66Y-238.76
X327.66Y-243.84
X327.66Y-251.46
X328.93Y-60.96
X328.93Y-68.58
X328.93Y-76.2
X328.93Y-83.82
X328.93Y-91.44
X328.93Y-99.06
X328.93Y-106.68
X328.93Y-114.3
X328.93Y-152.4
X328.93Y-160.02
X328.93Y-167.64
X328.93Y-175.26
X328.93Y-179.07
X328.93Y-182.88
X328.93Y-190.5
X328.93Y-259.08
X328.93Y-266.7
X328.93Y-270.51
X328.93Y-274.32
X328.93Y-278.13
X328.93Y-281.94
X328.93Y-285.75
X328.93Y-289.56
X330.2Y-137.16
X330.2Y-144.78
X330.2Y-243.84
X330.2Y-251.46
X331.47Y-259.08
X331.47Y-266.7
X331.47Y-270.51
X331.47Y-274.32
X331.47Y-278.13
X331.47Y-281.94
X331.47Y-285.75
X331.47Y-289.56
X334.01Y-259.08
X334.01Y-266.7
X336.55Y-123.19
X336.55Y-130.81
X336.55Y-152.4
X336.55Y-160.02
X336.55Y-167.64
X336.55Y-175.26
X336.55Y-182.88
X336.55Y-190.5
X336.55Y-198.12
X336.55Y-205.74
X336.55Y-213.36
X336.55Y-220.98
X336.55Y-228.6
X336.55Y-236.22
X336.55Y-240.03
X336.55Y-243.84
X336.55Y-251.46
X336.55Y-259.08
X336.55Y-266.7
X337.82Y-142.24
X337.82Y-144.78
X339.09Y-123.19
X339.09Y-130.81
X339.09Y-152.4
X339.09Y-160.02
X339.09Y-167.64
X339.09Y-175.26
X339.09Y-182.88
X339.09Y-190.5
X339.09Y-198.12
X339.09Y-205.74
X339.09Y-213.36
X339.09Y-220.98
X339.09Y-228.6
X339.09Y-236.22
X339.09Y-243.84
X339.09Y-251.46
X339.09Y-259.08
X339.09Y-266.7
X340.36Y-142.24
X340.36Y-144.78
X340.44Y-179.07
X341.55Y-240.03
X341.63Y-123.31
X341.63Y-130.81
X341.63Y-152.4
X341.63Y-160.02
X341.63Y-167.64
X341.63Y-175.26
X341.63Y-182.88
X341.63Y-190.5
X341.63Y-198.12
X341.63Y-205.74
X341.63Y-213.36
X341.63Y-220.98
X341.63Y-228.6
X341.63Y-236.22
X341.63Y-243.84
X341.63Y-251.46
X341.63Y-259.08
X341.63Y-266.7
X341.71Y-208.28
X342.9Y-142.24
X342.9Y-144.78
X344.17Y-118.11
X344.17Y-123.19
X344.17Y-130.81
X344.17Y-152.4
X344.17Y-160.02
X344.17Y-167.64
X344.17Y-175.26
X344.17Y-182.88
X344.17Y-190.5
X344.17Y-198.12
X344.17Y-205.74
X344.17Y-213.36
X344.17Y-220.98
X344.17Y-228.6
X344.17Y-236.22
X344.17Y-243.84
X344.17Y-251.46
X344.17Y-259.08
X344.17Y-266.7
X345.44Y-142.24
X345.44Y-144.78
X345.44Y-179.07
X346.71Y-134.62
X346.71Y-137.16
X346.71Y-152.4
X346.71Y-160.02
X346.71Y-167.64
X346.71Y-175.26
X346.71Y-182.88
X346.71Y-190.5
X346.71Y-198.12
X346.71Y-205.74
X346.71Y-208.28
X346.71Y-213.36
X346.71Y-220.98
X346.71Y-228.6
X346.71Y-236.22
X346.71Y-243.84
X346.71Y-251.46
X346.71Y-259.08
X346.71Y-266.7
X347.98Y-142.24
X347.98Y-144.78
X349.25Y-152.4
X349.25Y-160.02
X349.25Y-167.64
X349.25Y-175.26
X349.25Y-182.88
X349.25Y-190.5
X349.25Y-198.12
X349.25Y-205.74
X349.25Y-213.36
X349.25Y-220.98
X349.25Y-228.6
X349.25Y-236.22
X349.25Y-243.84
X349.25Y-251.46
X350.52Y-142.24
X350.52Y-144.78
X351.79Y-118.11
X351.79Y-124.46
X351.79Y-129.46
X351.79Y-152.4
X351.79Y-160.02
X351.79Y-167.64
X351.79Y-175.26
X351.79Y-182.88
X351.79Y-190.5
X351.79Y-198.12
X351.79Y-205.74
X351.79Y-213.36
X351.79Y-220.98
X351.79Y-228.6
X351.79Y-236.22
X351.79Y-243.84
X351.79Y-251.46
X354.33Y-134.62
X354.33Y-137.16
T3
X140.97Y-96.52
X146.05Y-78.74
X151.13Y-96.52
X341.63Y-276.86
X341.63Y-285.75
X346.71Y-276.86
X346.71Y-285.75
X351.79Y-276.86
X351.79Y-285.75
T0
M30
