<?xml version="1.0" encoding="UTF-8" standalone="no"?>
<!-- Created with Inkscape (http://www.inkscape.org/) -->

<svg
   width="127.44012mm"
   height="38.629421mm"
   viewBox="0 0 127.44012 38.629421"
   version="1.1"
   id="svg1"
   inkscape:version="1.3 (0e150ed6c4, 2023-07-21)"
   sodipodi:docname="IskraDeltaLogo-wip.svg"
   xml:space="preserve"
   xmlns:inkscape="http://www.inkscape.org/namespaces/inkscape"
   xmlns:sodipodi="http://sodipodi.sourceforge.net/DTD/sodipodi-0.dtd"
   xmlns="http://www.w3.org/2000/svg"
   xmlns:svg="http://www.w3.org/2000/svg"><sodipodi:namedview
     id="namedview1"
     pagecolor="#ffffff"
     bordercolor="#000000"
     borderopacity="0.25"
     inkscape:showpageshadow="2"
     inkscape:pageopacity="0.0"
     inkscape:pagecheckerboard="0"
     inkscape:deskcolor="#d1d1d1"
     inkscape:document-units="mm"
     showguides="true"
     inkscape:zoom="0.61956886"
     inkscape:cx="1079.7831"
     inkscape:cy="-52.455832"
     inkscape:window-width="1920"
     inkscape:window-height="1002"
     inkscape:window-x="-8"
     inkscape:window-y="-8"
     inkscape:window-maximized="1"
     inkscape:current-layer="layer1"><sodipodi:guide
       position="-115.07195,170.77645"
       orientation="1,0"
       id="guide1"
       inkscape:locked="false" /><sodipodi:guide
       position="-110.08126,177.51453"
       orientation="1,0"
       id="guide6"
       inkscape:locked="false" /><sodipodi:guide
       position="-118.52936,178.33983"
       orientation="0,-1"
       id="guide13"
       inkscape:locked="false" /><sodipodi:guide
       position="-123.15055,158.6695"
       orientation="0,-1"
       id="guide16"
       inkscape:locked="false" /><sodipodi:guide
       position="-101.9675,178.65261"
       orientation="0,-1"
       id="guide17"
       inkscape:locked="false" /><sodipodi:guide
       position="-84.390662,184.66492"
       orientation="0,-1"
       id="guide18"
       inkscape:locked="false" /><sodipodi:guide
       position="-182.89483,131.17778"
       orientation="1,0"
       id="guide2"
       inkscape:locked="false" /><sodipodi:guide
       position="-48.474632,97.98741"
       orientation="1,0"
       id="guide3"
       inkscape:locked="false" /><sodipodi:guide
       position="-45.808162,87.40077"
       orientation="0,-1"
       id="guide4"
       inkscape:locked="false" /><sodipodi:guide
       position="-146.90682,131.78439"
       orientation="0,-1"
       id="guide9"
       inkscape:locked="false" /><sodipodi:guide
       position="-159.18669,132.34898"
       orientation="0,-1"
       id="guide10"
       inkscape:locked="false" /><sodipodi:guide
       position="-152.08225,117.1991"
       orientation="0,-1"
       id="guide11"
       inkscape:locked="false" /><sodipodi:guide
       position="-159.37489,116.63451"
       orientation="0,-1"
       id="guide12"
       inkscape:locked="false" /><sodipodi:guide
       position="-166.11784,124.35927"
       orientation="1,0"
       id="guide14"
       inkscape:locked="false" /><sodipodi:guide
       position="-159.608,130.30967"
       orientation="1,0"
       id="guide15"
       inkscape:locked="false" /><sodipodi:guide
       position="-152.33528,123.79983"
       orientation="1,0"
       id="guide19"
       inkscape:locked="false" /><sodipodi:guide
       position="-143.07909,125.73244"
       orientation="1,0"
       id="guide20"
       inkscape:locked="false" /><sodipodi:guide
       position="-131.0257,123.3421"
       orientation="1,0"
       id="guide21"
       inkscape:locked="false" /><sodipodi:guide
       position="-166.11784,118.59903"
       orientation="0,-1"
       id="guide22"
       inkscape:locked="false" /><sodipodi:guide
       position="-166.11784,130.38446"
       orientation="0,-1"
       id="guide23"
       inkscape:locked="false" /><sodipodi:guide
       position="-166.11784,124.35927"
       orientation="0,-1"
       id="guide27"
       inkscape:locked="false" /><sodipodi:guide
       position="82.673088,352.71855"
       orientation="0,-1"
       id="guide24"
       inkscape:locked="false" /></sodipodi:namedview><defs
     id="defs1" /><g
     inkscape:label="Layer 1"
     inkscape:groupmode="layer"
     id="layer1"
     transform="translate(-217.43375,38.62942)"><path
       style="font-size:13.3429px;font-family:KyrillaSansSerif-Black;-inkscape-font-specification:KyrillaSansSerif-Black;fill:#000000;fill-opacity:1;fill-rule:evenodd;stroke:none;stroke-width:0;stroke-linecap:round;stroke-linejoin:bevel;stroke-miterlimit:4.1;stroke-dasharray:none;paint-order:markers fill stroke"
       d="m 244.50083,-35.354756 q 0.48034,-0.306887 0.72051,-0.813917 0.24018,-0.50703 0.24018,-1.080775 0,-0.693831 -0.30689,-1.214204 -0.30689,-0.533716 -0.80057,-0.880632 -0.48035,-0.360258 -1.08078,-0.533716 -0.60043,-0.1868 -1.17417,-0.1868 -0.77389,0 -1.40101,0.266858 -0.61377,0.253515 -1.06743,0.733859 -0.45366,0.480345 -0.70717,1.160833 -0.25352,0.680488 -0.28021,1.52109 h 2.25495 q -0.0133,-0.800574 0.29355,-1.240889 0.30688,-0.440316 0.92066,-0.440316 0.467,0 0.78723,0.280201 0.32023,0.280201 0.32023,0.747202 0,0.266858 -0.12009,0.453659 -0.12008,0.173458 -0.32023,0.293544 -0.20014,0.106743 -0.467,0.160114 -0.25351,0.04003 -0.54706,0.04003 -0.08,0 -0.1868,0 -0.0934,0 -0.36026,-0.02669 v 1.801292 q 0.42698,0 0.81392,0.01334 0.40029,0 0.69383,0.106743 0.30689,0.106743 0.48035,0.346915 0.1868,0.240173 0.1868,0.693831 0,0.560402 -0.3736,0.907317 -0.37361,0.346916 -0.93401,0.346916 -0.70717,0 -1.05409,-0.480345 -0.34691,-0.493687 -0.3736,-1.374318 h -2.22826 q -0.0134,0.893974 0.21348,1.614491 0.24018,0.707173 0.69383,1.214204 0.46701,0.493687 1.16084,0.760545 0.69383,0.266858 1.61449,0.266858 0.72051,0 1.38766,-0.213487 0.66714,-0.213486 1.17418,-0.627116 0.52037,-0.426973 0.82725,-1.040746 0.30689,-0.613774 0.30689,-1.414348 0,-0.720516 -0.34691,-1.280918 -0.34692,-0.573745 -0.96069,-0.880631 z m 5.01692,5.457246 q 0.74721,0 1.30761,-0.226829 0.57374,-0.213487 0.97403,-0.587088 0.41363,-0.373601 0.68049,-0.867289 0.26686,-0.50703 0.42697,-1.080775 0.16012,-0.573744 0.21349,-1.174175 0.0667,-0.613773 0.0667,-1.187518 0,-0.867288 -0.16011,-1.761263 -0.14677,-0.907317 -0.5604,-1.627834 -0.40029,-0.733859 -1.12081,-1.187518 -0.70717,-0.467001 -1.82798,-0.467001 -1.1208,0 -1.82797,0.467001 -0.70718,0.467002 -1.10746,1.200861 -0.40029,0.720517 -0.56041,1.627834 -0.14677,0.893975 -0.14677,1.74792 0,0.573745 0.0534,1.174175 0.0667,0.600431 0.21349,1.174176 0.16012,0.573744 0.42697,1.080775 0.26686,0.493687 0.66715,0.880631 0.41363,0.373601 0.97403,0.587088 0.5604,0.226829 1.3076,0.226829 z m 0,-8.165855 q 0.52038,0 0.78724,0.333572 0.2802,0.333573 0.40028,0.813917 0.12009,0.480345 0.12009,1.000718 0.0133,0.520373 0.0133,0.893974 0,0.373601 -0.0133,0.907317 0,0.533716 -0.12009,1.027404 -0.10674,0.493687 -0.38694,0.840602 -0.26686,0.346916 -0.80058,0.346916 -0.34691,0 -0.58708,-0.160115 -0.22683,-0.173458 -0.3736,-0.426973 -0.14678,-0.266858 -0.21349,-0.60043 -0.0667,-0.346916 -0.0934,-0.693831 -0.0267,-0.346916 -0.0267,-0.667145 0,-0.333573 0,-0.573745 0,-0.360258 0,-0.880631 0.0134,-0.520373 0.12009,-1.000718 0.12009,-0.480344 0.38694,-0.813917 0.26686,-0.346915 0.78723,-0.346915 z"
       id="text28"
       transform="scale(1.0371577,0.96417355)"
       aria-label="30 "
       inkscape:export-filename="text28.png"
       inkscape:export-xdpi="96"
       inkscape:export-ydpi="96" /><path
       style="font-size:13.3429px;font-family:KyrillaSansSerif-Black;-inkscape-font-specification:KyrillaSansSerif-Black;fill:#000000;fill-opacity:1;fill-rule:evenodd;stroke:none;stroke-width:0;stroke-linecap:round;stroke-linejoin:bevel;stroke-miterlimit:4.1;stroke-dasharray:none;paint-order:markers fill stroke"
       d="m 262.36029,-30.084311 q 0.0133,-1.01406 0.21348,-2.121521 0.21349,-1.120804 0.60044,-2.174893 0.38694,-1.054089 0.94734,-1.974749 0.5604,-0.92066 1.30761,-1.574462 V -39.878 h -6.83157 v 2.214922 h 4.20301 q -1.24089,1.574462 -2.00143,3.482497 -0.7472,1.908035 -0.92066,4.09627 z m 8.36599,-3.722669 q -0.04,0.346915 -0.14677,0.720517 -0.0934,0.360258 -0.2802,0.653802 -0.17346,0.293544 -0.44032,0.480344 -0.26685,0.186801 -0.64045,0.186801 -0.38695,0 -0.68049,-0.306887 -0.2802,-0.306887 -0.38695,-0.867288 h -2.2416 q 0.0934,0.747202 0.3736,1.320947 0.29354,0.573744 0.72051,0.960689 0.42698,0.373601 0.98738,0.560401 0.5604,0.200144 1.20086,0.200144 1.06743,0 1.81463,-0.467002 0.74721,-0.480344 1.20087,-1.227546 0.467,-0.747203 0.66714,-1.641177 0.21349,-0.907317 0.21349,-1.774606 0,-0.893974 -0.17346,-1.787949 -0.17346,-0.907317 -0.60043,-1.627833 -0.42697,-0.73386 -1.17418,-1.187519 -0.73386,-0.453658 -1.868,-0.453658 -0.78723,0 -1.42769,0.293544 -0.64046,0.280201 -1.10746,0.773888 -0.45366,0.493687 -0.70718,1.160832 -0.25351,0.653802 -0.25351,1.414348 0,0.667145 0.21348,1.254232 0.22683,0.587088 0.62712,1.040746 0.41363,0.453659 0.97403,0.720517 0.57375,0.253515 1.28092,0.253515 1.1208,0 1.85466,-0.653802 z m -1.401,-4.256385 q 0.29354,0 0.52037,0.133429 0.24017,0.120086 0.41363,0.333572 0.17346,0.200144 0.26686,0.480345 0.0934,0.280201 0.0934,0.573745 0,0.640459 -0.33357,1.080774 -0.32023,0.440316 -0.96069,0.440316 -0.29354,0 -0.52037,-0.120086 -0.22683,-0.133429 -0.38695,-0.346915 -0.14677,-0.213487 -0.22683,-0.493688 -0.0801,-0.280201 -0.0801,-0.587087 0,-0.293544 0.0801,-0.560402 0.0934,-0.266858 0.25352,-0.467002 0.16011,-0.213486 0.3736,-0.333572 0.22683,-0.133429 0.50703,-0.133429 z m 6.23113,1.908035 q 0.04,-0.346916 0.13343,-0.707174 0.10674,-0.373601 0.2802,-0.667145 0.1868,-0.293544 0.44032,-0.480345 0.26685,-0.1868 0.6538,-0.1868 0.38694,0 0.66714,0.306887 0.29355,0.306886 0.40029,0.867288 h 2.24161 q -0.10675,-0.747202 -0.38695,-1.320947 -0.2802,-0.573745 -0.70717,-0.947346 -0.42697,-0.386944 -0.98738,-0.573745 -0.5604,-0.200143 -1.20086,-0.200143 -0.72051,0 -1.28091,0.226829 -0.56041,0.213487 -1.00072,0.587088 -0.42698,0.373601 -0.73386,0.880631 -0.30689,0.50703 -0.50703,1.080775 -0.1868,0.560402 -0.2802,1.160832 -0.0934,0.600431 -0.0934,1.174176 0,0.893974 0.17345,1.801291 0.17346,0.893974 0.60043,1.627834 0.42698,0.720517 1.16084,1.174175 0.7472,0.453659 1.88135,0.453659 0.77388,0 1.41434,-0.293544 0.65381,-0.280201 1.10746,-0.773888 0.46701,-0.493687 0.72052,-1.14749 0.25352,-0.667145 0.25352,-1.42769 0,-0.653802 -0.22683,-1.24089 -0.21349,-0.60043 -0.62712,-1.054089 -0.40029,-0.453658 -0.97403,-0.707173 -0.57375,-0.266858 -1.26758,-0.266858 -0.5604,0 -1.01406,0.160114 -0.45366,0.146772 -0.8406,0.493688 z m 1.401,1.227546 q 0.29355,0 0.52038,0.133429 0.22683,0.120087 0.3736,0.333573 0.16011,0.200143 0.24017,0.480344 0.0801,0.280201 0.0801,0.587088 0,0.293544 -0.0934,0.560402 -0.0801,0.266858 -0.24017,0.480344 -0.16012,0.200144 -0.38695,0.333573 -0.21348,0.120086 -0.49369,0.120086 -0.29354,0 -0.53371,-0.120086 -0.24017,-0.133429 -0.41363,-0.333573 -0.16012,-0.213486 -0.25352,-0.480344 -0.0934,-0.280201 -0.0934,-0.587088 0,-0.640459 0.32023,-1.080775 0.33358,-0.440315 0.97403,-0.440315 z"
       id="text28-0"
       transform="scale(1.0371577,0.96417353)"
       aria-label="796" /><path
       id="path29"
       style="font-size:13.3429px;font-family:KyrillaSansSerif-Black;-inkscape-font-specification:KyrillaSansSerif-Black;fill:#000000;fill-opacity:1;fill-rule:evenodd;stroke:none;stroke-width:0;stroke-linecap:round;stroke-linejoin:bevel;stroke-miterlimit:4.1;stroke-dasharray:none;paint-order:markers fill stroke"
       d="m 319.95769,-31.103471 h 1.28699 v -1.92973 h -1.30084 v -5.416111 h -2.08964 l -4.33151,5.403247 v 1.955459 h 4.11009 v 2.08411 h 2.32491 z m -2.33874,-4.245407 v 2.328542 h -1.85439 z" /><path
       id="path5"
       style="font-size:13.3429px;font-family:KyrillaSansSerif-Black;-inkscape-font-specification:KyrillaSansSerif-Black;fill:#000000;fill-opacity:1;fill-rule:evenodd;stroke:none;stroke-width:0;stroke-linecap:round;stroke-linejoin:bevel;stroke-miterlimit:4.1;stroke-dasharray:none;paint-order:markers fill stroke"
       d="m 311.64172,-31.103471 h 1.287 v -1.92973 h -1.30084 v -5.416111 h -2.08964 l -4.33151,5.403247 v 1.955459 h 4.11009 v 2.08411 h 2.3249 z m -2.33873,-4.245407 v 2.328542 h -1.85439 z" /><path
       id="text28-0-2"
       style="font-size:13.3429px;font-family:KyrillaSansSerif-Black;-inkscape-font-specification:KyrillaSansSerif-Black;fill:#000000;fill-opacity:1;fill-rule:evenodd;stroke:none;stroke-width:0;stroke-linecap:round;stroke-linejoin:bevel;stroke-miterlimit:4.1;stroke-dasharray:none;paint-order:markers fill stroke"
       transform="scale(1.0371577,0.96417353)"
       d="m 290.48972,-29.89751 q 0.7472,0 1.3076,-0.226829 0.57374,-0.213487 0.97403,-0.587088 0.41363,-0.373601 0.68049,-0.867289 0.26686,-0.50703 0.42697,-1.080775 0.16012,-0.573744 0.21349,-1.174175 0.0667,-0.613773 0.0667,-1.187518 0,-0.867288 -0.16011,-1.761263 -0.14677,-0.907317 -0.5604,-1.627834 -0.40029,-0.733859 -1.12081,-1.187518 -0.70717,-0.467001 -1.82797,-0.467001 -1.12081,0 -1.82798,0.467001 -0.70718,0.467002 -1.10746,1.200861 -0.40029,0.720517 -0.5604,1.627834 -0.14678,0.893975 -0.14678,1.74792 0,0.573745 0.0534,1.174175 0.0667,0.600431 0.21349,1.174176 0.16012,0.573744 0.42697,1.080775 0.26686,0.493687 0.66715,0.880631 0.41363,0.373601 0.97403,0.587088 0.5604,0.226829 1.30761,0.226829 z m 0,-8.165855 q 0.52037,0 0.78723,0.333572 0.2802,0.333573 0.40028,0.813917 0.12009,0.480345 0.12009,1.000718 0.0133,0.520373 0.0133,0.893974 0,0.373601 -0.0133,0.907317 0,0.533716 -0.12009,1.027404 -0.10674,0.493687 -0.38694,0.840602 -0.26686,0.346916 -0.80057,0.346916 -0.34692,0 -0.58709,-0.160115 -0.22683,-0.173458 -0.3736,-0.426973 -0.14678,-0.266858 -0.21349,-0.60043 -0.0667,-0.346916 -0.0934,-0.693831 -0.0267,-0.346916 -0.0267,-0.667145 0,-0.333573 0,-0.573745 0,-0.360258 0,-0.880631 0.0134,-0.520373 0.12009,-1.000718 0.12009,-0.480344 0.38694,-0.813917 0.26686,-0.346915 0.78724,-0.346915 z" /><g
       id="g2"
       transform="matrix(0.70291527,0,0,0.70291527,200.7341,-70.667707)"
       style="fill:#000000;fill-opacity:1;stroke:none;stroke-width:0;stroke-dasharray:none"><path
         id="path4-31"
         style="font-size:33.0283px;font-family:KyrillaSansSerif-Black;-inkscape-font-specification:KyrillaSansSerif-Black;fill:#000000;fill-opacity:1;fill-rule:evenodd;stroke:none;stroke-width:0;stroke-dasharray:none"
         d="m 118.62518,99.509942 h 6.10152 c -0.46174,-0.857248 -0.74758,-1.702909 -0.85752,-2.536986 -0.10994,-0.857248 -0.1649,-1.587066 -0.1649,-2.189454 v -9.487635 c 0,-1.274285 -0.27485,-2.293713 -0.82453,-3.058284 -0.52769,-0.78774 -1.19832,-1.39013 -2.01184,-1.807169 -0.79155,-0.417038 -1.66006,-0.68348 -2.60552,-0.799325 -0.92347,-0.139012 -1.78098,-0.208519 -2.57253,-0.208519 -0.96744,0 -1.94587,0.104265 -2.9353,0.312779 -0.98944,0.20852 -1.89092,0.590805 -2.70447,1.146857 -0.79153,0.556052 -1.46215,1.320623 -2.01184,2.293714 -0.54968,0.949921 -0.85751,2.166285 -0.92347,3.64909 h 5.73871 c 0.0879,-1.112104 0.3518,-1.86509 0.79155,-2.258961 0.43975,-0.39387 1.04441,-0.590805 1.81397,-0.590805 0.83551,0 1.46216,0.127429 1.87991,0.382286 0.41777,0.231688 0.62665,0.764571 0.62665,1.598649 0,0.324363 -0.10995,0.590805 -0.32982,0.799324 -0.19789,0.185351 -0.54968,0.335948 -1.05539,0.451793 -0.5057,0.139012 -1.09937,0.243272 -1.78098,0.312779 -0.65962,0.04634 -1.34123,0.115846 -2.04482,0.208519 -0.72559,0.115844 -1.45118,0.278026 -2.17676,0.486546 -0.72559,0.208518 -1.38521,0.532882 -1.97888,0.97309 -0.59366,0.440208 -1.07736,1.031013 -1.45116,1.772415 -0.37379,0.741402 -0.56069,1.702908 -0.56069,2.884518 0,1.042597 0.16491,1.957767 0.49472,2.745506 0.35181,0.764572 0.81355,1.401715 1.38521,1.911429 0.59366,0.509714 1.27527,0.880414 2.04483,1.112103 0.76956,0.254854 1.5831,0.382284 2.44061,0.382284 0.92347,0 1.84694,-0.12743 2.7704,-0.382284 0.94547,-0.254857 1.80298,-0.695065 2.57253,-1.320623 0.0441,0.185351 0.0879,0.370701 0.13193,0.556052 0.066,0.185351 0.13193,0.405454 0.19788,0.660312 z m -0.69259,-8.514543 v 0.938337 c 0,1.204779 -0.25285,2.096779 -0.75857,2.675999 -0.5057,0.556052 -1.33024,0.834077 -2.47358,0.834077 -0.72558,0 -1.29727,-0.127428 -1.71502,-0.382285 -0.41776,-0.254856 -0.62664,-0.741403 -0.62664,-1.459636 0,-0.671896 0.19789,-1.146856 0.59366,-1.424883 0.41775,-0.278026 0.97843,-0.474961 1.68204,-0.590805 0.54968,-0.115844 1.11036,-0.18535 1.68202,-0.208519 0.57168,-0.04634 1.12137,-0.173769 1.64907,-0.382285 z" /><path
         id="path4-3-6"
         style="font-size:33.0283px;font-family:KyrillaSansSerif-Black;-inkscape-font-specification:KyrillaSansSerif-Black;fill:#000000;fill-opacity:1;fill-rule:evenodd;stroke:none;stroke-width:0;stroke-dasharray:none"
         d="m 198.95842,99.926986 h 6.10152 c -0.46174,-0.85724 -0.74758,-1.70291 -0.85752,-2.536983 -0.10994,-0.857248 -0.1649,-1.587066 -0.1649,-2.189454 v -9.487635 c 0,-1.274285 -0.27485,-2.293713 -0.82453,-3.058284 -0.52769,-0.78774 -1.19832,-1.39013 -2.01184,-1.807169 -0.79155,-0.417038 -1.66006,-0.68348 -2.60552,-0.799325 -0.92347,-0.139012 -1.78098,-0.208519 -2.57253,-0.208519 -0.96744,0 -1.94587,0.104265 -2.9353,0.312779 -0.98944,0.20852 -1.89092,0.590805 -2.70447,1.146857 -0.79153,0.556052 -1.46215,1.320623 -2.01184,2.293714 -0.54968,0.949921 -0.85751,2.166285 -0.92347,3.64909 h 5.73871 c 0.0879,-1.112104 0.3518,-1.86509 0.79155,-2.258961 0.43975,-0.39387 1.04441,-0.590805 1.81397,-0.590805 0.83551,0 1.46216,0.127429 1.87991,0.382286 0.41777,0.231688 0.62665,0.764571 0.62665,1.598649 0,0.324363 -0.10995,0.590805 -0.32982,0.799324 -0.19789,0.185351 -0.54968,0.335948 -1.05539,0.451793 -0.5057,0.139012 -1.09937,0.243272 -1.78098,0.312779 -0.65962,0.04634 -1.34123,0.115846 -2.04482,0.208519 -0.72559,0.115844 -1.45118,0.278026 -2.17676,0.486546 -0.72559,0.208518 -1.38521,0.532882 -1.97888,0.97309 -0.59366,0.440208 -1.07736,1.031013 -1.45116,1.772415 -0.37379,0.741402 -0.56069,1.702908 -0.56069,2.884518 0,1.042597 0.16491,1.957767 0.49472,2.745506 0.35181,0.764572 0.81355,1.40172 1.38521,1.91143 0.59366,0.50971 1.27527,0.88041 2.04483,1.112094 0.76956,0.25486 1.5831,0.38229 2.44061,0.38229 0.92347,0 1.84694,-0.12743 2.7704,-0.38229 0.94547,-0.254844 1.80298,-0.695054 2.57253,-1.320614 0.0441,0.18535 0.0879,0.3707 0.13193,0.55605 0.066,0.18535 0.13193,0.40546 0.19788,0.66031 z m -0.69259,-8.51454 v 0.938337 c 0,1.204779 -0.25285,2.096779 -0.75857,2.675999 -0.5057,0.556052 -1.33024,0.834077 -2.47358,0.834077 -0.72558,0 -1.29727,-0.127428 -1.71502,-0.382285 -0.41776,-0.254856 -0.62664,-0.741403 -0.62664,-1.459636 0,-0.671896 0.19789,-1.146856 0.59366,-1.424883 0.41775,-0.278026 0.97843,-0.474961 1.68204,-0.590805 0.54968,-0.115844 1.11036,-0.18535 1.68202,-0.208519 0.57168,-0.04634 1.12137,-0.173769 1.64907,-0.382285 z" /><path
         style="font-size:33.0283px;font-family:KyrillaSansSerif-Black;-inkscape-font-specification:KyrillaSansSerif-Black;fill:#000000;fill-opacity:1;fill-rule:evenodd;stroke:none;stroke-width:0;stroke-dasharray:none"
         d="m 88.920512,99.701084 h 6.829301 L 88.437308,87.49191 95.363248,80.030748 H 88.405094 L 83.37976,85.81404 V 73.705661 h -5.637395 v 25.995423 h 5.669609 v -6.711476 l 1.127479,-1.213778 z"
         id="path2-7"
         sodipodi:nodetypes="ccccccccccccc" /><path
         style="font-size:33.0283px;font-family:KyrillaSansSerif-Black;-inkscape-font-specification:KyrillaSansSerif-Black;fill:#000000;fill-opacity:1;fill-rule:evenodd;stroke:none;stroke-width:0;stroke-dasharray:none"
         d="m 68.322491,100.53516 c 0.998817,0 1.997634,-0.11584 2.996451,-0.34753 0.998817,-0.231686 1.897751,-0.613972 2.696804,-1.146855 0.799054,-0.532883 1.453834,-1.251116 1.964341,-2.154701 0.510505,-0.903583 0.765758,-2.038856 0.765758,-3.405816 0,-0.99626 -0.177567,-1.818753 -0.532702,-2.467481 C 75.858008,90.340881 75.391894,89.796414 74.8148,89.379375 74.259902,88.939167 73.627318,88.591634 72.917048,88.336778 72.228974,88.081921 71.551999,87.861817 70.886122,87.676466 70.220244,87.514284 69.565464,87.363688 68.921781,87.224675 68.300295,87.085662 67.7343,86.92348 67.223793,86.738129 c -0.48831,-0.185351 -0.832346,-0.382285 -1.03211,-0.590805 -0.199763,-0.20852 -0.299645,-0.440208 -0.299645,-0.695065 0,-0.278025 0.06659,-0.498129 0.199763,-0.660311 0.155372,-0.162182 0.332939,-0.278026 0.532703,-0.347533 0.221959,-0.09268 0.455017,-0.139013 0.699171,-0.139013 0.244155,-0.02317 0.466115,-0.03476 0.665877,-0.03476 0.776859,0 1.409443,0.173766 1.897753,0.521298 0.48831,0.324365 0.765758,0.996261 0.832346,2.015689 h 5.593374 c -0.11098,-1.413299 -0.421723,-2.57174 -0.93223,-3.475324 -0.510505,-0.926753 -1.14309,-1.656571 -1.89775,-2.189454 -0.754662,-0.532883 -1.598107,-0.903584 -2.530336,-1.112104 -0.932229,-0.208519 -1.875556,-0.312779 -2.82998,-0.312779 -0.93223,0 -1.875556,0.09268 -2.829981,0.278026 -0.954425,0.185351 -1.820065,0.521298 -2.596923,1.007844 -0.776858,0.486546 -1.409442,1.158441 -1.897752,2.015688 -0.48831,0.857246 -0.732465,1.946181 -0.732465,3.266804 0,0.903584 0.155372,1.656571 0.466114,2.258961 0.310743,0.602389 0.721368,1.112103 1.231874,1.529142 0.532702,0.39387 1.131991,0.729817 1.797869,1.007844 0.665879,0.254856 1.342855,0.474961 2.030928,0.660312 0.710269,0.18535 1.409442,0.359116 2.097515,0.521298 0.688074,0.139012 1.309559,0.324363 1.864458,0.556052 0.510505,0.18535 0.86564,0.393869 1.065404,0.625557 0.199763,0.20852 0.299645,0.440209 0.299645,0.695065 0,0.625559 -0.255254,1.088936 -0.765759,1.390131 -0.510507,0.301194 -1.109796,0.451791 -1.79787,0.451791 -0.843446,0 -1.564814,-0.231689 -2.164103,-0.695065 -0.59929,-0.463376 -0.910032,-1.28587 -0.932228,-2.467479 h -5.593374 c 0.06658,1.505974 0.355132,2.757091 0.865641,3.75335 0.532703,0.97309 1.209678,1.760829 2.030927,2.363219 0.821249,0.579221 1.731282,0.984676 2.730099,1.216362 0.998817,0.25485 2.008732,0.38228 3.029743,0.38228 z"
         id="path1-5" /><path
         style="font-size:33.0283px;font-family:KyrillaSansSerif-Black;-inkscape-font-specification:KyrillaSansSerif-Black;fill:#000000;fill-opacity:1;fill-rule:evenodd;stroke:none;stroke-width:0;stroke-dasharray:none"
         d="m 53.21229,99.701084 h 5.963907 V 73.705662 h -5.995296 z"
         id="text1-48" /><path
         style="font-size:33.0283px;font-family:KyrillaSansSerif-Black;-inkscape-font-specification:KyrillaSansSerif-Black;fill:#000000;fill-opacity:1;fill-rule:evenodd;stroke:none;stroke-width:0;stroke-dasharray:none"
         d="m 183.23031,99.90961 q 0.67744,0 1.4194,-0.06951 0.74196,-0.03476 1.77426,-0.20852 v -5.039218 q -0.80648,0.173765 -1.22585,0.208519 -0.38711,0.03475 -0.74197,0.03475 -0.45162,0 -0.74196,-0.03475 -0.25808,-0.03476 -0.41937,-0.173766 -0.12903,-0.173766 -0.19356,-0.451793 -0.0323,-0.312779 -0.0323,-0.834077 v -8.340777 h 3.35497 v -4.448411 h -3.35497 v -5.386753 h -5.64538 v 5.421506 h -2.77429 v 4.448414 h 2.77429 v 10.008933 q 0,1.529142 0.4839,2.502232 0.51614,0.938339 1.32263,1.459637 0.83874,0.521299 1.87104,0.695064 1.06455,0.20852 2.12912,0.20852 z"
         id="path11-8" /><path
         style="font-size:33.0283px;font-family:KyrillaSansSerif-Black;-inkscape-font-specification:KyrillaSansSerif-Black;fill:#000000;fill-opacity:1;fill-rule:evenodd;stroke:none;stroke-width:0;stroke-dasharray:none"
         d="m 177.72619,94.752544 h 5.77995 V 70.047375 h -5.81298 z"
         id="path10-9"
         transform="scale(0.95036618,1.052226)" /><path
         id="path8-5"
         style="font-size:33.0283px;font-family:KyrillaSansSerif-Black;-inkscape-font-specification:KyrillaSansSerif-Black;fill:#000000;fill-opacity:1;fill-rule:evenodd;stroke:none;stroke-width:0;stroke-dasharray:none"
         d="m 167.86637,91.951119 q 0.034,-0.660312 0.034,-0.938338 0,-0.312779 0,-0.556052 0,-2.119947 -0.57832,-4.066128 -0.57831,-1.946182 -1.73494,-3.440571 -1.15663,-1.494389 -2.85756,-2.36322 -1.70092,-0.868831 -3.94615,-0.868831 -2.14317,0 -3.91213,0.834078 -1.76896,0.799324 -3.02765,2.224206 -1.22466,1.39013 -1.93905,3.301558 -0.68037,1.876675 -0.68037,4.066129 0,2.258961 0.64635,4.170388 0.68037,1.911429 1.90505,3.301558 1.25867,1.39013 3.02764,2.154701 1.76896,0.764573 3.98016,0.764573 3.33382,0 5.54502,-1.737664 2.24522,-1.772415 3.43587,-5.69953 h -5.40894 q -0.3742,1.216362 -1.39476,1.841921 -1.02056,0.590805 -2.00709,0.590805 -1.73494,0 -2.65345,-0.903584 -0.88447,-0.903585 -1.05458,-2.675999 z m -9.21901,-7.228674 q 1.42878,0 2.10915,0.729819 0.71439,0.695064 1.05458,2.085194 h -6.56559 q 0.27216,-1.320624 1.15665,-2.050441 0.91849,-0.764572 2.24521,-0.764572 z" /><path
         id="text1-4-8"
         style="font-size:33.0283px;font-family:KyrillaSansSerif-Black;-inkscape-font-specification:KyrillaSansSerif-Black;fill:#000000;fill-opacity:1;fill-rule:evenodd;stroke:none;stroke-width:0;stroke-dasharray:none"
         d="m 145.3585,94.752544 q 2.87346,0 4.98727,-0.957821 2.11381,-0.95782 3.501,-2.642264 1.38719,-1.684443 2.08079,-3.963396 0.69359,-2.278953 0.69359,-4.921217 0,-2.609236 -0.72662,-4.85516 -0.6936,-2.245925 -2.11381,-3.864311 -1.42022,-1.651415 -3.53403,-2.576208 -2.08078,-0.924792 -4.88819,-0.924792 h -10.7342 v 24.705169 z m -1.2881,-19.2555 q 1.78352,0 2.97254,0.495425 1.18902,0.495424 1.91564,1.453245 0.75966,0.924793 1.05691,2.278953 0.33028,1.321132 0.33028,3.038604 0,1.387188 -0.33028,2.576207 -0.29725,1.189019 -0.95782,2.080783 -0.62754,0.858736 -1.65142,1.387189 -1.02387,0.495424 -2.41106,0.495424 h -4.09551 v -13.80583 z"
         transform="scale(0.95036618,1.052226)" /><path
         style="font-size:36.4037px;font-family:'Test Söhne';-inkscape-font-specification:'Test Söhne';fill:#000000;fill-opacity:1;fill-rule:evenodd;stroke:none;stroke-width:0;stroke-linecap:round;stroke-linejoin:round;stroke-miterlimit:4.1;stroke-dasharray:none"
         d="m 107.35249,79.776456 c -0.32811,-0.02818 -0.59671,-0.06811 -1.04401,-0.05638 -2.46645,0.06473 -3.82462,1.011733 -4.57034,2.082841 v -1.74758 H 96.070643 V 99.70108 h 5.667497 V 88.00402 c 0,-2.001262 2.24368,-3.294868 4.18256,-3.294868 0.5071,0 0.86504,0.02818 1.43179,0.112744 z"
         id="path16-2"
         sodipodi:nodetypes="cscccccsscc" /></g><path
       id="path5-4-5"
       style="color:#000000;fill:#000000;fill-opacity:1;fill-rule:evenodd;stroke:none;stroke-width:0;stroke-linecap:round;stroke-linejoin:round;stroke-miterlimit:4.1;stroke-dasharray:none;paint-order:markers fill stroke"
       d="m 217.93347,-18.197339 a 0.50005,0.50005 0 0 0 -0.49971,0.500228 v 16.6894206 a 0.50005,0.50005 0 0 0 0.49971,0.49971107 h 16.68942 a 0.50005,0.50005 0 0 0 0.50023,-0.49971107 V -17.697111 a 0.50005,0.50005 0 0 0 -0.50023,-0.500228 z m 0.50023,0.999939 h 15.68948 V -1.5079183 H 218.4337 Z m 7.84551,1.517737 a 0.45004499,0.45004499 0 0 0 -0.44338,0.371037 l -0.17053,0.971517 c -1.43329,0.155067 -2.70772,0.846361 -3.61942,1.868619 l -1.51877,-0.732771 a 0.45004499,0.45004499 0 0 0 -0.47026,0.76171 l 1.26763,0.982886 c -0.45723,0.81748 -0.71882,1.7584998 -0.71882,2.7595214 0,0.6314892 0.1052,1.2383098 0.29662,1.8060914 l -1.39268,1.0397298 a 0.45004499,0.45004499 0 0 0 0.44545,0.7751465 l 1.50378,-0.6345866 c 1.00225,1.6105305 2.78805,2.6856242 4.82038,2.6856242 2.03233,0 3.81768,-1.0750937 4.81935,-2.6856242 l 1.50481,0.6345866 a 0.45004499,0.45004499 0 0 0 0.44339,-0.7751465 l -1.39165,-1.0402466 c 0.19116,-0.5676037 0.29611,-1.1743156 0.29611,-1.8055746 0,-1.0007919 -0.26155,-1.9416554 -0.71831,-2.7590044 l 1.26918,-0.983403 a 0.45004499,0.45004499 0 0 0 -0.47284,-0.76171 l -1.51774,0.732771 c -0.91138,-1.022382 -2.18549,-1.714208 -3.6189,-1.869136 l -0.17001,-0.971 a 0.45004499,0.45004499 0 0 0 -0.44339,-0.371037 z m -0.77721,2.272729 -0.42168,2.402955 -2.19108,-1.0573 c 0.69176,-0.697168 1.5979,-1.180207 2.61276,-1.345655 z m 1.55339,0 c 1.01488,0.165252 1.92122,0.648007 2.61276,1.345138 l -2.1916,1.057817 z m -0.77618,0.779798 0.41393,2.36523 a 0.45004499,0.45004499 0 0 0 0.63872,0.3281454 l 1.23455,-0.5953124 -1.14463,0.8862507 a 0.45004499,0.45004499 0 0 0 0.006,0.7172689 l 2.12287,1.5859497 -3.09749,-1.306897 a 0.45004499,0.45004499 0 0 0 -0.34985,0 l -3.09542,1.30483 2.1208,-1.5838827 a 0.45004499,0.45004499 0 0 0 0.008,-0.7172689 l -1.14463,-0.8862507 1.23248,0.5953124 a 0.45004499,0.45004499 0 0 0 0.63872,-0.3281454 z m -4.23643,1.727543 2.07429,1.6086872 -2.44998,1.828829 c -0.10485,-0.3938881 -0.16123,-0.8075316 -0.16123,-1.2350668 0,-0.7953507 0.19456,-1.5437424 0.53692,-2.2024494 z m 8.47183,5.17e-4 c 0.34191,0.658558 0.5364,1.4068301 0.5364,2.2019324 0,0.4271784 -0.0566,0.8404401 -0.16123,1.2340332 l -2.44843,-1.8298624 z m -4.2354,3.1548459 3.98219,1.6800008 c -0.85288,1.2895673 -2.31553,2.1383707 -3.98219,2.1383707 -1.6665,0 -3.12973,-0.8484904 -3.98322,-2.137854 z m -1.57871,0.9958048 c -0.0404,-1.969e-4 -0.0805,0.00425 -0.11938,0.012402 -0.15556,0.034091 -0.28588,0.1435143 -0.34778,0.2837036 -0.12381,0.2803926 0.009,0.6377872 0.35657,0.8826334 0.23627,0.1664924 0.22915,0.3107017 0.20981,0.3545004 -0.01,0.021861 -0.0177,0.030199 -0.045,0.036173 -0.0273,0.00633 -0.0832,0.0052 -0.17054,-0.047026 a 0.2160916,0.2160916 0 0 0 -0.29662,0.07338 0.2160916,0.2160916 0 0 0 0.0739,0.2966228 c 0.15978,0.096236 0.3302,0.1332963 0.48576,0.099219 0.15557,-0.034091 0.2864,-0.1435072 0.3483,-0.2837036 0.12381,-0.2803855 -0.009,-0.6377872 -0.35657,-0.8826335 -0.23627,-0.1664993 -0.22966,-0.3107087 -0.21032,-0.3545003 0.01,-0.021861 0.0177,-0.030199 0.045,-0.036174 0.0273,-0.00562 0.0833,-0.00468 0.17054,0.047542 a 0.2160916,0.2160916 0 0 0 0.29662,-0.073897 0.2160916,0.2160916 0 0 0 -0.0734,-0.2966227 c -0.11983,-0.072175 -0.24579,-0.1110236 -0.3669,-0.1116211 z m 2.10736,0.038241 c -0.0254,3.948e-4 -0.0511,0.00238 -0.077,0.00517 a 0.2160916,0.2160916 0 0 0 -0.0171,0.00413 0.2160916,0.2160916 0 0 0 -0.0253,0.0062 0.2160916,0.2160916 0 0 0 -0.0279,0.011369 0.2160916,0.2160916 0 0 0 -0.0222,0.012919 0.2160916,0.2160916 0 0 0 -0.0238,0.018087 0.2160916,0.2160916 0 0 0 -0.0191,0.018604 0.2160916,0.2160916 0 0 0 -0.0176,0.022738 0.2160916,0.2160916 0 0 0 -0.0145,0.023771 0.2160916,0.2160916 0 0 0 -0.0109,0.026355 0.2160916,0.2160916 0 0 0 -0.008,0.026872 0.2160916,0.2160916 0 0 0 -0.004,0.027388 0.2160916,0.2160916 0 0 0 -0.002,0.01602 v 1.4552083 a 0.2160916,0.2160916 0 0 0 0.21652,0.2165243 0.2160916,0.2160916 0 0 0 0.21601,-0.2165243 v -0.012919 l 0.23719,0.1839681 a 0.2160916,0.2160916 0 0 0 0.30334,-0.03824 0.2160916,0.2160916 0 0 0 -0.0387,-0.3033407 l -0.17312,-0.1343587 c 0.0667,-0.04829 0.12379,-0.1023195 0.17053,-0.162264 0.13702,-0.1757708 0.17142,-0.3949753 0.12661,-0.5823934 -0.084,-0.3512561 -0.40509,-0.6307599 -0.78858,-0.6252848 z m -2.8975,0.00362 a 0.2160916,0.2160916 0 0 0 -0.216,0.2160075 v 1.4552083 a 0.2160916,0.2160916 0 0 0 0.216,0.2165243 0.2160916,0.2160916 0 0 0 0.21653,-0.2165243 v -1.4552083 a 0.2160916,0.2160916 0 0 0 -0.21653,-0.2160075 z m 1.70171,0 a 0.2160916,0.2160916 0 0 0 -0.21601,0.2160075 v 1.4552083 a 0.2160916,0.2160916 0 0 0 0.002,0.012402 0.2160916,0.2160916 0 0 0 0.004,0.028939 0.2160916,0.2160916 0 0 0 0.007,0.025838 0.2160916,0.2160916 0 0 0 0.0114,0.027388 0.2160916,0.2160916 0 0 0 0.0134,0.023771 0.2160916,0.2160916 0 0 0 0.0171,0.022738 0.2160916,0.2160916 0 0 0 0.0196,0.019637 0.2160916,0.2160916 0 0 0 0.0222,0.017053 0.2160916,0.2160916 0 0 0 0.0243,0.014469 0.2160916,0.2160916 0 0 0 0.0109,0.00672 0.2160916,0.2160916 0 0 0 0.015,0.00413 0.2160916,0.2160916 0 0 0 0.0269,0.00775 0.2160916,0.2160916 0 0 0 0.0284,0.0031 0.2160916,0.2160916 0 0 0 0.015,0.00207 0.2160916,0.2160916 0 0 0 0.0129,-0.00103 0.2160916,0.2160916 0 0 0 0.0274,-0.00362 0.2160916,0.2160916 0 0 0 0.0279,-0.00723 0.2160916,0.2160916 0 0 0 0.0253,-0.010335 0.2160916,0.2160916 0 0 0 0.0253,-0.013953 0.2160916,0.2160916 0 0 0 0.0212,-0.017053 0.2160916,0.2160916 0 0 0 0.0207,-0.020154 0.2160916,0.2160916 0 0 0 0.0171,-0.021704 0.2160916,0.2160916 0 0 0 0.0145,-0.024288 0.2160916,0.2160916 0 0 0 0.006,-0.010852 l 0.0362,-0.084233 0.21859,0.1694987 a 0.2160916,0.2160916 0 0 0 0.30335,-0.03824 0.2160916,0.2160916 0 0 0 -0.0383,-0.3033407 l -0.30747,-0.2377116 0.41393,-0.9611816 a 0.2160916,0.2160916 0 0 0 -0.11317,-0.2837036 0.2160916,0.2160916 0 0 0 -0.16485,-0.00207 0.2160916,0.2160916 0 0 0 -0.11886,0.1152385 l -0.21187,0.4919596 V -6.489523 a 0.2160916,0.2160916 0 0 0 -0.21601,-0.2160075 z m 2.63136,0 a 0.2160916,0.2160916 0 0 0 -0.0227,0.0031 0.2160916,0.2160916 0 0 0 -0.0331,0.00465 0.2160916,0.2160916 0 0 0 -0.001,5.167e-4 0.2160916,0.2160916 0 0 0 -0.0176,0.00723 0.2160916,0.2160916 0 0 0 -0.0336,0.013953 0.2160916,0.2160916 0 0 0 -0.0165,0.012919 0.2160916,0.2160916 0 0 0 -0.0279,0.021704 0.2160916,0.2160916 0 0 0 -0.014,0.01757 0.2160916,0.2160916 0 0 0 -0.0202,0.027388 0.2160916,0.2160916 0 0 0 -0.01,0.022738 0.2160916,0.2160916 0 0 0 -0.0119,0.026872 l -0.40308,1.4552083 a 0.2160916,0.2160916 0 0 0 0.1509,0.2661336 0.2160916,0.2160916 0 0 0 0.26561,-0.1503784 l 0.0403,-0.1462443 h 0.30903 l 0.0408,0.1462443 a 0.2160916,0.2160916 0 0 0 0.26613,0.1503784 0.2160916,0.2160916 0 0 0 0.15038,-0.2661336 l -0.0847,-0.304891 a 0.2160916,0.2160916 0 0 0 0,-5.167e-4 l -0.31832,-1.1498006 a 0.2160916,0.2160916 0 0 0 -5.2e-4,-0.00155 0.2160916,0.2160916 0 0 0 -0.0212,-0.049609 0.2160916,0.2160916 0 0 0 -0.001,-0.00207 0.2160916,0.2160916 0 0 0 -0.0336,-0.042375 0.2160916,0.2160916 0 0 0 -0.001,-0.00155 0.2160916,0.2160916 0 0 0 -0.0434,-0.033073 0.2160916,0.2160916 0 0 0 -0.001,-5.168e-4 0.2160916,0.2160916 0 0 0 -0.0481,-0.020154 0.2160916,0.2160916 0 0 0 -0.002,0 0.2160916,0.2160916 0 0 0 -0.0243,-0.00362 0.2160916,0.2160916 0 0 0 -0.0295,-0.00413 h -0.001 a 0.2160916,0.2160916 0 0 0 -0.002,0 z m -1.27227,0.4738729 c 0.10029,0.054616 0.18261,0.1516141 0.20567,0.2480469 0.0185,0.07718 0.0107,0.1424722 -0.047,0.2165242 -0.031,0.039785 -0.0816,0.083395 -0.15865,0.1240235 z m 1.27227,0.5513875 0.0351,0.1255738 h -0.0698 z" /></g></svg>
