<?xml version="1.0" encoding="UTF-8" standalone="no"?>
<!-- Created with Inkscape (http://www.inkscape.org/) -->

<svg
   width="127.44012mm"
   height="38.629421mm"
   viewBox="0 0 127.44012 38.629421"
   version="1.1"
   id="svg1"
   inkscape:version="1.3 (0e150ed6c4, 2023-07-21)"
   sodipodi:docname="IskraDeltaLogo-final.svg"
   xml:space="preserve"
   xmlns:inkscape="http://www.inkscape.org/namespaces/inkscape"
   xmlns:sodipodi="http://sodipodi.sourceforge.net/DTD/sodipodi-0.dtd"
   xmlns="http://www.w3.org/2000/svg"
   xmlns:svg="http://www.w3.org/2000/svg"><sodipodi:namedview
     id="namedview1"
     pagecolor="#ffffff"
     bordercolor="#000000"
     borderopacity="0.25"
     inkscape:showpageshadow="2"
     inkscape:pageopacity="0.0"
     inkscape:pagecheckerboard="0"
     inkscape:deskcolor="#d1d1d1"
     inkscape:document-units="mm"
     showguides="true"
     inkscape:zoom="2.4782754"
     inkscape:cx="104.3064"
     inkscape:cy="86.753876"
     inkscape:window-width="1920"
     inkscape:window-height="992"
     inkscape:window-x="-8"
     inkscape:window-y="-8"
     inkscape:window-maximized="1"
     inkscape:current-layer="layer1"><sodipodi:guide
       position="-115.07195,170.77645"
       orientation="1,0"
       id="guide1"
       inkscape:locked="false" /><sodipodi:guide
       position="-110.08126,177.51453"
       orientation="1,0"
       id="guide6"
       inkscape:locked="false" /><sodipodi:guide
       position="-118.52936,178.33983"
       orientation="0,-1"
       id="guide13"
       inkscape:locked="false" /><sodipodi:guide
       position="-123.15055,158.6695"
       orientation="0,-1"
       id="guide16"
       inkscape:locked="false" /><sodipodi:guide
       position="-101.9675,178.65261"
       orientation="0,-1"
       id="guide17"
       inkscape:locked="false" /><sodipodi:guide
       position="-84.390662,184.66492"
       orientation="0,-1"
       id="guide18"
       inkscape:locked="false" /><sodipodi:guide
       position="-182.89483,131.17778"
       orientation="1,0"
       id="guide2"
       inkscape:locked="false" /><sodipodi:guide
       position="-48.474632,97.98741"
       orientation="1,0"
       id="guide3"
       inkscape:locked="false" /><sodipodi:guide
       position="-45.808162,87.40077"
       orientation="0,-1"
       id="guide4"
       inkscape:locked="false" /><sodipodi:guide
       position="-146.90682,131.78439"
       orientation="0,-1"
       id="guide9"
       inkscape:locked="false" /><sodipodi:guide
       position="-159.18669,132.34898"
       orientation="0,-1"
       id="guide10"
       inkscape:locked="false" /><sodipodi:guide
       position="-152.08225,117.1991"
       orientation="0,-1"
       id="guide11"
       inkscape:locked="false" /><sodipodi:guide
       position="-159.37489,116.63451"
       orientation="0,-1"
       id="guide12"
       inkscape:locked="false" /><sodipodi:guide
       position="-166.11784,124.35927"
       orientation="1,0"
       id="guide14"
       inkscape:locked="false" /><sodipodi:guide
       position="-159.608,130.30967"
       orientation="1,0"
       id="guide15"
       inkscape:locked="false" /><sodipodi:guide
       position="-152.33528,123.79983"
       orientation="1,0"
       id="guide19"
       inkscape:locked="false" /><sodipodi:guide
       position="-143.07909,125.73244"
       orientation="1,0"
       id="guide20"
       inkscape:locked="false" /><sodipodi:guide
       position="-131.0257,123.3421"
       orientation="1,0"
       id="guide21"
       inkscape:locked="false" /><sodipodi:guide
       position="-166.11784,118.59903"
       orientation="0,-1"
       id="guide22"
       inkscape:locked="false" /><sodipodi:guide
       position="-166.11784,130.38446"
       orientation="0,-1"
       id="guide23"
       inkscape:locked="false" /><sodipodi:guide
       position="-166.11784,124.35927"
       orientation="0,-1"
       id="guide27"
       inkscape:locked="false" /><sodipodi:guide
       position="82.673088,352.71855"
       orientation="0,-1"
       id="guide24"
       inkscape:locked="false" /></sodipodi:namedview><defs
     id="defs1" /><g
     inkscape:label="Layer 1"
     inkscape:groupmode="layer"
     id="layer1"
     transform="translate(-217.43375,38.62942)"><path
       style="font-size:13.3429px;font-family:KyrillaSansSerif-Black;-inkscape-font-specification:KyrillaSansSerif-Black;fill:#000000;fill-opacity:1;fill-rule:evenodd;stroke:none;stroke-width:0;stroke-linecap:round;stroke-linejoin:bevel;stroke-miterlimit:4.1;stroke-dasharray:none;paint-order:markers fill stroke"
       d="m 253.74606,-34.08812 q 0.49819,-0.295892 0.74728,-0.784757 0.24911,-0.488865 0.24911,-1.042055 0,-0.668974 -0.3183,-1.170703 -0.31829,-0.514595 -0.83031,-0.849083 -0.4982,-0.347351 -1.12094,-0.514594 -0.62274,-0.180108 -1.2178,-0.180108 -0.80265,0 -1.45307,0.257297 -0.63658,0.244433 -1.10709,0.707568 -0.47052,0.463136 -0.73345,1.119244 -0.26294,0.656109 -0.29062,1.466595 h 2.33874 q -0.0138,-0.771892 0.30445,-1.196432 0.31829,-0.424541 0.95487,-0.424541 0.48436,0 0.81649,0.270162 0.33212,0.270162 0.33212,0.720432 0,0.257298 -0.12455,0.437406 -0.12454,0.167244 -0.33213,0.283028 -0.20757,0.102919 -0.48435,0.154378 -0.26293,0.0386 -0.56739,0.0386 -0.083,0 -0.19374,0 -0.0969,0 -0.37364,-0.02573 v 1.736758 q 0.44284,0 0.84416,0.01286 0.41516,0 0.71961,0.102919 0.31829,0.102918 0.4982,0.334486 0.19374,0.231568 0.19374,0.668973 0,0.540325 -0.38748,0.874811 -0.3875,0.334488 -0.96872,0.334488 -0.73345,0 -1.09326,-0.463136 -0.3598,-0.476 -0.38748,-1.325081 h -2.31106 q -0.0139,0.861946 0.22142,1.556649 0.2491,0.681838 0.71961,1.170704 0.48436,0.475999 1.20397,0.733297 0.71961,0.257297 1.67448,0.257297 0.74729,0 1.43923,-0.205838 0.69193,-0.205838 1.21781,-0.604649 0.5397,-0.411676 0.85798,-1.00346 0.3183,-0.591784 0.3183,-1.363677 0,-0.694702 -0.3598,-1.235027 -0.35981,-0.55319 -0.99639,-0.849081 z m 5.20334,5.261732 q 0.77497,0 1.3562,-0.218702 0.59505,-0.205839 1.01022,-0.566055 0.429,-0.360216 0.70577,-0.836217 0.27678,-0.488865 0.44284,-1.042055 0.16607,-0.553189 0.22142,-1.132108 0.0692,-0.591784 0.0692,-1.144974 0,-0.836216 -0.16606,-1.698163 -0.15222,-0.874811 -0.58122,-1.569515 -0.41517,-0.707567 -1.16246,-1.144973 -0.73345,-0.45027 -1.8959,-0.45027 -1.16245,0 -1.8959,0.45027 -0.73345,0.450271 -1.14861,1.157838 -0.41516,0.694704 -0.58123,1.569515 -0.15222,0.861947 -0.15222,1.685298 0,0.55319 0.0554,1.132109 0.0692,0.578919 0.22142,1.132109 0.16607,0.553189 0.44284,1.042055 0.27677,0.476 0.69194,0.849081 0.429,0.360216 1.01022,0.566055 0.58122,0.218702 1.35619,0.218702 z m 0,-7.873301 q 0.53971,0 0.81649,0.321621 0.29061,0.321622 0.41515,0.784757 0.12456,0.463136 0.12456,0.964866 0.0138,0.50173 0.0138,0.861946 0,0.360216 -0.0138,0.874811 0,0.514595 -0.12456,0.990596 -0.1107,0.476 -0.40131,0.810486 -0.27678,0.334487 -0.83033,0.334487 -0.3598,0 -0.6089,-0.154378 -0.23526,-0.167244 -0.38748,-0.411676 -0.15223,-0.257298 -0.22142,-0.578919 -0.0692,-0.334487 -0.0969,-0.668974 -0.0277,-0.334487 -0.0277,-0.643243 0,-0.321622 0,-0.55319 0,-0.347351 0,-0.849081 0.0139,-0.50173 0.12455,-0.964866 0.12455,-0.463135 0.40132,-0.784757 0.27677,-0.334486 0.81648,-0.334486 z"
       id="text28"
       aria-label="30 "
       inkscape:export-filename="text28.png"
       inkscape:export-xdpi="96"
       inkscape:export-ydpi="96" /><path
       style="font-size:13.3429px;font-family:KyrillaSansSerif-Black;-inkscape-font-specification:KyrillaSansSerif-Black;fill:#000000;fill-opacity:1;fill-rule:evenodd;stroke:none;stroke-width:0;stroke-linecap:round;stroke-linejoin:bevel;stroke-miterlimit:4.1;stroke-dasharray:none;paint-order:markers fill stroke"
       d="m 262.36029,-30.084311 q 0.0133,-1.01406 0.21348,-2.121521 0.21349,-1.120804 0.60044,-2.174893 0.38694,-1.054089 0.94734,-1.974749 0.5604,-0.92066 1.30761,-1.574462 V -39.878 h -6.83157 v 2.214922 h 4.20301 q -1.24089,1.574462 -2.00143,3.482497 -0.7472,1.908035 -0.92066,4.09627 z m 8.36599,-3.722669 q -0.04,0.346915 -0.14677,0.720517 -0.0934,0.360258 -0.2802,0.653802 -0.17346,0.293544 -0.44032,0.480344 -0.26685,0.186801 -0.64045,0.186801 -0.38695,0 -0.68049,-0.306887 -0.2802,-0.306887 -0.38695,-0.867288 h -2.2416 q 0.0934,0.747202 0.3736,1.320947 0.29354,0.573744 0.72051,0.960689 0.42698,0.373601 0.98738,0.560401 0.5604,0.200144 1.20086,0.200144 1.06743,0 1.81463,-0.467002 0.74721,-0.480344 1.20087,-1.227546 0.467,-0.747203 0.66714,-1.641177 0.21349,-0.907317 0.21349,-1.774606 0,-0.893974 -0.17346,-1.787949 -0.17346,-0.907317 -0.60043,-1.627833 -0.42697,-0.73386 -1.17418,-1.187519 -0.73386,-0.453658 -1.868,-0.453658 -0.78723,0 -1.42769,0.293544 -0.64046,0.280201 -1.10746,0.773888 -0.45366,0.493687 -0.70718,1.160832 -0.25351,0.653802 -0.25351,1.414348 0,0.667145 0.21348,1.254232 0.22683,0.587088 0.62712,1.040746 0.41363,0.453659 0.97403,0.720517 0.57375,0.253515 1.28092,0.253515 1.1208,0 1.85466,-0.653802 z m -1.401,-4.256385 q 0.29354,0 0.52037,0.133429 0.24017,0.120086 0.41363,0.333572 0.17346,0.200144 0.26686,0.480345 0.0934,0.280201 0.0934,0.573745 0,0.640459 -0.33357,1.080774 -0.32023,0.440316 -0.96069,0.440316 -0.29354,0 -0.52037,-0.120086 -0.22683,-0.133429 -0.38695,-0.346915 -0.14677,-0.213487 -0.22683,-0.493688 -0.0801,-0.280201 -0.0801,-0.587087 0,-0.293544 0.0801,-0.560402 0.0934,-0.266858 0.25352,-0.467002 0.16011,-0.213486 0.3736,-0.333572 0.22683,-0.133429 0.50703,-0.133429 z m 6.23113,1.908035 q 0.04,-0.346916 0.13343,-0.707174 0.10674,-0.373601 0.2802,-0.667145 0.1868,-0.293544 0.44032,-0.480345 0.26685,-0.1868 0.6538,-0.1868 0.38694,0 0.66714,0.306887 0.29355,0.306886 0.40029,0.867288 h 2.24161 q -0.10675,-0.747202 -0.38695,-1.320947 -0.2802,-0.573745 -0.70717,-0.947346 -0.42697,-0.386944 -0.98738,-0.573745 -0.5604,-0.200143 -1.20086,-0.200143 -0.72051,0 -1.28091,0.226829 -0.56041,0.213487 -1.00072,0.587088 -0.42698,0.373601 -0.73386,0.880631 -0.30689,0.50703 -0.50703,1.080775 -0.1868,0.560402 -0.2802,1.160832 -0.0934,0.600431 -0.0934,1.174176 0,0.893974 0.17345,1.801291 0.17346,0.893974 0.60043,1.627834 0.42698,0.720517 1.16084,1.174175 0.7472,0.453659 1.88135,0.453659 0.77388,0 1.41434,-0.293544 0.65381,-0.280201 1.10746,-0.773888 0.46701,-0.493687 0.72052,-1.14749 0.25352,-0.667145 0.25352,-1.42769 0,-0.653802 -0.22683,-1.24089 -0.21349,-0.60043 -0.62712,-1.054089 -0.40029,-0.453658 -0.97403,-0.707173 -0.57375,-0.266858 -1.26758,-0.266858 -0.5604,0 -1.01406,0.160114 -0.45366,0.146772 -0.8406,0.493688 z m 1.401,1.227546 q 0.29355,0 0.52038,0.133429 0.22683,0.120087 0.3736,0.333573 0.16011,0.200143 0.24017,0.480344 0.0801,0.280201 0.0801,0.587088 0,0.293544 -0.0934,0.560402 -0.0801,0.266858 -0.24017,0.480344 -0.16012,0.200144 -0.38695,0.333573 -0.21348,0.120086 -0.49369,0.120086 -0.29354,0 -0.53371,-0.120086 -0.24017,-0.133429 -0.41363,-0.333573 -0.16012,-0.213486 -0.25352,-0.480344 -0.0934,-0.280201 -0.0934,-0.587088 0,-0.640459 0.32023,-1.080775 0.33358,-0.440315 0.97403,-0.440315 z"
       id="text28-0"
       transform="scale(1.0371577,0.96417353)"
       aria-label="796" /><path
       id="path29"
       style="font-size:13.3429px;font-family:KyrillaSansSerif-Black;-inkscape-font-specification:KyrillaSansSerif-Black;fill:#000000;fill-opacity:1;fill-rule:evenodd;stroke:none;stroke-width:0;stroke-linecap:round;stroke-linejoin:bevel;stroke-miterlimit:4.1;stroke-dasharray:none;paint-order:markers fill stroke"
       d="m 319.95769,-31.103471 h 1.28699 v -1.92973 h -1.30084 v -5.416111 h -2.08964 l -4.33151,5.403247 v 1.955459 h 4.11009 v 2.08411 h 2.32491 z m -2.33874,-4.245407 v 2.328542 h -1.85439 z" /><path
       id="path5"
       style="font-size:13.3429px;font-family:KyrillaSansSerif-Black;-inkscape-font-specification:KyrillaSansSerif-Black;fill:#000000;fill-opacity:1;fill-rule:evenodd;stroke:none;stroke-width:0;stroke-linecap:round;stroke-linejoin:bevel;stroke-miterlimit:4.1;stroke-dasharray:none;paint-order:markers fill stroke"
       d="m 311.64172,-31.103471 h 1.287 v -1.92973 h -1.30084 v -5.416111 h -2.08964 l -4.33151,5.403247 v 1.955459 h 4.11009 v 2.08411 h 2.3249 z m -2.33873,-4.245407 v 2.328542 h -1.85439 z" /><path
       id="text28-0-2"
       style="font-size:13.3429px;font-family:KyrillaSansSerif-Black;-inkscape-font-specification:KyrillaSansSerif-Black;fill:#000000;fill-opacity:1;fill-rule:evenodd;stroke:none;stroke-width:0;stroke-linecap:round;stroke-linejoin:bevel;stroke-miterlimit:4.1;stroke-dasharray:none;paint-order:markers fill stroke"
       transform="scale(1.0371577,0.96417353)"
       d="m 290.48972,-29.89751 q 0.7472,0 1.3076,-0.226829 0.57374,-0.213487 0.97403,-0.587088 0.41363,-0.373601 0.68049,-0.867289 0.26686,-0.50703 0.42697,-1.080775 0.16012,-0.573744 0.21349,-1.174175 0.0667,-0.613773 0.0667,-1.187518 0,-0.867288 -0.16011,-1.761263 -0.14677,-0.907317 -0.5604,-1.627834 -0.40029,-0.733859 -1.12081,-1.187518 -0.70717,-0.467001 -1.82797,-0.467001 -1.12081,0 -1.82798,0.467001 -0.70718,0.467002 -1.10746,1.200861 -0.40029,0.720517 -0.5604,1.627834 -0.14678,0.893975 -0.14678,1.74792 0,0.573745 0.0534,1.174175 0.0667,0.600431 0.21349,1.174176 0.16012,0.573744 0.42697,1.080775 0.26686,0.493687 0.66715,0.880631 0.41363,0.373601 0.97403,0.587088 0.5604,0.226829 1.30761,0.226829 z m 0,-8.165855 q 0.52037,0 0.78723,0.333572 0.2802,0.333573 0.40028,0.813917 0.12009,0.480345 0.12009,1.000718 0.0133,0.520373 0.0133,0.893974 0,0.373601 -0.0133,0.907317 0,0.533716 -0.12009,1.027404 -0.10674,0.493687 -0.38694,0.840602 -0.26686,0.346916 -0.80057,0.346916 -0.34692,0 -0.58709,-0.160115 -0.22683,-0.173458 -0.3736,-0.426973 -0.14678,-0.266858 -0.21349,-0.60043 -0.0667,-0.346916 -0.0934,-0.693831 -0.0267,-0.346916 -0.0267,-0.667145 0,-0.333573 0,-0.573745 0,-0.360258 0,-0.880631 0.0134,-0.520373 0.12009,-1.000718 0.12009,-0.480344 0.38694,-0.813917 0.26686,-0.346915 0.78724,-0.346915 z" /><g
       id="g2"
       transform="matrix(0.70291527,0,0,0.70291527,200.7341,-70.667707)"
       style="fill:#000000;fill-opacity:1;stroke:none;stroke-width:0;stroke-dasharray:none"><path
         id="path4-31"
         style="font-size:33.0283px;font-family:KyrillaSansSerif-Black;-inkscape-font-specification:KyrillaSansSerif-Black;fill:#000000;fill-opacity:1;fill-rule:evenodd;stroke:none;stroke-width:0;stroke-dasharray:none"
         d="m 118.62518,99.509942 h 6.10152 c -0.46174,-0.857248 -0.74758,-1.702909 -0.85752,-2.536986 -0.10994,-0.857248 -0.1649,-1.587066 -0.1649,-2.189454 v -9.487635 c 0,-1.274285 -0.27485,-2.293713 -0.82453,-3.058284 -0.52769,-0.78774 -1.19832,-1.39013 -2.01184,-1.807169 -0.79155,-0.417038 -1.66006,-0.68348 -2.60552,-0.799325 -0.92347,-0.139012 -1.78098,-0.208519 -2.57253,-0.208519 -0.96744,0 -1.94587,0.104265 -2.9353,0.312779 -0.98944,0.20852 -1.89092,0.590805 -2.70447,1.146857 -0.79153,0.556052 -1.46215,1.320623 -2.01184,2.293714 -0.54968,0.949921 -0.85751,2.166285 -0.92347,3.64909 h 5.73871 c 0.0879,-1.112104 0.3518,-1.86509 0.79155,-2.258961 0.43975,-0.39387 1.04441,-0.590805 1.81397,-0.590805 0.83551,0 1.46216,0.127429 1.87991,0.382286 0.41777,0.231688 0.62665,0.764571 0.62665,1.598649 0,0.324363 -0.10995,0.590805 -0.32982,0.799324 -0.19789,0.185351 -0.54968,0.335948 -1.05539,0.451793 -0.5057,0.139012 -1.09937,0.243272 -1.78098,0.312779 -0.65962,0.04634 -1.34123,0.115846 -2.04482,0.208519 -0.72559,0.115844 -1.45118,0.278026 -2.17676,0.486546 -0.72559,0.208518 -1.38521,0.532882 -1.97888,0.97309 -0.59366,0.440208 -1.07736,1.031013 -1.45116,1.772415 -0.37379,0.741402 -0.56069,1.702908 -0.56069,2.884518 0,1.042597 0.16491,1.957767 0.49472,2.745506 0.35181,0.764572 0.81355,1.401715 1.38521,1.911429 0.59366,0.509714 1.27527,0.880414 2.04483,1.112103 0.76956,0.254854 1.5831,0.382284 2.44061,0.382284 0.92347,0 1.84694,-0.12743 2.7704,-0.382284 0.94547,-0.254857 1.80298,-0.695065 2.57253,-1.320623 0.0441,0.185351 0.0879,0.370701 0.13193,0.556052 0.066,0.185351 0.13193,0.405454 0.19788,0.660312 z m -0.69259,-8.514543 v 0.938337 c 0,1.204779 -0.25285,2.096779 -0.75857,2.675999 -0.5057,0.556052 -1.33024,0.834077 -2.47358,0.834077 -0.72558,0 -1.29727,-0.127428 -1.71502,-0.382285 -0.41776,-0.254856 -0.62664,-0.741403 -0.62664,-1.459636 0,-0.671896 0.19789,-1.146856 0.59366,-1.424883 0.41775,-0.278026 0.97843,-0.474961 1.68204,-0.590805 0.54968,-0.115844 1.11036,-0.18535 1.68202,-0.208519 0.57168,-0.04634 1.12137,-0.173769 1.64907,-0.382285 z" /><path
         id="path4-3-6"
         style="font-size:33.0283px;font-family:KyrillaSansSerif-Black;-inkscape-font-specification:KyrillaSansSerif-Black;fill:#000000;fill-opacity:1;fill-rule:evenodd;stroke:none;stroke-width:0;stroke-dasharray:none"
         d="m 198.95842,99.926986 h 6.10152 c -0.46174,-0.85724 -0.74758,-1.70291 -0.85752,-2.536983 -0.10994,-0.857248 -0.1649,-1.587066 -0.1649,-2.189454 v -9.487635 c 0,-1.274285 -0.27485,-2.293713 -0.82453,-3.058284 -0.52769,-0.78774 -1.19832,-1.39013 -2.01184,-1.807169 -0.79155,-0.417038 -1.66006,-0.68348 -2.60552,-0.799325 -0.92347,-0.139012 -1.78098,-0.208519 -2.57253,-0.208519 -0.96744,0 -1.94587,0.104265 -2.9353,0.312779 -0.98944,0.20852 -1.89092,0.590805 -2.70447,1.146857 -0.79153,0.556052 -1.46215,1.320623 -2.01184,2.293714 -0.54968,0.949921 -0.85751,2.166285 -0.92347,3.64909 h 5.73871 c 0.0879,-1.112104 0.3518,-1.86509 0.79155,-2.258961 0.43975,-0.39387 1.04441,-0.590805 1.81397,-0.590805 0.83551,0 1.46216,0.127429 1.87991,0.382286 0.41777,0.231688 0.62665,0.764571 0.62665,1.598649 0,0.324363 -0.10995,0.590805 -0.32982,0.799324 -0.19789,0.185351 -0.54968,0.335948 -1.05539,0.451793 -0.5057,0.139012 -1.09937,0.243272 -1.78098,0.312779 -0.65962,0.04634 -1.34123,0.115846 -2.04482,0.208519 -0.72559,0.115844 -1.45118,0.278026 -2.17676,0.486546 -0.72559,0.208518 -1.38521,0.532882 -1.97888,0.97309 -0.59366,0.440208 -1.07736,1.031013 -1.45116,1.772415 -0.37379,0.741402 -0.56069,1.702908 -0.56069,2.884518 0,1.042597 0.16491,1.957767 0.49472,2.745506 0.35181,0.764572 0.81355,1.40172 1.38521,1.91143 0.59366,0.50971 1.27527,0.88041 2.04483,1.112094 0.76956,0.25486 1.5831,0.38229 2.44061,0.38229 0.92347,0 1.84694,-0.12743 2.7704,-0.38229 0.94547,-0.254844 1.80298,-0.695054 2.57253,-1.320614 0.0441,0.18535 0.0879,0.3707 0.13193,0.55605 0.066,0.18535 0.13193,0.40546 0.19788,0.66031 z m -0.69259,-8.51454 v 0.938337 c 0,1.204779 -0.25285,2.096779 -0.75857,2.675999 -0.5057,0.556052 -1.33024,0.834077 -2.47358,0.834077 -0.72558,0 -1.29727,-0.127428 -1.71502,-0.382285 -0.41776,-0.254856 -0.62664,-0.741403 -0.62664,-1.459636 0,-0.671896 0.19789,-1.146856 0.59366,-1.424883 0.41775,-0.278026 0.97843,-0.474961 1.68204,-0.590805 0.54968,-0.115844 1.11036,-0.18535 1.68202,-0.208519 0.57168,-0.04634 1.12137,-0.173769 1.64907,-0.382285 z" /><path
         style="font-size:33.0283px;font-family:KyrillaSansSerif-Black;-inkscape-font-specification:KyrillaSansSerif-Black;fill:#000000;fill-opacity:1;fill-rule:evenodd;stroke:none;stroke-width:0;stroke-dasharray:none"
         d="m 88.920512,99.701084 h 6.829301 L 88.437308,87.49191 95.363248,80.030748 H 88.405094 L 83.37976,85.81404 V 73.705661 h -5.637395 v 25.995423 h 5.669609 v -6.711476 l 1.127479,-1.213778 z"
         id="path2-7"
         sodipodi:nodetypes="ccccccccccccc" /><path
         style="font-size:33.0283px;font-family:KyrillaSansSerif-Black;-inkscape-font-specification:KyrillaSansSerif-Black;fill:#000000;fill-opacity:1;fill-rule:evenodd;stroke:none;stroke-width:0;stroke-dasharray:none"
         d="m 68.322491,100.53516 c 0.998817,0 1.997634,-0.11584 2.996451,-0.34753 0.998817,-0.231686 1.897751,-0.613972 2.696804,-1.146855 0.799054,-0.532883 1.453834,-1.251116 1.964341,-2.154701 0.510505,-0.903583 0.765758,-2.038856 0.765758,-3.405816 0,-0.99626 -0.177567,-1.818753 -0.532702,-2.467481 C 75.858008,90.340881 75.391894,89.796414 74.8148,89.379375 74.259902,88.939167 73.627318,88.591634 72.917048,88.336778 72.228974,88.081921 71.551999,87.861817 70.886122,87.676466 70.220244,87.514284 69.565464,87.363688 68.921781,87.224675 68.300295,87.085662 67.7343,86.92348 67.223793,86.738129 c -0.48831,-0.185351 -0.832346,-0.382285 -1.03211,-0.590805 -0.199763,-0.20852 -0.299645,-0.440208 -0.299645,-0.695065 0,-0.278025 0.06659,-0.498129 0.199763,-0.660311 0.155372,-0.162182 0.332939,-0.278026 0.532703,-0.347533 0.221959,-0.09268 0.455017,-0.139013 0.699171,-0.139013 0.244155,-0.02317 0.466115,-0.03476 0.665877,-0.03476 0.776859,0 1.409443,0.173766 1.897753,0.521298 0.48831,0.324365 0.765758,0.996261 0.832346,2.015689 h 5.593374 c -0.11098,-1.413299 -0.421723,-2.57174 -0.93223,-3.475324 -0.510505,-0.926753 -1.14309,-1.656571 -1.89775,-2.189454 -0.754662,-0.532883 -1.598107,-0.903584 -2.530336,-1.112104 -0.932229,-0.208519 -1.875556,-0.312779 -2.82998,-0.312779 -0.93223,0 -1.875556,0.09268 -2.829981,0.278026 -0.954425,0.185351 -1.820065,0.521298 -2.596923,1.007844 -0.776858,0.486546 -1.409442,1.158441 -1.897752,2.015688 -0.48831,0.857246 -0.732465,1.946181 -0.732465,3.266804 0,0.903584 0.155372,1.656571 0.466114,2.258961 0.310743,0.602389 0.721368,1.112103 1.231874,1.529142 0.532702,0.39387 1.131991,0.729817 1.797869,1.007844 0.665879,0.254856 1.342855,0.474961 2.030928,0.660312 0.710269,0.18535 1.409442,0.359116 2.097515,0.521298 0.688074,0.139012 1.309559,0.324363 1.864458,0.556052 0.510505,0.18535 0.86564,0.393869 1.065404,0.625557 0.199763,0.20852 0.299645,0.440209 0.299645,0.695065 0,0.625559 -0.255254,1.088936 -0.765759,1.390131 -0.510507,0.301194 -1.109796,0.451791 -1.79787,0.451791 -0.843446,0 -1.564814,-0.231689 -2.164103,-0.695065 -0.59929,-0.463376 -0.910032,-1.28587 -0.932228,-2.467479 h -5.593374 c 0.06658,1.505974 0.355132,2.757091 0.865641,3.75335 0.532703,0.97309 1.209678,1.760829 2.030927,2.363219 0.821249,0.579221 1.731282,0.984676 2.730099,1.216362 0.998817,0.25485 2.008732,0.38228 3.029743,0.38228 z"
         id="path1-5" /><path
         style="font-size:33.0283px;font-family:KyrillaSansSerif-Black;-inkscape-font-specification:KyrillaSansSerif-Black;fill:#000000;fill-opacity:1;fill-rule:evenodd;stroke:none;stroke-width:0;stroke-dasharray:none"
         d="m 53.21229,99.701084 h 5.963907 V 73.705662 h -5.995296 z"
         id="text1-48" /><path
         style="font-size:33.0283px;font-family:KyrillaSansSerif-Black;-inkscape-font-specification:KyrillaSansSerif-Black;fill:#000000;fill-opacity:1;fill-rule:evenodd;stroke:none;stroke-width:0;stroke-dasharray:none"
         d="m 183.23031,99.90961 q 0.67744,0 1.4194,-0.06951 0.74196,-0.03476 1.77426,-0.20852 v -5.039218 q -0.80648,0.173765 -1.22585,0.208519 -0.38711,0.03475 -0.74197,0.03475 -0.45162,0 -0.74196,-0.03475 -0.25808,-0.03476 -0.41937,-0.173766 -0.12903,-0.173766 -0.19356,-0.451793 -0.0323,-0.312779 -0.0323,-0.834077 v -8.340777 h 3.35497 v -4.448411 h -3.35497 v -5.386753 h -5.64538 v 5.421506 h -2.77429 v 4.448414 h 2.77429 v 10.008933 q 0,1.529142 0.4839,2.502232 0.51614,0.938339 1.32263,1.459637 0.83874,0.521299 1.87104,0.695064 1.06455,0.20852 2.12912,0.20852 z"
         id="path11-8" /><path
         style="font-size:33.0283px;font-family:KyrillaSansSerif-Black;-inkscape-font-specification:KyrillaSansSerif-Black;fill:#000000;fill-opacity:1;fill-rule:evenodd;stroke:none;stroke-width:0;stroke-dasharray:none"
         d="m 177.72619,94.752544 h 5.77995 V 70.047375 h -5.81298 z"
         id="path10-9"
         transform="scale(0.95036618,1.052226)" /><path
         id="path8-5"
         style="font-size:33.0283px;font-family:KyrillaSansSerif-Black;-inkscape-font-specification:KyrillaSansSerif-Black;fill:#000000;fill-opacity:1;fill-rule:evenodd;stroke:none;stroke-width:0;stroke-dasharray:none"
         d="m 167.86637,91.951119 q 0.034,-0.660312 0.034,-0.938338 0,-0.312779 0,-0.556052 0,-2.119947 -0.57832,-4.066128 -0.57831,-1.946182 -1.73494,-3.440571 -1.15663,-1.494389 -2.85756,-2.36322 -1.70092,-0.868831 -3.94615,-0.868831 -2.14317,0 -3.91213,0.834078 -1.76896,0.799324 -3.02765,2.224206 -1.22466,1.39013 -1.93905,3.301558 -0.68037,1.876675 -0.68037,4.066129 0,2.258961 0.64635,4.170388 0.68037,1.911429 1.90505,3.301558 1.25867,1.39013 3.02764,2.154701 1.76896,0.764573 3.98016,0.764573 3.33382,0 5.54502,-1.737664 2.24522,-1.772415 3.43587,-5.69953 h -5.40894 q -0.3742,1.216362 -1.39476,1.841921 -1.02056,0.590805 -2.00709,0.590805 -1.73494,0 -2.65345,-0.903584 -0.88447,-0.903585 -1.05458,-2.675999 z m -9.21901,-7.228674 q 1.42878,0 2.10915,0.729819 0.71439,0.695064 1.05458,2.085194 h -6.56559 q 0.27216,-1.320624 1.15665,-2.050441 0.91849,-0.764572 2.24521,-0.764572 z" /><path
         id="text1-4-8"
         style="font-size:33.0283px;font-family:KyrillaSansSerif-Black;-inkscape-font-specification:KyrillaSansSerif-Black;fill:#000000;fill-opacity:1;fill-rule:evenodd;stroke:none;stroke-width:0;stroke-dasharray:none"
         d="m 145.3585,94.752544 q 2.87346,0 4.98727,-0.957821 2.11381,-0.95782 3.501,-2.642264 1.38719,-1.684443 2.08079,-3.963396 0.69359,-2.278953 0.69359,-4.921217 0,-2.609236 -0.72662,-4.85516 -0.6936,-2.245925 -2.11381,-3.864311 -1.42022,-1.651415 -3.53403,-2.576208 -2.08078,-0.924792 -4.88819,-0.924792 h -10.7342 v 24.705169 z m -1.2881,-19.2555 q 1.78352,0 2.97254,0.495425 1.18902,0.495424 1.91564,1.453245 0.75966,0.924793 1.05691,2.278953 0.33028,1.321132 0.33028,3.038604 0,1.387188 -0.33028,2.576207 -0.29725,1.189019 -0.95782,2.080783 -0.62754,0.858736 -1.65142,1.387189 -1.02387,0.495424 -2.41106,0.495424 h -4.09551 v -13.80583 z"
         transform="scale(0.95036618,1.052226)" /><path
         style="font-size:36.4037px;font-family:'Test Söhne';-inkscape-font-specification:'Test Söhne';fill:#000000;fill-opacity:1;fill-rule:evenodd;stroke:none;stroke-width:0;stroke-linecap:round;stroke-linejoin:round;stroke-miterlimit:4.1;stroke-dasharray:none"
         d="m 107.35249,79.776456 c -0.32811,-0.02818 -0.59671,-0.06811 -1.04401,-0.05638 -2.46645,0.06473 -3.82462,1.011733 -4.57034,2.082841 v -1.74758 H 96.070643 V 99.70108 h 5.667497 V 88.00402 c 0,-2.001262 2.24368,-3.294868 4.18256,-3.294868 0.5071,0 0.86504,0.02818 1.43179,0.112744 z"
         id="path16-2"
         sodipodi:nodetypes="cscccccsscc" /></g><path
       id="path5-4-5-2-9"
       style="color:#000000;fill:#000000;fill-opacity:1;fill-rule:evenodd;stroke:none;stroke-width:0;stroke-linecap:round;stroke-linejoin:round;stroke-miterlimit:4.1;stroke-dasharray:none;paint-order:markers fill stroke"
       d="m 217.93334,-18.19742 c -0.27575,2.02e-4 -0.49959,0.224508 -0.49959,0.500257 v 16.6891604 c 1.3e-4,0.27574836 0.22384,0.49958254 0.49959,0.49958254 h 16.68915 c 0.27642,1.3486e-4 0.50026,-0.22383418 0.50026,-0.49958254 V -17.697163 c 1.3e-4,-0.276423 -0.22384,-0.500257 -0.50026,-0.500257 z m 0.50025,0.999974 h 15.68926 v 15.689254 h -15.68926 z m 7.8454,0.46385 c -0.21844,0 -0.40519,0.156415 -0.44363,0.370811 l -0.17056,2.025365 c -1.43329,0.155067 -2.70773,0.846392 -3.61939,1.868615 l -1.51876,-0.732789 c -0.48678,-0.234622 -0.89791,0.431488 -0.46992,0.761712 l 1.26763,0.982849 c -0.45711,0.817469 -0.71876,1.7585175 -0.71876,2.7595031 0,0.6317267 0.10517,1.2383049 0.29664,1.8060493 l -1.39269,1.039752 c -0.42947,0.3182224 -0.0472,0.985816 0.44564,0.7751277 l 1.50374,-0.6344219 c 1.00226,1.6105299 2.78802,2.6856103 4.82033,2.6856103 2.03231,0 3.81766,-1.0750804 4.81932,-2.6856103 l 1.50475,0.6344219 c 0.48879,0.2029348 0.86614,-0.4571075 0.44362,-0.7751277 l -1.39161,-1.040224 c 0.19079,-0.567677 0.29597,-1.1742552 0.29597,-1.8055773 0,-1.0007159 -0.26159,-1.9415621 -0.7183,-2.7588961 l 1.26919,-0.983456 c 0.43891,-0.329684 0.0202,-1.008604 -0.47262,-0.761644 l -1.51769,0.732721 c -0.91138,-1.022358 -2.18549,-1.714155 -3.6189,-1.869087 l -0.16991,-2.024893 c -0.0405,-0.215071 -0.22517,-0.370811 -0.44362,-0.370811 z m -0.77721,3.326574 -0.42138,2.402917 -2.19102,-1.057281 c 0.69173,-0.697124 1.59785,-1.180188 2.61273,-1.345636 z m 1.55335,0 c 1.01488,0.165179 1.9212,0.647906 2.61273,1.345097 l -2.19156,1.05782 z m -0.77614,0.77978 0.41396,2.365163 c 0.0539,0.2946255 0.36946,0.4577815 0.63847,0.3283356 l 1.23452,-0.5953196 -1.14465,0.8863042 c -0.23597,0.1820344 -0.23327,0.5393603 0.005,0.7172151 l 2.12285,1.5859218 -3.09748,-1.3068704 c -0.11191,-0.047191 -0.23799,-0.047191 -0.34991,0 l -3.09539,1.3048475 2.12084,-1.5838989 c 0.23933,-0.1773153 0.24338,-0.5346413 0.007,-0.7172151 l -1.14466,-0.8862362 1.23251,0.595319 c 0.269,0.1294459 0.58723,-0.033705 0.63847,-0.328336 z m -4.2364,1.727504 2.07431,1.6087094 -2.44998,1.8287692 c -0.10517,-0.3937331 -0.16113,-0.8074901 -0.16113,-1.2350682 0,-0.7952863 0.19484,-1.5437164 0.53665,-2.2024104 z m 8.47173,5.4e-4 c 0.34182,0.658693 0.53666,1.4068538 0.53666,2.2018704 0,0.4274433 -0.0539,0.8404585 -0.16114,1.2340568 l -2.44835,-1.8298472 z m -4.23533,3.1547854 3.9821,1.6799739 c -0.85287,1.2895428 -2.31547,2.1383616 -3.9821,2.1383616 -1.66649,0 -3.12971,-0.8484817 -3.98318,-2.1378231 z m -1.57871,0.9957946 c -0.0405,-2.023e-4 -0.0803,0.00496 -0.11933,0.013486 -0.15574,0.033705 -0.28586,0.1436052 -0.34789,0.2838389 -0.12338,0.2804666 0.007,0.6377934 0.35666,0.8825954 0.23664,0.1665275 0.22922,0.310807 0.20967,0.3546297 -0.0135,0.020229 -0.0202,0.033705 -0.0472,0.033705 -0.027,0.00674 -0.0836,0.00496 -0.17056,-0.047191 -0.10249,-0.060677 -0.23463,-0.026972 -0.29666,0.073489 -0.0607,0.1024788 -0.027,0.2352962 0.0742,0.2966487 0.15978,0.09641 0.33035,0.1334908 0.48542,0.099107 0.15575,-0.033705 0.28654,-0.1436052 0.34857,-0.2838389 0.12405,-0.2804675 -0.007,-0.6377934 -0.35666,-0.8825954 -0.23664,-0.1665275 -0.22991,-0.310807 -0.21035,-0.3546297 0.007,-0.020229 0.0202,-0.026972 0.0472,-0.033705 0.027,-0.00496 0.083,-0.00496 0.17058,0.047191 0.10247,0.060677 0.23529,0.026972 0.29664,-0.073489 0.0607,-0.1024788 0.027,-0.2346219 -0.0735,-0.2966487 -0.12001,-0.07214 -0.24609,-0.1112428 -0.36677,-0.1112428 z m 2.10735,0.040448 c -0.027,4.046e-4 -0.0539,0.00244 -0.0769,0.00496 -0.005,0.0014 -0.0135,0.00253 -0.0202,0.00496 -0.007,0.00112 -0.0202,0.00253 -0.027,0.00496 -0.007,0.00253 -0.0202,0.00674 -0.027,0.013486 -0.007,0.00253 -0.0135,0.00674 -0.0202,0.013486 -0.007,0.00496 -0.0202,0.00674 -0.027,0.020229 -0.007,0.00496 -0.0135,0.013486 -0.0202,0.020229 -0.007,0.00674 -0.0135,0.013486 -0.0202,0.020229 -0.005,0.00674 -0.007,0.020229 -0.0135,0.026972 -0.005,0.00674 -0.007,0.020229 -0.007,0.026972 -0.003,0.00674 -0.005,0.020229 -0.007,0.026972 -0.002,0.013486 -0.003,0.020229 -0.005,0.026962 -8e-4,0.00496 -0.002,0.00674 -0.002,0.013486 v 1.4551947 c -2e-4,0.1200077 0.0971,0.2164188 0.21642,0.2164188 0.11933,0 0.21642,-0.097085 0.21575,-0.2164188 v -0.013486 l 0.23731,0.1840573 c 0.0944,0.073489 0.22991,0.053934 0.3034,-0.040448 0.0728,-0.094388 0.0539,-0.2305771 -0.0405,-0.3033907 l -0.17327,-0.134166 c 0.0674,-0.047191 0.12338,-0.1024779 0.17057,-0.1624818 0.13687,-0.1759667 0.17125,-0.3950817 0.12675,-0.5825096 -0.0843,-0.3512582 -0.40519,-0.6310514 -0.78854,-0.6249836 z m -2.89751,0.00253 c -0.11933,6.74e-5 -0.21575,0.09641 -0.21575,0.2157436 v 1.4551947 c -1.9e-4,0.1193334 0.0964,0.2164188 0.21575,0.2164188 0.11933,2.697e-4 0.21642,-0.096411 0.21642,-0.2164188 v -1.4551947 c -7e-5,-0.1193334 -0.0971,-0.2164179 -0.21642,-0.2157436 z m 1.70168,0 c -0.11933,6.74e-5 -0.21574,0.09641 -0.21574,0.2157436 v 1.4551947 c 6e-4,0.00496 9.4e-4,0.00674 0.002,0.013486 6.8e-4,0.013486 0.002,0.020229 0.005,0.026972 0.002,0.013486 0.005,0.020229 0.007,0.026972 0.003,0.00674 0.007,0.020229 0.0135,0.026972 0.005,0.00674 0.007,0.020229 0.0135,0.026972 0.005,0.00674 0.007,0.013486 0.0202,0.020229 0.005,0.00674 0.0135,0.013486 0.0202,0.020229 0.007,0.00674 0.0135,0.013486 0.0202,0.020229 0.007,0.00496 0.0135,0.013486 0.027,0.013486 0.003,0.00253 0.007,0.00496 0.007,0.00674 0.005,0.00178 0.0135,0.00253 0.0135,0.00496 0.007,0.00253 0.0202,0.00496 0.027,0.00674 0.007,0.0014 0.0202,0.00225 0.027,0.00253 0.005,8.756e-4 0.0135,0.00159 0.0135,0.00206 0.005,-2.022e-4 0.007,-5.394e-4 0.0135,-0.00103 0.007,-2.688e-4 0.0202,-0.00112 0.027,-0.00253 0.007,-0.00187 0.0202,-0.00496 0.027,-0.00674 0.007,-0.00253 0.0202,-0.00496 0.027,-0.013486 0.007,-0.00496 0.0202,-0.00674 0.027,-0.013486 0.007,-0.00496 0.0135,-0.00674 0.0202,-0.020229 0.007,-0.00496 0.0135,-0.013486 0.0202,-0.020229 0.005,-0.00674 0.0135,-0.013486 0.0202,-0.020229 0.005,-0.00674 0.0135,-0.020229 0.0135,-0.026972 0.002,-0.00253 0.005,-0.00674 0.005,-0.013486 l 0.0337,-0.084277 0.21844,0.1692237 c 0.0944,0.073489 0.22991,0.053934 0.3034,-0.040448 0.0735,-0.094387 0.0539,-0.2299019 -0.0405,-0.3033898 l -0.30743,-0.2379925 0.41396,-0.9611405 c 0.0472,-0.1098951 -0.003,-0.2366448 -0.11328,-0.2838389 -0.0539,-0.020229 -0.11191,-0.020229 -0.1645,-0.00215 -0.0539,0.020229 -0.0964,0.060677 -0.11865,0.1152876 l -0.2117,0.4921672 v -0.4058696 c -7e-5,-0.1193334 -0.0964,-0.2157436 -0.21575,-0.2157436 z m 2.63141,0 c -0.007,4.046e-4 -0.0135,0.00131 -0.0202,0.00253 -0.0135,8.092e-4 -0.0202,0.00243 -0.0337,0.00496 -4e-4,2.023e-4 -6.7e-4,4.046e-4 -9.3e-4,5.385e-4 -0.005,0.00225 -0.0135,0.00496 -0.0202,0.00674 -0.0135,0.00496 -0.0202,0.00674 -0.0337,0.013486 -0.005,0.00496 -0.0135,0.00674 -0.0202,0.013486 -0.0135,0.00674 -0.0202,0.013486 -0.027,0.020229 -0.005,0.00496 -0.007,0.013486 -0.0135,0.020229 -0.007,0.00674 -0.0135,0.020229 -0.0202,0.026972 -0.003,0.00674 -0.007,0.013486 -0.007,0.020229 -0.005,0.00674 -0.007,0.020229 -0.0135,0.026972 l -0.40318,1.4558016 c -0.0337,0.1152886 0.0337,0.234622 0.15103,0.2663092 0.11461,0.033705 0.23327,-0.033705 0.26563,-0.1503463 l 0.0405,-0.1463024 h 0.30878 l 0.0405,0.1463024 c 0.0337,0.1152876 0.15102,0.1827078 0.26631,0.1503463 0.11528,-0.033705 0.1827,-0.1510206 0.15035,-0.2663092 l -0.085,-0.3047384 c 0,-2.022e-4 0,-3.371e-4 0,-5.394e-4 l -0.31822,-1.149782 c -1.4e-4,-5.395e-4 -3.3e-4,-0.00112 -4.7e-4,-0.00159 -0.005,-0.020229 -0.0135,-0.033705 -0.0202,-0.047191 -3.4e-4,-6.734e-4 -6.8e-4,-0.0014 -9.4e-4,-0.00206 -0.007,-0.013486 -0.0202,-0.026972 -0.0337,-0.040448 -3.4e-4,-4.72e-4 -6.8e-4,-0.00103 -9.4e-4,-0.00159 -0.0135,-0.013486 -0.027,-0.026972 -0.0472,-0.033705 -3.4e-4,-1.349e-4 -6.8e-4,-3.372e-4 -9.4e-4,-4.72e-4 -0.0135,-0.00674 -0.0337,-0.013486 -0.0472,-0.020229 -6.7e-4,0 -9.4e-4,0 -0.002,0 -0.007,-0.00131 -0.0202,-0.00215 -0.027,-0.00253 -0.007,-0.00234 -0.0202,-0.00496 -0.027,-0.00496 h -9.3e-4 c -6.8e-4,0 -9.4e-4,0 -0.002,0 z m -1.27229,0.4739631 c 0.10046,0.053934 0.18271,0.1516949 0.20564,0.248105 0.0202,0.077535 0.007,0.1422567 -0.0472,0.2164189 -0.0337,0.040448 -0.0816,0.083603 -0.15844,0.1240525 z m 1.27229,0.5514958 0.0337,0.1254011 h -0.0701 z"
       sodipodi:nodetypes="ccccccccccccccsccccccsccccsccccsccccccsscccccccccccccccccccccccccccssccscccccsccsccssccccscssccccsscccccccccsccccccsccscccscccccccccccccssccssccccccccccccccsccccccccccccccccccccccccccccsccccccccccccccscccccsccccscccccc" /></g></svg>
