<?xml version="1.0" encoding="UTF-8" standalone="no"?>
<!-- Created with Inkscape (http://www.inkscape.org/) -->

<svg
   width="183.8548mm"
   height="25.853413mm"
   viewBox="0 0 183.8548 25.853413"
   version="1.1"
   id="svg1"
   xml:space="preserve"
   inkscape:version="1.3 (0e150ed6c4, 2023-07-21)"
   sodipodi:docname="logo-delta-vector-mirrored.svg"
   xmlns:inkscape="http://www.inkscape.org/namespaces/inkscape"
   xmlns:sodipodi="http://sodipodi.sourceforge.net/DTD/sodipodi-0.dtd"
   xmlns="http://www.w3.org/2000/svg"
   xmlns:svg="http://www.w3.org/2000/svg"><sodipodi:namedview
     id="namedview1"
     pagecolor="#ffffff"
     bordercolor="#000000"
     borderopacity="0.25"
     inkscape:showpageshadow="2"
     inkscape:pageopacity="0.0"
     inkscape:pagecheckerboard="0"
     inkscape:deskcolor="#d1d1d1"
     inkscape:document-units="mm"
     showguides="true"
     inkscape:zoom="0.78346014"
     inkscape:cx="169.75975"
     inkscape:cy="867.30641"
     inkscape:window-width="1920"
     inkscape:window-height="1002"
     inkscape:window-x="-8"
     inkscape:window-y="-8"
     inkscape:window-maximized="1"
     inkscape:current-layer="layer1" /><defs
     id="defs1" /><g
     inkscape:label="Layer 1"
     inkscape:groupmode="layer"
     id="layer1"
     transform="translate(-13.56417,-179.26144)"><g
       id="g71"
       transform="matrix(-1,0,0,1,210.98314,0)"><path
         style="fill:#000000;fill-opacity:1;stroke:none;stroke-width:0.0999998;stroke-opacity:1"
         d="m 104.15901,196.51076 c 0.28125,0 0.53753,-0.0837 0.77722,-0.26871 0.33882,-0.26157 0.52425,-0.42276 0.87729,-0.88744 0.55246,-0.72715 0.007,-0.87664 -0.49695,-0.88197 -0.52512,-0.006 -0.8331,0.007 -0.95085,0.31419 -0.15089,0.39384 0.10406,0.97566 -0.66559,0.97566 -0.76966,0 -0.51471,-0.58182 -0.6656,-0.97566 -0.11775,-0.30719 -0.42573,-0.32019 -0.95085,-0.31419 -0.50395,0.005 -1.04941,0.15482 -0.49695,0.88197 0.35304,0.46468 0.53847,0.62587 0.87729,0.88744 0.23969,0.18501 0.49597,0.26871 0.77722,0.26871 h 0.45889 z"
         id="path6"
         sodipodi:nodetypes="sssccsccssscs"
         inkscape:export-filename="path6.svg"
         inkscape:export-xdpi="96"
         inkscape:export-ydpi="96" /><path
         d="m 48.145604,201.27536 c 0,-0.64529 -0.08044,-0.77435 -0.530907,-0.90341 -0.466554,-0.11288 -0.530906,-0.22584 -0.530906,-0.74207 v -0.0807 c 0,-0.72595 0.128704,-0.85501 0.852668,-0.85501 h 1.25487 c 0.75614,0 0.997462,-0.12906 0.997462,-0.5969 0,-0.43557 -0.241322,-0.58075 -0.997462,-0.58075 h -2.043186 c -1.077902,0 -1.238782,0.16132 -1.238782,1.27444 v 4.95259 c 0,1.1938 0.144793,1.37124 1.158342,1.37124 0.884845,0 1.077901,-0.24198 1.077901,-1.37124 z m 8.816273,-2.48436 c 0,-1.12926 -0.144792,-1.27445 -1.238781,-1.27445 h -3.426763 c -1.09399,0 -1.238782,0.16133 -1.238782,1.27445 v 0.19358 c 0,0.69369 0.128705,0.90341 0.579171,0.90341 0.337849,0 0.530906,-0.17746 0.57917,-0.53236 l 0.03218,-0.22586 c 0.04826,-0.3549 0.209145,-0.45169 0.75614,-0.45169 h 1.930571 c 0.740051,0 0.83658,0.11288 0.83658,0.855 v 0.14519 c 0,0.74208 -0.112612,0.85501 -0.852668,0.85501 h -2.622359 c -1.093989,0 -1.238781,0.16132 -1.238781,1.27445 l -0.01609,2.06492 c 0,1.06473 0.193058,1.24218 1.254871,1.24218 h 3.410674 c 1.061813,0 1.25487,-0.17745 1.25487,-1.24218 z m -1.190517,3.82334 v 0.48397 c 0,0.72594 -0.112612,0.83887 -0.852668,0.83887 h -0.772229 c -0.788316,0 -0.868756,-0.0807 -0.868756,-0.85501 v -0.51623 c 0,-0.72595 0.128704,-0.855 0.852668,-0.855 h 0.804404 c 0.75614,0 0.836581,0.0968 0.836581,0.9034 z m 8.381892,0.50009 c 0,-0.77434 -0.128705,-0.98407 -0.579171,-0.98407 -0.450467,0 -0.595259,0.22586 -0.595259,0.98407 v 0.0807 c 0,0.61303 -0.160881,0.74209 -0.868757,0.74209 h -0.756141 c -0.788315,0 -0.868756,-0.0807 -0.868756,-0.85502 v -1.41963 c 0,-0.64529 -0.08044,-0.79048 -0.530906,-0.9034 -0.450467,-0.12906 -0.530908,-0.22585 -0.530908,-0.74209 v -0.48396 c 0,-0.72596 0.128706,-0.83888 0.85267,-0.83888 h 1.866217 c 0.707876,0 0.772228,0.0484 0.836581,0.62915 0.04826,0.51624 0.193057,0.70982 0.563083,0.70982 0.450466,0 0.611347,-0.25811 0.611347,-0.88726 v -0.35492 c 0,-1.11312 -0.144794,-1.27445 -1.238783,-1.27445 h -3.426762 c -1.077902,0 -1.238783,0.16133 -1.238783,1.27445 v 5.08165 c 0,1.06474 0.17697,1.24218 1.238783,1.24218 h 3.426762 c 1.045725,0 1.238783,-0.19358 1.238783,-1.20991 0,-0.0161 0,-0.0161 0,-0.0323 z m 5.856062,2.0004 c 1.061813,0 1.238781,-0.17745 1.238781,-1.24218 v -5.4043 c 0,-0.75821 -0.128704,-0.98406 -0.57917,-0.98406 -0.450466,0 -0.59526,0.24199 -0.59526,0.98406 v 4.61382 c 0,0.74208 -0.112612,0.85501 -0.852668,0.85501 h -0.772228 c -0.788316,0 -0.868757,-0.0807 -0.868757,-0.85501 v -1.80681 c 0,-0.64529 -0.08044,-0.77435 -0.530906,-0.90341 -0.466555,-0.11288 -0.530907,-0.22584 -0.530907,-0.74207 v -1.16153 c 0,-0.75821 -0.128704,-0.98406 -0.579172,-0.98406 -0.450466,0 -0.595258,0.24199 -0.595258,0.98406 v 5.4043 c 0,1.06473 0.176969,1.24218 1.238782,1.24218 z m 3.764618,-7.59828 c -1.077901,0 -1.238782,0.16133 -1.238782,1.27445 v 4.95259 c 0,1.19379 0.144792,1.37124 1.17443,1.37124 0.884845,0 1.077901,-0.24198 1.077901,-1.37124 v -2.11332 c 0,-0.64529 -0.08044,-0.77434 -0.530907,-0.9034 -0.450466,-0.11289 -0.530906,-0.22586 -0.530906,-0.74209 v -0.4517 c 0,-0.72595 0.128704,-0.855 0.852668,-0.855 h 1.834042 c 0.740052,0 0.852668,0.11288 0.852668,0.855 v 4.59769 c 0,0.75822 0.128705,0.98406 0.579171,0.98406 0.450467,0 0.595259,-0.24198 0.595259,-1.0002 V 198.791 c 0,-1.11312 -0.160881,-1.27445 -1.238782,-1.27445 z m 11.7604,1.27445 c 0,-1.12926 -0.144794,-1.27445 -1.238783,-1.27445 h -3.426762 c -1.093991,0 -1.238783,0.16133 -1.238783,1.27445 v 0.19358 c 0,0.69369 0.128705,0.90341 0.579171,0.90341 0.33785,0 0.530906,-0.17746 0.579172,-0.53236 l 0.03218,-0.22586 c 0.04826,-0.3549 0.209146,-0.45169 0.756141,-0.45169 h 1.93057 c 0.740052,0 0.83658,0.11288 0.83658,0.855 v 0.14519 c 0,0.74208 -0.112612,0.85501 -0.852668,0.85501 h -2.622357 c -1.093991,0 -1.238783,0.16132 -1.238783,1.27445 l -0.01608,2.06492 c 0,1.06473 0.193057,1.24218 1.254871,1.24218 h 3.410673 c 1.061815,0 1.254872,-0.17745 1.254872,-1.24218 z m -1.190519,3.82334 v 0.48397 c 0,0.72594 -0.112612,0.83887 -0.852668,0.83887 h -0.772228 c -0.788317,0 -0.868757,-0.0807 -0.868757,-0.85501 v -0.51623 c 0,-0.72595 0.128704,-0.855 0.852668,-0.855 h 0.804404 c 0.75614,0 0.836581,0.0968 0.836581,0.9034 z m 4.713807,-4.24278 c 0,-0.64528 -0.08044,-0.77435 -0.530906,-0.90341 -0.466555,-0.11288 -0.530907,-0.22585 -0.530907,-0.74207 v -1.41964 c 0,-0.75821 -0.128704,-0.98407 -0.579172,-0.98407 -0.450466,0 -0.595258,0.24198 -0.595258,0.98407 v 8.43715 c 0,1.19379 0.144792,1.37124 1.158341,1.37124 0.884845,0 1.077902,-0.24198 1.077902,-1.37124 z m 2.52583,-0.85501 c -1.077902,0 -1.238783,0.16133 -1.238783,1.27445 v 4.95259 c 0,1.19379 0.144793,1.37124 1.17443,1.37124 0.884845,0 1.077902,-0.24198 1.077902,-1.37124 v -2.11332 c 0,-0.64529 -0.08044,-0.77434 -0.530907,-0.9034 -0.450466,-0.11289 -0.530906,-0.22586 -0.530906,-0.74209 v -0.4517 c 0,-0.72595 0.128704,-0.855 0.852668,-0.855 h 1.834042 c 0.740052,0 0.852669,0.11288 0.852669,0.855 v 4.59769 c 0,0.75822 0.128704,0.98406 0.57917,0.98406 0.450466,0 0.595259,-0.24198 0.595259,-1.0002 V 198.791 c 0,-1.11312 -0.16088,-1.27445 -1.238782,-1.27445 z m 8.204929,-2.17785 c 0,-0.0161 0,-0.0323 0,-0.0323 0,-0.74209 -0.257416,-0.96795 -1.093991,-0.96795 -0.868757,0 -1.158342,0.25813 -1.158342,1.03247 0,0.72595 0.25741,0.93567 1.126166,0.93567 0.852667,0 1.126167,-0.22585 1.126167,-0.96794 z m -0.01605,5.93666 c 0,-0.64529 -0.08048,-0.77435 -0.530916,-0.90341 -0.450462,-0.11288 -0.514814,-0.22584 -0.514814,-0.74207 v -1.16153 c 0,-0.75821 -0.144793,-0.98406 -0.595259,-0.98406 -0.434379,0 -0.579171,0.24199 -0.579171,0.98406 v 5.27524 c 0,1.19379 0.144792,1.37124 1.158341,1.37124 0.884847,0 1.061819,-0.24198 1.061819,-1.37124 z m 6.917881,0.53237 c 0,-1.11313 -0.16087,-1.27445 -1.23878,-1.27445 h -2.65453 c -0.74005,0 -0.85267,-0.11289 -0.85267,-0.85501 v -0.12906 c 0,-0.74208 0.0965,-0.85501 0.85267,-0.85501 h 1.89839 c 0.64352,0 0.74006,0.0807 0.80441,0.58076 0.0483,0.45171 0.20914,0.62917 0.59525,0.62917 0.41829,0 0.59526,-0.22586 0.59526,-0.77436 V 198.791 c 0,-1.11312 -0.16087,-1.27445 -1.23878,-1.27445 h -3.45893 c -1.07791,0 -1.23878,0.16133 -1.23878,1.27445 v 1.67775 c 0,1.06473 0.19305,1.25831 1.25486,1.25831 h 1.57663 c 0.75614,0 0.85267,0.0968 0.85267,0.83888 v 0.53237 c 0,0.74207 -0.11258,0.855 -0.85267,0.855 h -0.85267 c -0.65961,0 -0.77222,-0.11288 -0.8044,-0.79048 -0.0322,-0.59689 -0.16088,-0.79047 -0.57917,-0.79047 -0.43438,0 -0.57917,0.24198 -0.57917,0.96793 v 0.53236 c 0,1.06473 0.19306,1.24218 1.25487,1.24218 h 3.41068 c 1.06181,0 1.25486,-0.17745 1.25486,-1.24218 z m 5.85606,2.32304 c 0,0.75822 0.1287,0.98406 0.57917,0.98406 0.45047,0 0.59526,-0.24198 0.59526,-1.0002 v -3.09738 c 0,-0.6453 -0.0805,-0.77435 -0.53091,-0.90341 -0.45046,-0.11289 -0.53091,-0.22585 -0.53091,-0.74208 v -0.88727 c 0,-0.75821 -0.12871,-1.0002 -0.57917,-1.0002 -0.45047,0 -0.59526,0.24199 -0.59526,1.0002 v 0.72595 c 0,0.72594 -0.11258,0.83888 -0.86875,0.83888 h -0.75614 c -0.78832,0 -0.86876,-0.0807 -0.86876,-0.85501 v -3.88787 c 0,-0.75821 -0.1287,-0.98407 -0.59526,-0.98407 -0.43438,0 -0.57917,0.24198 -0.57917,0.98407 v 8.43715 c 0,1.19379 0.14479,1.37124 1.15834,1.37124 0.88485,0 1.0779,-0.24198 1.0779,-1.37124 v -1.66162 c 0,-0.72595 0.11258,-0.85501 0.83659,-0.85501 h 0.8044 c 0.74005,0 0.85267,0.11289 0.85267,0.85501 z m 4.61727,-8.79207 c 0,-0.0161 0,-0.0323 0,-0.0323 0,-0.74209 -0.2574,-0.96795 -1.09399,-0.96795 -0.86875,0 -1.15834,0.25813 -1.15834,1.03247 0,0.72595 0.25741,0.93567 1.12616,0.93567 0.85267,0 1.12617,-0.22585 1.12617,-0.96794 z m -0.016,5.93666 c 0,-0.64529 -0.0805,-0.77435 -0.53091,-0.90341 -0.45046,-0.11288 -0.51481,-0.22584 -0.51481,-0.74207 v -1.16153 c 0,-0.75821 -0.14481,-0.98406 -0.59527,-0.98406 -0.43437,0 -0.57916,0.24199 -0.57916,0.98406 v 5.27524 c 0,1.19379 0.14479,1.37124 1.15833,1.37124 0.88485,0 1.06182,-0.24198 1.06182,-1.37124 z"
         id="text1"
         style="font-size:14.0334px;font-family:'Data 70';-inkscape-font-specification:'Data 70, ';stroke-width:0.0999997"
         aria-label="racunalniski" /><path
         d="m 129.17726,201.80773 c 0,-1.11313 -0.16089,-1.27445 -1.23878,-1.27445 h -2.65454 c -0.74005,0 -0.85267,-0.11289 -0.85267,-0.85501 v -0.12906 c 0,-0.74208 0.0965,-0.85501 0.85267,-0.85501 h 1.8984 c 0.64352,0 0.74004,0.0807 0.8044,0.58076 0.0483,0.45171 0.20914,0.62917 0.59526,0.62917 0.41829,0 0.59526,-0.22586 0.59526,-0.77436 V 198.791 c 0,-1.11312 -0.16089,-1.27445 -1.23878,-1.27445 h -3.45895 c -1.07789,0 -1.23878,0.16133 -1.23878,1.27445 v 1.67775 c 0,1.06473 0.19306,1.25831 1.25488,1.25831 h 1.57663 c 0.75614,0 0.85266,0.0968 0.85266,0.83888 v 0.53237 c 0,0.74207 -0.11257,0.855 -0.85266,0.855 h -0.85267 c -0.65961,0 -0.77223,-0.11288 -0.80441,-0.79048 -0.0322,-0.59689 -0.16087,-0.79047 -0.57916,-0.79047 -0.43438,0 -0.57917,0.24198 -0.57917,0.96793 v 0.53236 c 0,1.06473 0.19305,1.24218 1.25486,1.24218 h 3.41067 c 1.06182,0 1.25488,-0.17745 1.25488,-1.24218 z m 3.42675,-6.46903 c 0,-0.0161 0,-0.0323 0,-0.0323 0,-0.74209 -0.25741,-0.96795 -1.09399,-0.96795 -0.86875,0 -1.15834,0.25813 -1.15834,1.03247 0,0.72595 0.25741,0.93567 1.12617,0.93567 0.85267,0 1.12616,-0.22585 1.12616,-0.96794 z m -0.016,5.93666 c 0,-0.64529 -0.0805,-0.77435 -0.53091,-0.90341 -0.45047,-0.11288 -0.51482,-0.22584 -0.51482,-0.74207 v -1.16153 c 0,-0.75821 -0.14479,-0.98406 -0.59526,-0.98406 -0.43438,0 -0.57917,0.24199 -0.57917,0.98406 v 5.27524 c 0,1.19379 0.14479,1.37124 1.15835,1.37124 0.88484,0 1.06181,-0.24198 1.06181,-1.37124 z m 6.91788,0.53237 c 0,-1.11313 -0.16087,-1.27445 -1.23878,-1.27445 h -2.65453 c -0.74006,0 -0.85267,-0.11289 -0.85267,-0.85501 v -0.12906 c 0,-0.74208 0.0965,-0.85501 0.85267,-0.85501 h 1.89839 c 0.64353,0 0.74006,0.0807 0.80441,0.58076 0.0483,0.45171 0.20914,0.62917 0.59526,0.62917 0.41828,0 0.59525,-0.22586 0.59525,-0.77436 V 198.791 c 0,-1.11312 -0.16087,-1.27445 -1.23878,-1.27445 h -3.45893 c -1.07791,0 -1.23879,0.16133 -1.23879,1.27445 v 1.67775 c 0,1.06473 0.19306,1.25831 1.25487,1.25831 h 1.57664 c 0.75614,0 0.85267,0.0968 0.85267,0.83888 v 0.53237 c 0,0.74207 -0.11258,0.855 -0.85267,0.855 h -0.85267 c -0.65961,0 -0.77223,-0.11288 -0.8044,-0.79048 -0.0322,-0.59689 -0.16089,-0.79047 -0.57918,-0.79047 -0.43438,0 -0.57917,0.24198 -0.57917,0.96793 v 0.53236 c 0,1.06473 0.19305,1.24218 1.25487,1.24218 h 3.41068 c 1.06181,0 1.25486,-0.17745 1.25486,-1.24218 z m 1.72142,-5.14619 c 0,0.75822 -0.0483,0.85501 -0.49873,0.85501 -0.46656,0 -0.69178,0.19359 -0.69178,0.5969 0,0.33877 0.22522,0.54849 0.61135,0.58075 l 0.20914,0.0161 c 0.2735,0.0323 0.35393,0.11289 0.35393,0.40331 0,0.17746 0.016,0.27425 0.016,0.27425 v 4.35569 c 0,1.1938 0.14479,1.37124 1.15833,1.37124 0.88485,0 1.07791,-0.24198 1.07791,-1.37124 v -2.46823 c 0,-0.64528 -0.0805,-0.77434 -0.53091,-0.9034 -0.45047,-0.11289 -0.5309,-0.22584 -0.5309,-0.74208 v -0.33877 c 0,-0.51624 0.0643,-0.58077 0.5309,-0.5969 0.45046,-0.0161 0.6757,-0.20971 0.6757,-0.5969 0,-0.4033 -0.22524,-0.58075 -0.74006,-0.59688 -0.40219,-0.0161 -0.45046,-0.0807 -0.45046,-0.5969 v -1.14539 c 0,-0.75821 -0.14479,-0.98407 -0.59526,-0.98407 -0.45046,0 -0.59525,0.242 -0.59525,1.0002 z m 9.36328,2.12946 c 0,-1.11312 -0.1448,-1.27445 -1.23879,-1.27445 h -3.42676 c -1.0779,0 -1.23878,0.16133 -1.23878,1.27445 v 5.08165 c 0,1.06473 0.17697,1.24218 1.23878,1.24218 h 3.42676 c 1.06182,0 1.23879,-0.17745 1.23879,-1.24218 v -0.4517 c 0,-0.58077 -0.17697,-0.83888 -0.59526,-0.83888 -0.33785,0 -0.53091,0.19359 -0.56309,0.5485 l -0.0322,0.27424 c -0.0322,0.38717 -0.19306,0.51623 -0.6757,0.51623 h -0.94919 c -0.77223,0 -0.86876,-0.0807 -0.86876,-0.855 v -0.51624 c 0,-0.72594 0.1287,-0.855 0.85267,-0.855 h 1.59272 c 1.06182,0 1.23879,-0.19359 1.23879,-1.24218 z m -2.0271,1.72614 h -1.85013 c -0.77223,0 -0.85267,-0.0807 -0.85267,-0.87113 v -0.11289 c 0,-0.77436 0.0805,-0.85501 0.85267,-0.85501 h 1.85013 c 0.74005,0 0.85267,0.11289 0.85267,0.85501 v 0.11289 c 0,0.75821 -0.11258,0.87113 -0.85267,0.87113 z m 4.4564,-3.00059 c -1.07791,0 -1.23878,0.16133 -1.23878,1.27445 v 4.95259 c 0,1.19379 0.14479,1.37124 1.17442,1.37124 0.88485,0 1.0779,-0.24198 1.0779,-1.37124 v -2.11332 c 0,-0.64529 -0.0805,-0.77434 -0.5309,-0.9034 -0.45047,-0.11289 -0.53091,-0.22586 -0.53091,-0.74209 v -0.4517 c 0,-0.72595 0.1287,-0.855 0.85267,-0.855 h 0.75614 c 0.74005,0 0.83658,0.11288 0.83658,0.855 v 4.21051 c 0,1.19379 0.16088,1.37124 1.17443,1.37124 0.88485,0 1.06182,-0.24198 1.06182,-1.37124 v -2.11332 c 0,-0.64529 -0.0805,-0.77434 -0.53092,-0.9034 -0.45046,-0.11289 -0.5309,-0.22586 -0.5309,-0.74209 v -0.4517 c 0,-0.72595 0.12871,-0.855 0.85267,-0.855 h 0.75614 c 0.74005,0 0.85266,0.11288 0.85266,0.855 v 4.59769 c 0,0.75822 0.12871,0.98406 0.57918,0.98406 0.45046,0 0.59526,-0.24198 0.59526,-1.0002 V 198.791 c 0,-1.11312 -0.16088,-1.27445 -1.23878,-1.27445 z m 10.74683,-2.17785 c 0,-0.0161 0,-0.0323 0,-0.0323 0,-0.74209 -0.25741,-0.96795 -1.09399,-0.96795 -0.86875,0 -1.15834,0.25813 -1.15834,1.03247 0,0.72595 0.25741,0.93567 1.12616,0.93567 0.85267,0 1.12617,-0.22585 1.12617,-0.96794 z m -0.0161,5.93666 c 0,-0.64529 -0.0805,-0.77435 -0.53091,-0.90341 -0.45047,-0.11288 -0.51482,-0.22584 -0.51482,-0.74207 v -1.16153 c 0,-0.75821 -0.14479,-0.98406 -0.59526,-0.98406 -0.43438,0 -0.57917,0.24199 -0.57917,0.98406 v 5.27524 c 0,1.19379 0.14479,1.37124 1.15834,1.37124 0.88484,0 1.06182,-0.24198 1.06182,-1.37124 z"
         id="text1-8"
         style="font-size:14.0334px;font-family:'Data 70';-inkscape-font-specification:'Data 70, ';stroke-width:0.0999997"
         aria-label="sistemi" /><path
         d="m 175.7482,195.30644 c 0,-0.75821 -0.1287,-0.98407 -0.59526,-0.98407 -0.43438,0 -0.57917,0.22586 -0.57917,0.98407 v 1.46803 c 0,0.58076 -0.14479,0.74208 -0.74004,0.74208 h -2.75107 c -1.0779,0 -1.23878,0.16133 -1.23878,1.25832 v 5.09778 c 0,1.06473 0.17697,1.24218 1.23878,1.24218 h 3.45894 c 0.98137,0 1.2066,-0.24198 1.2066,-1.24218 z m -1.15833,4.22664 v 3.54909 c 0,0.74208 -0.12871,0.85501 -0.86877,0.85501 h -0.77222 c -0.78832,0 -0.86876,-0.0807 -0.86876,-0.85501 v -1.4519 c 0,-0.64529 -0.0805,-0.77434 -0.53091,-0.9034 -0.45046,-0.11289 -0.5309,-0.22586 -0.5309,-0.74209 v -0.4517 c 0,-0.72595 0.12871,-0.855 0.85267,-0.855 h 1.86622 c 0.74004,0 0.85267,0.11288 0.85267,0.855 z m 8.30144,-0.74208 c 0,-1.11312 -0.14479,-1.27445 -1.23878,-1.27445 h -3.42675 c -1.07791,0 -1.23878,0.16133 -1.23878,1.27445 v 5.08165 c 0,1.06473 0.17696,1.24218 1.23878,1.24218 h 3.42675 c 1.06182,0 1.23878,-0.17745 1.23878,-1.24218 v -0.4517 c 0,-0.58077 -0.17696,-0.83888 -0.59525,-0.83888 -0.33785,0 -0.5309,0.19359 -0.56308,0.5485 l -0.0322,0.27424 c -0.0322,0.38717 -0.19305,0.51623 -0.67569,0.51623 h -0.9492 c -0.77223,0 -0.86876,-0.0807 -0.86876,-0.855 v -0.51624 c 0,-0.72594 0.12871,-0.855 0.85267,-0.855 h 1.59272 c 1.06182,0 1.23878,-0.19359 1.23878,-1.24218 z m -2.0271,1.72614 h -1.85012 c -0.77223,0 -0.85267,-0.0807 -0.85267,-0.87113 v -0.11289 c 0,-0.77436 0.0805,-0.85501 0.85267,-0.85501 h 1.85012 c 0.74006,0 0.85267,0.11289 0.85267,0.85501 v 0.11289 c 0,0.75821 -0.11258,0.87113 -0.85267,0.87113 z m 5.45387,-2.14558 c 0,-0.64528 -0.0805,-0.77435 -0.53091,-0.90341 -0.46655,-0.11288 -0.53091,-0.22585 -0.53091,-0.74207 v -1.41964 c 0,-0.75821 -0.1287,-0.98407 -0.57916,-0.98407 -0.45048,0 -0.59527,0.24198 -0.59527,0.98407 v 8.43715 c 0,1.19379 0.14479,1.37124 1.15835,1.37124 0.88485,0 1.0779,-0.24198 1.0779,-1.37124 z m 1.83404,-1.71002 c 0,0.75822 -0.0483,0.85501 -0.49873,0.85501 -0.46655,0 -0.69179,0.19359 -0.69179,0.5969 0,0.33877 0.22524,0.54849 0.61135,0.58075 l 0.20914,0.0161 c 0.2735,0.0323 0.35394,0.11289 0.35394,0.40331 0,0.17746 0.0161,0.27425 0.0161,0.27425 v 4.35569 c 0,1.1938 0.14479,1.37124 1.15835,1.37124 0.88484,0 1.07789,-0.24198 1.07789,-1.37124 v -2.46823 c 0,-0.64528 -0.0805,-0.77434 -0.5309,-0.9034 -0.45046,-0.11289 -0.53091,-0.22584 -0.53091,-0.74208 v -0.33877 c 0,-0.51624 0.0643,-0.58077 0.53091,-0.5969 0.45047,-0.0161 0.67571,-0.20971 0.67571,-0.5969 0,-0.4033 -0.22524,-0.58075 -0.74006,-0.59688 -0.40221,-0.0161 -0.45047,-0.0807 -0.45047,-0.5969 v -1.14539 c 0,-0.75821 -0.14479,-0.98407 -0.59525,-0.98407 -0.45048,0 -0.59527,0.242 -0.59527,1.0002 z m 9.26675,2.12946 c 0,-1.12926 -0.1448,-1.27445 -1.23878,-1.27445 h -3.42677 c -1.09399,0 -1.23878,0.16133 -1.23878,1.27445 v 0.19358 c 0,0.69369 0.1287,0.90341 0.57917,0.90341 0.33784,0 0.5309,-0.17746 0.57916,-0.53236 l 0.0322,-0.22586 c 0.0483,-0.3549 0.20915,-0.45169 0.75614,-0.45169 h 1.93057 c 0.74006,0 0.83658,0.11288 0.83658,0.855 v 0.14519 c 0,0.74208 -0.11257,0.85501 -0.85266,0.85501 h -2.62237 c -1.09399,0 -1.23878,0.16132 -1.23878,1.27445 l -0.016,2.06492 c 0,1.06473 0.19306,1.24218 1.25487,1.24218 h 3.41067 c 1.06182,0 1.25488,-0.17745 1.25488,-1.24218 z m -1.19052,3.82334 v 0.48397 c 0,0.72594 -0.11258,0.83887 -0.85267,0.83887 h -0.77223 c -0.78831,0 -0.86876,-0.0807 -0.86876,-0.85501 v -0.51623 c 0,-0.72595 0.12871,-0.855 0.85267,-0.855 h 0.80441 c 0.75614,0 0.83658,0.0968 0.83658,0.9034 z"
         id="text1-8-5"
         style="font-size:14.0334px;font-family:'Data 70';-inkscape-font-specification:'Data 70, ';stroke-width:0.0999997"
         aria-label="delta" /><path
         style="fill:#000000;fill-opacity:1;stroke:none;stroke-width:0.0999998;stroke-opacity:1"
         d="m 61.829211,196.51076 c 0.28125,0 0.537528,-0.0837 0.777218,-0.26871 0.33882,-0.26157 0.52425,-0.42276 0.87729,-0.88744 0.55246,-0.72715 0.007,-0.87664 -0.49695,-0.88197 -0.52512,-0.006 -0.833098,0.007 -0.950848,0.31419 -0.15089,0.39384 0.10406,0.97566 -0.66559,0.97566 -0.76966,0 -0.51471,-0.58182 -0.6656,-0.97566 -0.11775,-0.30719 -0.42573,-0.32019 -0.95085,-0.31419 -0.50395,0.005 -1.04941,0.15482 -0.49695,0.88197 0.35304,0.46468 0.53847,0.62587 0.87729,0.88744 0.23969,0.18501 0.49597,0.26871 0.77722,0.26871 h 0.45889 z"
         id="path6-4"
         sodipodi:nodetypes="sssccsccssscs" /><path
         id="path8-6-8-6-5-3"
         style="fill:#000000;fill-opacity:1;fill-rule:evenodd;stroke:none;stroke-width:0.1"
         d="m 30.90555,201.47741 c -0.431812,0.15123 -1.079431,-0.58513 -0.970215,-0.90779 0.109238,-0.32267 0.592452,-0.44332 1.123333,-1.48956 0.53089,-1.04624 0.342939,-1.50746 0.538858,-1.78616 0.195897,-0.27866 1.1726,-0.1908 1.305522,0.24699 0.132883,0.43779 -0.141914,1.47706 -0.515573,2.21343 -0.373665,0.73639 -1.050143,1.57183 -1.481925,1.72309 z m -5.600646,1.60802 c 0.127944,0.058 0.300713,0.13076 0.306013,0.25122 0.01187,0.27198 -0.382119,0.28658 -0.714004,0.28758 l -0.875793,0.003 c -2.711985,0.009 -6.078674,-2.8663 -6.078673,-6.26457 -1e-6,-3.39827 3.366688,-6.27386 6.078673,-6.26457 l 0.875793,0.003 c 0.331885,0.001 0.725872,0.0156 0.714004,0.28758 -0.0053,0.12046 -0.178069,0.19324 -0.306013,0.25122 -2.181302,0.98845 -3.708291,3.17298 -3.70829,5.72277 -10e-7,2.54979 1.526988,4.73432 3.70829,5.72277 z m 0.351873,-10.28937 c -0.330267,0.31664 0.03335,1.22737 0.370498,1.27598 0.337186,0.0486 0.663433,-0.32772 1.836656,-0.32771 1.173223,0 1.49947,0.37631 1.836656,0.32771 0.337152,-0.0486 0.700765,-0.95934 0.370498,-1.27598 -0.330267,-0.3166 -1.381396,-0.54182 -2.207154,-0.54182 -0.825759,0 -1.876887,0.22522 -2.207154,0.54182 z m 5.829167,-1.65113 -5.060097,-7.79185 c -0.247983,-0.38 -0.50221,-0.77556 -0.53167,-1.23814 0.0043,-0.32402 0.184769,-0.67106 0.355312,-0.91087 0.231714,-0.32582 -0.122667,-0.46628 -0.644122,-0.46696 -0.512311,-6.7e-4 -1.085405,-0.0128 -1.536933,-0.002 -0.533369,0.0128 -0.95312,0.0533 -1.288969,0.41775 -0.462378,0.50175 -0.403297,1.29587 -0.01722,1.88178 1.702513,2.58373 5.107548,7.75119 5.107548,7.75119 0.185078,0.28088 0.490529,0.33898 0.724509,0.36841 0.968801,0.12185 1.705777,0.32396 2.598828,0.92962 0.0014,9.4e-4 1.622169,1.09991 0.292811,-0.93893 z m -2.025441,-7.77088 c 0.19463,0.52524 0.73381,0.90287 1.368489,0.90287 0.457153,0 0.931934,-0.14874 1.129751,-0.5018 l 1.261366,-2.25126 c 0.04899,-0.0874 0.09799,-0.17489 0.146982,-0.26233 0.124863,-0.22265 -0.02961,-0.5224 -0.30714,-0.5224 0,0 -1.558091,-0.003 -2.337136,-0.004 -0.402196,0.006 -0.469543,0.26956 -0.64031,0.58515 0,0 -0.402825,0.74445 -0.604236,1.11668 -0.172172,0.31819 -0.08282,0.76152 -0.01777,0.93709 z m 10.144585,20.10578 c 10e-7,0.90299 -0.732014,1.635 -1.634999,1.635 H 15.19917 c -0.902985,0 -1.635,-0.73201 -1.634999,-1.635 v -22.58339 c -10e-7,-0.90299 0.732014,-1.635 1.634999,-1.635 h 22.770919 c 0.902985,0 1.635,0.73201 1.634999,1.635 z m -14.782775,-2.00242 c 0.431812,0.15123 1.079431,-0.58513 0.970215,-0.90779 -0.109238,-0.32267 -0.592452,-0.44332 -1.123333,-1.48956 -0.53089,-1.04624 -0.342939,-1.50746 -0.538858,-1.78616 -0.195897,-0.27866 -1.1726,-0.1908 -1.305522,0.24699 -0.132883,0.43779 0.141914,1.47706 0.515573,2.21343 0.373665,0.73639 1.050143,1.57183 1.481925,1.72309 z" /></g></g></svg>
